{"glyphs":{"0":{"ha":511,"x_min":89,"x_max":560,"o":"m 213 -11 q 117 32 144 -11 q 89 139 89 75 q 110 272 89 201 q 167 403 132 342 q 240 501 201 465 q 291 544 264 522 q 340 585 318 565 q 390 607 360 600 q 443 614 421 614 q 533 569 506 614 q 560 458 560 524 q 541 331 560 399 q 490 202 522 263 q 417 104 457 142 q 371 67 394 83 q 324 28 347 51 q 268 -2 301 7 q 213 -11 235 -11 m 269 36 q 360 79 317 36 q 439 203 404 122 q 477 314 463 258 q 492 417 492 369 q 475 501 492 465 q 422 553 458 538 q 381 561 401 561 q 285 513 329 561 q 211 392 242 465 q 174 283 188 338 q 160 179 160 228 q 174 99 160 133 q 222 47 189 64 q 269 36 243 36 z "},"1":{"ha":338,"x_min":11,"x_max":410,"o":"m 174 8 q 140 6 174 8 q 11 -3 106 4 l 24 15 q 42 14 28 14 q 99 24 65 14 q 149 61 133 35 q 166 102 156 74 q 188 164 176 131 q 210 227 200 197 q 225 275 219 257 l 272 421 q 292 504 292 485 q 288 519 292 515 q 279 525 285 522 q 254 518 272 529 q 217 492 236 507 q 190 471 203 482 q 171 457 178 460 q 177 478 175 472 q 182 494 179 485 q 228 522 201 507 q 289 558 256 538 q 338 590 306 569 q 393 624 369 610 q 406 629 400 629 q 410 624 410 629 q 406 608 410 617 q 357 494 379 557 q 307 342 335 432 l 286 274 q 262 197 275 239 q 239 117 249 154 q 226 61 229 81 q 243 28 224 39 q 287 16 263 18 q 319 14 311 14 l 304 -3 q 274 2 297 0 q 222 6 250 4 q 174 8 194 8 z "},"2":{"ha":460,"x_min":29,"x_max":564,"o":"m 29 -7 q 121 74 61 21 q 251 196 181 128 q 314 255 278 221 q 386 328 350 289 q 451 405 422 367 q 489 476 479 443 q 494 508 494 492 q 470 562 494 540 q 400 583 446 583 q 353 578 378 583 q 310 561 328 572 q 280 530 296 551 q 258 489 264 508 q 251 458 256 479 q 247 433 246 438 l 218 418 q 231 466 224 435 q 244 526 238 497 q 250 564 250 556 q 259 582 250 575 q 275 592 268 589 q 322 602 289 597 q 381 608 354 607 l 411 610 q 513 596 476 613 q 552 562 540 583 q 564 513 564 540 q 556 461 564 486 q 530 408 547 433 q 492 360 513 383 q 390 266 451 317 q 265 167 328 215 q 154 82 201 118 q 129 56 129 63 q 134 52 129 53 q 144 50 139 51 q 190 47 165 49 q 242 46 215 46 q 324 51 285 46 q 383 67 364 56 q 415 92 397 75 q 447 127 432 108 q 467 156 463 146 l 479 151 q 467 133 478 149 q 444 96 456 117 q 424 58 432 75 q 394 16 411 32 q 347 0 378 0 q 288 2 325 0 q 219 4 251 4 q 196 4 207 4 q 176 3 185 4 q 140 1 176 3 q 29 -7 104 -1 z "},"3":{"ha":436,"x_min":43,"x_max":538,"o":"m 188 -12 q 117 -8 156 -12 q 60 8 79 -3 q 49 19 54 11 q 49 36 43 26 q 60 65 53 44 q 74 110 67 86 q 85 149 81 133 l 115 161 q 106 138 113 157 q 97 107 100 118 q 96 99 96 103 q 96 90 96 94 q 114 36 96 51 q 146 19 125 25 q 189 14 167 14 q 291 40 249 14 q 360 104 333 65 q 400 185 388 143 q 408 232 408 213 q 380 292 408 274 q 310 316 351 311 q 225 321 268 321 q 238 336 232 329 q 243 343 243 343 q 257 346 253 346 q 268 347 261 346 q 340 367 299 354 q 416 406 381 381 q 465 476 451 432 q 471 508 471 492 q 447 562 471 540 q 376 583 422 583 q 329 578 354 583 q 288 561 304 572 q 256 530 272 551 q 235 489 240 508 q 227 458 232 479 q 224 433 222 438 l 194 418 q 207 466 200 435 q 220 526 214 497 q 226 564 226 556 q 235 582 226 575 q 251 592 244 589 q 298 602 265 597 q 357 608 331 607 l 388 610 q 489 596 453 613 q 526 563 515 583 q 538 521 538 543 q 536 503 538 511 q 532 486 535 494 q 476 405 518 440 q 371 349 433 369 q 351 339 351 343 q 360 335 351 336 q 376 332 368 333 q 434 317 408 329 q 471 276 460 304 q 476 244 476 264 q 466 186 476 218 q 442 127 456 154 q 415 85 428 100 q 326 15 381 42 q 188 -12 272 -12 z "},"4":{"ha":560,"x_min":64,"x_max":601,"o":"m 329 8 q 296 6 329 8 q 168 -3 263 4 l 181 15 q 197 14 185 14 q 255 24 221 14 q 304 61 289 35 q 325 110 313 76 q 350 179 338 143 l 271 179 q 215 177 271 179 q 85 171 160 175 l 75 171 q 64 174 64 171 q 79 188 64 178 q 136 239 103 203 q 199 306 169 275 l 361 476 q 424 549 401 519 q 463 583 447 578 q 516 606 486 590 q 558 621 546 621 q 563 608 569 621 q 514 494 536 557 q 463 342 492 432 l 442 274 q 426 228 435 251 q 469 234 450 231 q 497 243 488 238 q 532 268 513 251 q 567 303 551 285 q 588 331 583 321 l 601 326 q 588 308 600 324 q 564 272 576 292 q 543 235 551 251 q 512 192 529 208 q 464 176 494 176 q 440 177 453 176 q 413 178 426 178 q 394 110 403 142 q 382 61 385 78 q 399 28 379 39 q 442 16 418 18 q 476 14 467 14 l 460 -3 q 429 2 453 0 q 378 6 406 4 q 329 8 350 8 m 307 222 q 336 222 322 222 q 364 224 350 222 q 374 252 369 239 q 381 275 379 265 l 428 421 q 445 477 439 451 q 451 517 451 503 q 447 532 451 528 q 410 499 436 525 q 351 439 385 474 q 284 367 318 404 q 222 299 250 331 q 178 251 193 268 q 168 235 168 242 q 185 226 168 229 q 240 224 208 225 q 307 222 272 222 z "},"5":{"ha":460,"x_min":43,"x_max":593,"o":"m 188 -12 q 118 -8 156 -12 q 60 8 81 -3 q 49 19 54 11 q 49 36 43 26 q 60 65 53 44 q 74 110 67 86 q 85 149 81 133 l 115 161 q 106 138 113 157 q 97 107 100 118 q 96 99 96 103 q 96 90 96 94 q 114 36 96 51 q 146 19 125 25 q 189 14 167 14 q 285 38 243 14 q 357 101 328 63 q 399 181 386 139 q 410 243 410 214 q 392 300 410 278 q 356 325 378 317 q 306 333 333 333 q 240 328 275 333 q 175 313 206 324 q 168 310 171 311 q 163 310 165 310 q 160 311 160 310 q 164 320 160 314 q 174 338 168 326 q 203 401 189 368 q 228 463 217 435 q 244 501 240 490 q 256 530 249 511 q 270 567 263 549 q 279 590 278 585 q 296 604 285 604 l 582 604 q 587 589 593 604 q 569 554 581 574 q 551 521 558 535 q 546 508 551 521 q 533 477 540 494 q 519 447 526 460 l 500 451 q 522 492 513 471 q 532 514 532 514 q 539 533 539 525 q 529 548 539 542 q 493 554 519 554 q 448 554 481 554 q 382 553 415 554 q 333 551 349 553 q 297 532 307 549 q 266 469 285 508 q 230 394 247 431 q 206 343 213 358 q 268 363 229 356 q 332 369 307 369 q 486 263 486 369 q 474 192 486 232 q 365 39 443 90 q 188 -12 288 -12 z "},"6":{"ha":467,"x_min":86,"x_max":582,"o":"m 221 -6 q 115 35 144 -6 q 86 133 86 75 q 96 215 86 172 q 119 296 106 257 q 198 449 149 375 q 317 572 247 524 q 478 619 388 619 q 526 616 503 619 q 567 603 549 613 q 577 595 572 601 q 576 581 582 589 q 560 535 571 569 q 543 481 549 501 l 518 469 q 526 490 521 474 q 535 517 532 507 q 536 525 536 521 q 536 533 536 529 q 522 578 536 564 q 498 591 513 588 q 467 594 483 594 q 372 565 418 594 q 289 492 325 536 q 232 406 253 449 q 210 358 221 383 q 194 310 200 332 q 240 338 217 326 q 279 360 263 349 q 323 374 294 369 q 372 378 351 378 q 469 341 440 378 q 499 254 499 304 q 472 149 499 203 q 400 65 444 96 q 361 43 381 53 q 319 18 342 33 q 271 0 301 6 q 221 -6 240 -6 m 269 31 q 332 46 301 31 q 405 124 383 74 q 426 219 426 174 q 422 258 426 240 q 390 317 415 294 q 326 339 364 339 q 271 326 300 339 q 183 239 211 300 q 163 187 171 213 q 156 136 156 161 q 172 74 156 101 q 228 36 189 47 q 269 31 246 31 z "},"7":{"ha":431,"x_min":69,"x_max":615,"o":"m 151 0 q 135 3 143 3 q 119 3 126 3 q 85 1 100 3 q 69 3 71 -1 q 101 49 71 11 q 180 142 132 86 q 281 261 228 199 q 383 381 335 324 q 462 478 431 438 q 494 532 493 519 l 494 535 q 471 551 494 549 q 423 553 457 553 q 356 554 389 554 q 310 554 322 554 q 256 544 271 554 q 232 519 240 535 q 219 498 232 519 q 201 457 207 476 l 176 453 q 192 481 183 465 q 207 509 200 497 q 214 521 214 521 q 230 554 222 535 q 247 589 238 574 q 268 604 257 604 q 304 604 272 604 q 382 603 336 604 q 475 602 428 603 q 557 601 522 601 q 583 605 568 601 q 606 609 597 608 q 606 599 615 610 q 546 529 586 576 q 455 422 506 482 q 352 296 404 361 q 256 171 300 231 q 183 66 211 111 q 151 0 154 21 z "},"8":{"ha":488,"x_min":56,"x_max":529,"o":"m 181 -12 q 94 9 133 -12 q 56 76 56 31 q 61 111 56 94 q 106 190 75 156 q 176 252 138 225 q 253 300 215 279 q 204 344 222 321 q 186 403 186 368 q 189 427 186 414 q 196 454 192 440 q 247 541 211 503 q 329 601 283 579 q 419 624 375 624 q 499 603 468 624 q 529 539 529 583 q 528 519 529 529 q 522 496 526 508 q 483 432 511 463 q 422 376 456 401 q 356 332 388 351 q 413 280 389 307 q 438 211 438 253 q 429 163 438 190 q 373 69 413 108 q 283 9 333 31 q 181 -12 232 -12 m 336 346 q 392 388 363 363 q 447 444 422 414 q 481 501 472 474 q 486 533 486 517 q 465 583 486 565 q 411 601 444 601 q 324 570 363 601 q 269 489 285 539 q 264 453 264 472 q 287 390 264 415 q 336 346 310 365 m 185 14 q 282 44 238 14 q 344 129 326 75 q 350 153 349 142 q 351 174 351 164 q 328 239 351 214 q 274 286 306 264 q 181 215 225 256 q 121 122 138 175 q 115 100 117 111 q 114 79 114 89 q 131 32 114 50 q 185 14 149 14 z "},"9":{"ha":467,"x_min":57,"x_max":553,"o":"m 160 -6 q 113 -2 135 -6 q 71 11 90 1 q 62 19 67 14 q 63 35 57 25 q 79 79 68 46 q 96 133 90 113 l 121 144 q 113 125 118 142 q 104 97 107 108 q 103 89 103 93 q 103 81 103 85 q 117 38 103 51 q 142 24 128 28 q 172 21 156 21 q 267 50 222 21 q 349 123 313 79 q 407 210 386 167 q 428 258 418 233 q 444 304 439 282 q 399 278 422 289 q 360 256 376 267 q 315 242 344 246 q 265 238 286 238 q 168 274 197 238 q 139 360 139 310 q 167 465 139 411 q 239 549 194 518 q 278 572 258 563 q 318 596 297 582 q 367 614 338 608 q 418 619 397 619 q 524 580 494 619 q 553 482 553 540 q 543 402 553 444 q 518 319 533 360 q 464 203 497 261 q 386 99 431 146 q 285 23 342 51 q 160 -6 228 -6 m 315 278 q 397 306 360 278 q 456 375 435 333 q 476 428 468 401 q 483 478 483 454 q 467 540 483 513 q 411 578 450 567 q 368 585 388 585 q 292 560 328 585 q 232 486 256 535 q 212 433 219 460 q 204 383 204 407 q 222 321 204 349 q 282 282 240 293 q 315 278 299 278 z "}," ":{"ha":235,"x_min":0,"x_max":0,"o":""}," ":{"ha":235,"x_min":0,"x_max":0,"o":""},"!":{"ha":410,"x_min":139,"x_max":578,"o":"m 233 176 q 253 226 238 186 q 290 324 268 267 q 338 447 313 382 q 385 572 363 511 q 426 676 408 632 q 441 717 433 694 q 453 750 449 740 q 503 765 471 754 q 563 797 535 775 l 564 797 q 573 786 568 797 q 574 772 578 775 q 556 748 568 768 q 532 708 543 728 q 518 683 521 689 q 435 521 476 603 q 359 369 394 439 q 300 251 324 299 q 271 192 276 203 q 249 176 267 183 q 233 176 232 168 m 192 -8 q 163 2 176 -8 q 140 22 149 13 q 151 34 139 25 q 177 51 163 43 q 193 58 192 60 q 215 47 204 53 q 239 42 226 40 l 244 42 q 251 38 251 42 q 242 24 251 33 q 216 3 229 14 q 192 -8 203 -8 z "},"\"":{"ha":233,"x_min":142,"x_max":442,"o":"m 300 594 q 294 610 288 594 q 324 705 313 656 q 346 796 336 754 q 360 815 346 804 q 394 835 375 826 q 428 848 414 844 q 439 844 442 851 q 390 732 424 794 q 328 618 356 669 q 300 594 315 594 m 154 594 q 149 610 142 594 q 178 705 167 656 q 200 796 190 754 q 215 815 200 804 q 248 835 229 826 q 281 848 267 844 q 293 844 296 851 q 243 732 276 794 q 182 618 210 669 q 154 594 169 594 z "},"#":{"ha":804,"x_min":14,"x_max":803,"o":"m 103 56 q 86 64 85 56 q 126 147 97 92 q 194 269 156 201 q 92 267 142 268 q 18 264 43 267 q 23 277 14 264 q 46 303 32 290 q 67 314 60 315 q 124 311 79 313 q 218 308 168 310 q 258 373 238 340 q 299 436 278 406 q 190 435 243 436 q 108 432 136 435 q 113 444 104 432 q 135 470 122 457 q 156 482 149 483 q 221 478 171 481 q 325 476 271 476 q 417 606 372 547 q 492 694 461 665 q 508 694 494 697 q 535 686 522 690 q 546 681 547 682 q 473 597 515 651 q 385 475 431 542 l 444 475 q 501 475 467 475 q 576 476 536 475 q 668 606 624 547 q 743 694 713 664 q 760 694 746 697 q 788 686 775 690 q 799 681 800 682 q 726 597 768 651 q 638 476 683 543 q 738 478 693 478 q 799 479 783 479 q 794 467 803 479 q 772 442 785 454 q 750 429 758 429 q 697 432 738 431 q 608 435 657 433 q 567 372 588 404 q 526 310 546 340 q 640 310 588 310 q 708 313 692 311 q 703 300 713 313 q 681 275 694 288 q 660 263 668 263 q 599 265 646 264 q 500 267 553 265 q 426 149 460 203 q 374 63 393 94 q 354 56 369 56 q 343 58 349 56 q 339 64 338 60 q 379 150 350 96 q 446 268 408 204 q 390 269 415 269 q 351 269 365 269 l 249 269 q 174 150 208 206 q 121 63 140 94 q 103 56 117 56 m 274 308 l 471 308 q 510 372 490 340 q 550 436 529 404 q 486 437 515 436 q 442 438 457 438 l 358 438 q 315 373 336 406 q 274 308 294 340 z "},"$":{"ha":435,"x_min":69,"x_max":499,"o":"m 126 -68 q 149 0 135 -40 q 181 89 163 40 q 101 124 133 96 q 69 204 69 153 q 81 265 69 236 q 124 313 93 294 q 129 314 125 314 q 137 310 135 314 q 136 304 139 307 q 119 274 126 292 q 114 238 114 257 q 126 185 114 208 q 193 122 149 140 q 236 236 213 176 q 283 356 260 296 q 244 415 261 382 q 228 483 228 449 q 238 535 228 510 q 275 588 249 561 q 330 626 299 611 q 393 640 361 640 l 396 640 q 413 678 406 661 q 425 710 419 696 q 444 722 428 717 q 457 719 460 726 q 446 692 454 713 q 425 639 438 671 q 477 622 456 636 q 499 568 499 607 q 491 521 499 546 q 474 476 483 496 q 456 460 468 465 q 446 468 443 454 q 451 494 449 479 q 453 522 453 508 q 447 558 453 543 q 410 599 435 589 q 379 515 396 561 q 344 419 363 469 q 369 392 357 406 q 389 368 381 379 q 426 267 426 318 q 397 175 426 215 q 322 111 368 135 q 225 86 275 88 q 181 -47 196 4 q 167 -55 181 -49 q 140 -66 153 -61 q 126 -68 126 -71 m 319 447 q 352 531 336 492 q 382 606 368 571 q 316 583 347 608 q 285 518 285 558 q 285 510 285 514 q 286 501 285 506 q 298 476 289 489 q 319 447 307 463 m 233 113 q 252 113 243 113 q 271 115 261 114 q 332 153 304 122 q 360 228 360 183 q 348 276 360 251 q 310 328 336 301 q 271 217 290 272 q 233 113 251 161 z "},"%":{"ha":878,"x_min":94,"x_max":1018,"o":"m 118 -47 q 101 -44 108 -47 q 100 -35 94 -40 q 223 115 151 29 q 378 292 294 200 q 549 474 461 385 q 719 640 636 564 q 872 764 803 715 q 770 752 819 756 q 676 749 721 749 q 589 753 629 749 q 513 764 549 757 q 543 719 543 754 q 528 663 543 693 q 504 617 514 632 q 465 561 492 594 q 406 494 439 528 q 338 436 374 461 q 253 404 292 404 q 205 424 218 404 q 192 471 192 444 q 199 521 192 496 q 214 563 206 546 q 230 594 221 578 q 249 624 239 610 q 269 653 253 632 q 307 701 286 675 q 347 744 328 726 q 378 763 367 763 q 393 759 385 763 q 400 747 401 756 q 379 714 400 740 q 330 651 358 688 q 275 576 301 615 q 259 549 272 571 q 235 499 246 526 q 224 450 224 472 q 256 419 224 419 q 285 428 269 419 q 311 446 301 438 q 388 524 350 476 q 451 625 426 572 q 476 718 476 678 q 466 760 476 742 q 431 788 456 778 q 447 799 438 794 q 468 801 457 804 q 558 785 511 789 q 651 781 604 781 q 703 781 678 781 q 753 783 728 782 q 883 799 811 786 q 1003 826 954 813 q 1018 813 1018 825 q 998 773 1018 796 q 958 747 978 750 q 826 645 899 707 q 675 509 754 583 q 518 356 596 435 q 369 203 440 278 q 240 66 297 129 q 144 -39 182 3 q 118 -47 139 -47 m 583 -14 q 535 6 549 -14 q 522 53 522 26 q 529 103 522 78 q 544 144 536 128 q 560 176 551 160 q 579 206 569 192 q 600 235 583 214 q 638 283 617 257 q 678 326 658 308 q 708 344 697 344 q 724 341 715 344 q 732 329 733 338 q 711 296 732 322 q 662 233 690 269 q 607 158 633 196 q 590 131 603 153 q 566 81 578 108 q 554 32 554 54 q 586 1 554 1 q 616 10 600 1 q 642 28 632 19 q 719 106 681 57 q 782 207 757 154 q 807 300 807 260 q 797 342 807 324 q 763 369 786 360 q 754 375 754 372 q 763 383 754 383 q 810 374 785 383 q 855 347 836 365 q 874 303 874 329 q 862 249 874 276 q 835 197 850 222 q 796 142 822 175 q 737 76 769 110 q 669 18 704 43 q 625 -5 647 4 q 583 -14 603 -14 z "},"&":{"ha":844,"x_min":154,"x_max":1110,"o":"m 906 -154 q 823 -126 865 -154 q 735 -33 781 -97 q 697 26 717 -7 q 657 94 676 60 q 611 52 635 72 q 554 11 588 32 q 444 -41 497 -25 q 344 -57 392 -57 q 256 -40 296 -57 q 192 4 217 -24 q 154 101 154 46 q 181 196 154 153 q 244 271 208 239 q 369 356 301 321 q 501 429 438 392 l 503 431 q 488 524 488 479 q 490 549 488 536 q 493 575 492 563 q 537 648 504 625 q 603 671 569 671 q 658 653 635 671 q 681 603 681 635 q 658 543 681 574 q 606 486 636 513 q 550 442 576 460 q 581 373 561 415 q 624 286 601 331 l 810 286 q 849 287 829 286 q 879 296 869 288 q 885 297 882 299 q 885 290 888 296 l 860 253 q 843 243 856 243 q 833 243 839 243 q 819 244 828 243 q 784 249 803 247 q 746 253 765 251 q 728 199 740 228 q 700 146 715 169 q 750 63 725 103 q 796 -4 775 24 q 874 -79 838 -57 q 940 -101 910 -101 q 1026 -66 988 -101 q 1094 10 1064 -31 q 1103 15 1099 15 q 1110 7 1110 15 q 1104 -7 1110 -1 q 1007 -115 1056 -75 q 906 -154 958 -154 m 544 457 q 617 520 585 485 q 660 592 650 556 q 661 600 661 596 q 661 607 661 604 q 646 642 661 631 q 611 654 631 654 q 566 637 589 654 q 533 579 543 619 q 531 563 532 571 q 531 546 531 554 q 535 495 531 519 q 544 457 540 471 m 399 11 q 539 36 475 11 q 595 69 568 47 q 644 118 622 92 q 613 179 632 142 q 571 263 593 217 q 507 253 543 261 q 445 225 471 244 q 422 169 419 206 q 427 145 422 160 q 433 126 432 131 l 422 118 q 397 163 413 136 q 379 201 381 189 q 380 232 378 214 q 399 264 382 250 q 449 284 417 279 q 515 289 481 289 q 538 288 526 289 q 558 288 549 288 q 533 350 546 318 q 507 414 519 382 l 494 406 q 381 332 440 372 q 282 242 322 292 q 251 188 264 219 q 238 124 238 156 q 244 87 238 106 q 264 53 250 68 q 323 21 288 31 q 399 11 358 11 m 685 172 q 708 215 697 192 q 726 256 719 238 q 682 260 704 258 q 636 263 660 261 q 663 213 651 236 q 685 172 675 189 z "},"'":{"ha":147,"x_min":142,"x_max":296,"o":"m 154 594 q 149 610 142 594 q 178 705 167 656 q 200 796 190 754 q 215 815 200 804 q 248 835 229 826 q 281 848 267 844 q 293 844 296 851 q 243 732 276 794 q 182 618 210 669 q 154 594 169 594 z "},"(":{"ha":372,"x_min":68,"x_max":843,"o":"m 226 -75 q 112 -26 156 -75 q 68 115 68 24 q 94 295 68 206 q 164 461 121 385 q 295 628 214 549 q 475 769 376 707 q 672 867 574 832 q 749 890 711 881 q 826 901 788 899 q 838 892 833 903 q 836 879 843 881 q 643 816 740 863 q 458 699 546 769 q 303 538 371 628 q 195 347 235 449 q 156 138 156 246 q 168 58 156 101 q 210 -15 181 14 q 292 -40 240 -44 q 305 -37 299 -39 q 317 -35 311 -36 l 318 -35 q 326 -40 326 -35 q 303 -62 326 -56 q 226 -75 261 -75 z "},")":{"ha":704,"x_min":-64,"x_max":710,"o":"m -49 -62 q -59 -53 -54 -64 q -58 -40 -64 -42 q 135 22 38 -25 q 320 139 232 68 q 476 299 408 210 q 584 491 544 389 q 624 701 624 593 q 611 782 624 739 q 569 854 599 825 q 488 879 540 883 q 474 876 481 878 q 461 874 468 875 l 460 874 q 453 879 453 874 q 459 892 453 885 q 476 901 465 899 q 551 914 517 914 q 667 863 624 914 q 710 718 710 813 q 684 541 710 629 q 614 378 658 453 q 483 210 565 290 q 303 69 401 131 q 106 -28 206 7 q 29 -51 68 -42 q -49 -62 -10 -60 z "},"*":{"ha":704,"x_min":97,"x_max":681,"o":"m 353 325 l 267 325 l 364 554 l 360 557 l 119 421 l 97 492 l 353 583 l 353 586 l 154 679 l 219 750 l 376 613 l 382 615 l 425 846 l 511 846 l 413 615 l 417 613 l 658 751 l 681 681 l 425 586 l 424 583 l 624 492 l 557 421 l 400 557 l 394 554 l 353 325 z "},"+":{"ha":453,"x_min":115,"x_max":626,"o":"m 236 57 q 287 164 260 101 q 335 274 314 226 q 226 273 286 274 q 119 268 165 272 q 124 281 115 268 q 147 307 133 294 q 168 318 161 319 q 217 314 185 315 q 287 313 250 313 q 350 313 324 313 q 385 401 367 354 q 408 471 403 449 q 431 486 411 478 q 469 499 451 494 q 486 499 488 503 q 465 452 479 483 q 433 384 450 421 q 400 313 415 347 q 485 313 440 313 q 568 315 531 314 q 622 317 606 317 q 617 304 626 317 q 595 279 608 292 q 574 267 582 267 q 526 269 560 268 q 454 272 493 271 q 383 274 415 274 l 382 268 q 356 206 371 242 q 328 136 340 169 q 313 86 317 103 q 291 70 311 79 q 252 57 271 61 q 236 57 233 53 z "},",":{"ha":179,"x_min":47,"x_max":169,"o":"m 50 -111 q 52 -106 51 -108 q 61 -96 53 -103 q 98 -49 85 -75 q 111 -8 111 -22 q 102 20 111 7 q 76 38 93 33 l 82 53 q 101 60 89 54 q 119 71 114 67 q 132 81 126 75 q 140 88 138 88 q 169 51 169 83 q 169 41 169 46 q 167 29 168 36 q 132 -53 157 -22 q 68 -111 107 -83 q 50 -111 47 -125 z "},"-":{"ha":346,"x_min":103,"x_max":339,"o":"m 306 200 q 270 203 289 201 q 224 206 251 206 q 165 205 192 206 q 106 201 138 204 q 108 211 103 201 q 123 231 114 221 q 136 239 132 240 q 176 235 151 236 q 226 233 200 235 q 290 235 263 233 q 336 238 318 236 q 333 228 339 238 q 319 209 328 218 q 306 200 311 200 z "},".":{"ha":207,"x_min":44,"x_max":158,"o":"m 97 -8 q 69 2 83 -8 q 46 22 54 13 q 57 34 44 25 q 84 51 69 43 q 100 58 99 60 q 122 47 111 53 q 146 42 133 40 l 151 42 q 158 38 158 42 q 149 24 158 33 q 123 3 136 14 q 97 -8 110 -8 z "},"/":{"ha":524,"x_min":-3,"x_max":796,"o":"m 26 -44 q 6 -42 14 -44 q 0 -35 -3 -40 q 138 152 61 51 q 294 357 214 253 q 452 556 375 461 q 593 728 529 651 q 697 847 657 804 q 713 851 700 850 q 740 851 725 851 q 778 851 760 851 q 793 847 796 850 q 705 749 763 815 q 575 597 647 683 q 426 418 503 511 q 276 237 349 325 q 147 77 204 149 q 60 -36 90 6 q 47 -42 57 -40 q 26 -44 38 -44 z "},":":{"ha":214,"x_min":81,"x_max":293,"o":"m 232 342 q 204 351 218 342 q 182 371 190 361 q 193 383 181 374 q 219 401 206 392 q 235 408 233 410 q 257 397 246 403 q 281 392 268 390 l 286 392 q 293 388 293 392 q 283 374 293 383 q 258 353 271 364 q 232 342 244 342 m 132 -7 q 103 4 117 -6 q 82 24 90 14 q 92 35 81 26 q 119 53 104 44 q 135 61 133 63 q 157 49 146 56 q 181 44 168 43 l 185 44 q 193 40 193 44 q 183 26 193 35 q 157 4 171 15 q 132 -7 143 -7 z "},";":{"ha":214,"x_min":51,"x_max":313,"o":"m 251 342 q 222 351 236 342 q 200 371 208 361 q 211 383 199 374 q 238 401 224 392 q 254 408 251 410 q 276 397 265 403 q 300 392 288 390 l 306 392 q 313 388 313 392 q 303 374 313 383 q 276 353 290 364 q 251 342 263 342 m 71 -150 q 58 -158 64 -156 q 51 -161 51 -161 l 54 -150 q 56 -144 56 -147 q 65 -135 57 -142 q 106 -90 89 -115 q 129 -33 124 -64 q 122 -3 132 -17 q 94 15 113 11 l 100 31 q 119 38 107 32 q 138 49 132 44 q 149 59 143 53 q 158 65 154 65 q 181 53 174 64 q 188 28 188 43 q 187 17 188 22 q 185 7 186 13 q 142 -83 174 -44 q 71 -150 111 -122 z "},"<":{"ha":407,"x_min":122,"x_max":453,"o":"m 329 72 q 324 96 331 86 q 311 114 318 106 q 224 208 276 163 q 122 278 171 253 l 129 301 q 294 401 214 347 q 453 513 375 454 q 444 481 453 496 q 401 441 432 465 q 334 391 371 417 q 265 344 297 365 q 215 313 232 322 q 213 301 207 307 q 270 259 239 283 q 326 208 301 235 q 346 189 332 203 q 372 158 360 175 q 383 128 383 142 q 378 114 383 119 q 358 95 376 111 q 338 72 340 79 l 329 72 z "},"=":{"ha":478,"x_min":81,"x_max":535,"o":"m 482 340 q 409 345 456 343 q 321 347 363 347 q 219 347 271 347 q 119 342 168 346 q 124 354 115 342 q 147 380 133 367 q 168 392 161 393 q 238 387 192 388 q 324 385 283 386 q 440 387 381 385 q 531 390 500 389 q 526 378 535 390 q 503 353 517 365 q 482 340 490 340 m 447 172 q 374 177 421 175 q 286 179 328 179 q 185 178 236 179 q 85 174 133 178 q 90 187 81 174 q 113 213 99 200 q 133 224 126 225 q 203 219 157 221 q 289 218 249 218 q 406 219 346 218 q 496 222 465 221 q 491 210 500 222 q 469 185 482 197 q 447 172 456 172 z "},">":{"ha":407,"x_min":82,"x_max":417,"o":"m 111 72 q 101 95 111 79 q 88 114 90 111 q 101 146 82 126 q 146 183 121 165 q 181 208 171 201 q 258 259 217 235 q 333 301 300 283 q 335 313 342 307 q 299 344 322 322 q 250 391 276 365 q 203 441 224 417 q 178 481 183 465 l 178 486 q 180 500 178 493 q 183 513 182 507 q 294 401 236 454 q 417 301 353 347 l 414 278 q 328 235 375 261 q 237 177 282 208 q 156 114 192 146 q 135 96 146 106 q 119 72 124 86 l 111 72 z "},"?":{"ha":603,"x_min":139,"x_max":667,"o":"m 250 160 q 215 250 215 197 q 240 321 215 286 q 292 378 264 356 l 522 561 q 564 613 550 585 q 578 667 578 640 q 565 715 578 693 q 525 749 551 738 q 471 758 504 758 q 412 750 442 758 q 360 726 382 742 q 331 695 347 718 q 302 646 315 672 q 283 596 289 619 q 269 576 283 583 q 256 583 254 569 q 267 632 261 604 q 276 686 272 660 q 281 725 281 713 q 292 750 281 740 q 311 764 303 760 q 368 780 328 772 q 440 789 408 788 l 479 792 q 499 793 490 793 q 518 793 508 793 q 628 766 589 793 q 667 681 667 739 q 667 665 667 674 q 664 646 667 656 q 622 554 654 590 q 544 494 589 518 q 452 447 500 469 q 362 397 404 425 q 292 328 319 369 q 263 272 274 299 q 251 222 251 244 q 265 181 251 196 l 250 160 m 192 -8 q 163 2 176 -8 q 140 22 149 13 q 151 34 139 25 q 177 51 163 43 q 193 58 192 60 q 215 47 204 53 q 239 42 226 40 l 244 42 q 251 38 251 42 q 242 24 251 33 q 216 3 229 14 q 192 -8 203 -8 z "},"@":{"ha":982,"x_min":89,"x_max":1014,"o":"m 435 -157 q 309 -142 371 -157 q 197 -95 247 -128 q 118 -10 147 -62 q 89 119 89 43 q 136 319 90 231 q 259 469 182 407 q 433 565 336 532 q 633 597 531 597 q 775 583 706 597 q 899 537 844 568 q 983 456 953 506 q 1010 338 1014 407 q 938 159 1003 228 q 772 58 874 90 q 553 26 671 26 q 519 54 519 26 q 529 97 519 72 q 551 147 539 122 q 574 188 564 172 q 524 137 550 161 q 471 90 499 113 q 413 49 444 68 q 346 29 382 29 q 326 38 332 29 q 321 58 321 46 l 321 69 q 356 181 328 124 q 425 290 385 239 q 507 375 465 342 q 557 401 531 392 q 611 411 583 411 l 771 410 q 778 404 778 410 q 765 393 778 393 q 736 376 750 393 q 715 349 722 360 q 685 297 706 332 q 644 221 665 263 q 607 142 622 179 q 592 85 592 106 q 605 65 592 72 q 639 58 618 58 q 724 76 675 58 q 820 129 772 93 q 899 219 868 165 q 931 349 931 274 q 890 475 931 428 q 783 544 849 522 q 646 565 718 565 q 470 532 556 565 q 315 439 385 499 q 205 298 246 379 q 163 119 164 217 q 199 -13 163 44 q 297 -103 235 -71 q 435 -136 358 -136 q 636 -101 542 -136 q 803 11 731 -67 q 829 26 818 26 q 842 8 842 26 q 836 -11 842 0 q 819 -33 831 -22 q 644 -133 735 -110 q 435 -157 553 -157 m 403 75 q 449 99 419 75 q 514 161 479 124 q 579 240 549 199 q 630 315 610 281 q 650 367 650 349 q 640 388 650 382 q 617 393 631 393 q 569 376 594 393 q 529 344 544 360 q 490 297 513 329 q 444 225 467 264 q 406 150 421 186 q 390 92 390 114 q 403 75 390 75 z "},"A":{"ha":1067,"x_min":24,"x_max":1351,"o":"m 121 -35 q 51 -10 78 -35 q 29 65 24 15 q 38 103 31 83 q 56 143 46 124 q 72 163 64 163 q 74 151 79 163 q 56 85 56 114 q 77 39 56 54 q 133 24 99 24 q 283 67 201 24 q 453 180 365 111 q 621 324 540 249 q 519 329 567 326 q 436 332 472 332 q 363 326 406 332 q 296 297 319 321 q 278 269 286 288 q 271 231 271 250 q 272 220 271 225 q 274 210 272 215 q 253 215 268 213 q 235 232 239 217 q 233 246 233 236 q 250 283 233 268 q 290 308 267 297 q 333 328 314 319 q 428 360 379 347 q 526 372 476 372 q 668 368 583 372 q 789 489 733 432 q 879 583 844 546 q 983 672 928 635 q 1094 724 1038 708 l 1018 724 q 913 719 969 724 q 806 701 856 715 q 722 660 756 688 q 691 619 701 642 q 681 576 681 596 q 696 540 681 550 q 697 540 697 540 q 697 539 697 539 q 688 530 697 535 q 674 528 678 525 q 649 567 660 538 q 642 615 639 597 q 680 685 649 658 q 758 728 711 713 q 856 749 804 743 q 956 756 908 754 q 1038 757 1004 757 l 1189 757 q 1190 756 1192 757 q 1263 786 1225 771 q 1329 801 1301 801 q 1344 797 1336 801 q 1351 789 1351 793 q 1324 782 1351 782 q 1295 777 1310 782 q 1257 747 1281 772 q 1208 685 1238 728 q 1144 584 1179 642 q 1075 462 1110 526 q 1008 335 1040 397 q 953 219 976 272 q 938 181 950 211 q 914 116 925 151 q 903 53 903 81 q 929 15 903 15 q 954 21 942 15 q 992 42 972 28 q 1029 74 1011 56 q 1090 141 1065 108 q 1121 181 1115 174 q 1131 188 1125 188 q 1136 181 1136 188 q 1132 169 1136 176 q 1096 122 1122 156 q 1034 53 1069 88 q 958 0 999 18 q 932 -9 946 -6 q 904 -12 918 -12 q 853 7 876 -12 q 831 71 831 26 q 847 158 831 111 q 876 233 863 204 q 942 367 904 293 q 1022 514 981 440 q 1097 647 1063 588 q 1154 736 1132 707 q 1094 719 1132 736 q 1015 673 1057 701 q 936 607 972 644 q 837 499 893 563 q 715 365 781 435 q 779 363 747 364 q 843 363 811 363 q 892 367 865 363 q 943 383 919 372 q 935 369 943 383 q 910 340 928 354 q 864 322 893 325 q 811 320 838 321 q 758 319 785 319 q 715 319 736 319 q 672 321 693 319 q 539 191 608 254 q 399 76 469 128 q 258 -5 328 25 q 121 -35 188 -35 z "},"B":{"ha":781,"x_min":-6,"x_max":813,"o":"m 15 -26 q 0 -22 6 -26 q 0 -14 -6 -17 q 53 9 31 -8 q 89 53 75 26 q 146 151 118 101 q 200 250 174 200 l 333 496 q 390 606 365 553 q 428 682 414 658 q 462 715 438 700 q 510 738 486 729 q 493 738 501 738 q 475 739 485 739 q 381 734 432 739 q 283 719 331 729 q 199 693 235 710 q 150 653 163 676 q 140 628 144 640 q 136 603 136 615 q 158 557 136 571 q 160 554 160 557 q 155 549 160 551 q 146 547 150 546 q 115 581 133 554 q 93 626 97 608 q 89 657 89 643 q 113 713 89 693 q 172 742 136 733 q 247 753 208 751 q 314 756 285 756 q 419 756 358 756 q 532 757 481 757 q 560 758 544 757 q 592 758 575 758 q 669 754 629 758 q 743 736 710 750 q 794 693 776 722 q 813 626 813 663 q 799 557 813 592 q 765 497 785 522 q 736 467 753 482 q 699 438 719 451 q 653 412 678 424 q 596 393 629 400 q 594 389 594 393 q 596 385 593 385 q 620 381 603 383 q 651 376 638 379 q 733 335 700 367 q 765 251 765 304 q 734 142 765 192 q 654 56 703 92 q 553 1 606 21 q 400 -24 486 -24 q 293 -14 349 -24 q 192 19 238 -4 q 172 28 182 25 q 151 32 163 32 q 110 21 132 32 q 74 0 96 15 q 24 -25 51 -15 q 15 -26 21 -26 m 356 -4 q 428 3 392 -4 q 493 22 464 11 q 588 77 544 42 q 658 162 631 113 q 685 272 685 211 q 664 334 685 313 q 611 364 643 356 q 544 372 579 372 q 494 369 518 372 q 451 363 471 367 q 382 347 413 356 q 383 358 376 350 q 402 375 390 365 q 421 390 414 385 q 433 399 424 393 q 447 406 442 406 q 569 414 515 406 q 661 455 622 422 q 725 557 700 488 q 738 628 738 593 q 718 698 738 668 q 656 733 699 728 q 643 735 650 735 q 629 735 636 735 q 572 728 603 735 q 525 701 540 721 q 458 598 490 656 q 397 481 426 540 q 342 371 368 422 q 276 244 310 308 q 211 115 243 181 q 203 83 203 99 q 238 29 203 56 q 292 3 261 11 q 356 -4 324 -4 z "},"C":{"ha":732,"x_min":53,"x_max":818,"o":"m 344 -40 q 203 -19 271 -40 q 94 53 136 3 q 53 188 53 103 q 88 364 53 278 q 181 524 122 450 q 311 653 239 599 q 459 732 375 701 q 626 763 543 763 q 692 758 661 763 q 754 738 722 753 q 799 706 782 725 q 815 664 815 688 q 815 657 815 661 q 814 650 815 653 q 788 599 808 628 q 757 540 768 571 q 742 531 756 535 q 731 533 728 528 q 748 578 742 551 q 754 631 754 604 q 751 667 754 650 q 739 697 747 685 q 696 732 725 722 q 633 742 667 742 q 569 735 601 742 q 514 719 538 728 q 360 628 433 690 q 244 496 294 571 q 164 342 193 421 q 135 190 135 263 q 167 74 135 117 q 250 13 199 31 q 361 -6 301 -6 q 466 6 414 -6 q 561 33 518 17 q 694 101 635 61 q 804 206 753 142 q 814 213 811 213 q 818 207 818 213 q 807 181 818 196 q 700 74 760 117 q 572 3 640 31 q 466 -28 526 -15 q 344 -40 406 -40 z "},"D":{"ha":869,"x_min":-3,"x_max":950,"o":"m 14 -26 q 4 -24 11 -26 q -3 -18 -3 -22 q -1 -15 -3 -17 q 0 -14 0 -14 q 9 -11 10 -11 q 8 -12 8 -11 q 18 -10 8 -12 q 59 15 42 -1 q 89 53 76 31 q 214 273 154 161 q 333 496 274 385 q 365 556 350 525 q 396 617 381 586 q 410 650 403 633 q 428 682 418 667 q 463 716 439 701 q 510 738 488 731 l 476 738 q 401 734 449 738 q 300 722 353 731 q 206 697 247 714 q 150 653 165 681 q 136 604 136 628 q 149 567 136 576 q 161 554 161 557 q 157 549 161 551 q 150 546 153 546 q 129 563 142 546 q 106 599 117 579 q 93 626 96 619 q 89 657 89 642 q 115 715 89 694 q 178 743 140 735 q 253 753 215 751 q 317 756 292 756 q 456 759 386 756 q 593 763 525 763 q 722 753 658 763 q 836 718 785 744 q 919 643 888 692 q 950 515 950 594 q 923 367 950 443 q 856 232 896 292 q 381 -22 686 -22 q 284 -12 333 -22 q 192 19 235 -3 q 172 28 182 25 q 150 32 161 32 q 103 17 126 32 q 57 -12 79 3 q 14 -26 35 -26 m 364 -3 q 558 38 468 -3 q 717 151 649 78 q 824 318 785 224 q 853 411 842 363 q 865 507 865 460 q 799 674 865 615 q 626 733 733 733 q 572 728 600 733 q 525 701 543 722 q 491 653 507 679 q 460 601 475 626 q 399 487 428 546 q 342 371 371 428 q 251 194 296 283 q 231 155 242 175 q 211 115 221 135 q 206 101 208 108 q 203 83 203 93 q 214 53 203 65 q 238 29 225 40 q 299 3 264 10 q 364 -3 333 -3 z "},"E":{"ha":664,"x_min":46,"x_max":807,"o":"m 325 -17 q 235 -15 281 -17 q 144 -7 189 -12 q 46 57 46 1 q 68 124 46 85 q 176 315 121 219 q 286 506 232 410 q 329 582 303 536 q 382 669 356 628 q 418 709 394 689 q 467 735 442 729 q 392 731 438 733 q 301 720 347 728 q 217 697 254 713 q 165 653 181 681 q 156 628 160 640 q 151 603 151 615 q 174 557 151 571 q 175 554 175 557 q 170 549 175 551 q 161 547 165 546 q 131 581 149 554 q 108 626 113 608 q 104 657 104 643 q 128 713 104 693 q 188 742 151 733 q 261 753 224 751 q 328 756 299 756 q 475 758 401 756 q 621 760 549 760 q 684 760 653 760 q 746 757 715 760 q 794 743 781 756 q 807 713 807 731 q 792 662 807 690 q 765 610 778 633 q 747 594 760 599 q 738 601 735 589 q 744 657 744 629 q 735 702 744 682 q 701 731 726 722 q 628 738 678 738 q 591 737 610 738 q 553 735 572 736 q 478 706 497 731 q 390 567 432 642 q 308 426 347 493 q 307 419 307 424 q 319 411 307 411 q 424 410 368 411 q 524 410 481 408 q 553 413 533 411 q 595 418 574 414 q 628 428 617 422 q 636 432 635 432 q 637 416 644 432 q 612 384 629 400 q 572 368 594 368 q 458 371 504 368 q 354 374 411 374 q 325 374 340 374 q 292 372 310 374 q 272 361 278 371 q 248 315 258 336 q 222 267 238 294 q 195 213 211 246 q 167 147 179 181 q 154 88 154 113 q 194 28 154 44 q 293 11 235 13 q 452 27 374 11 q 599 81 531 43 q 719 185 668 119 q 724 188 722 188 q 729 180 728 188 q 728 168 731 172 q 644 66 685 115 q 564 4 604 17 q 469 -10 535 -4 q 325 -17 404 -17 z "},"F":{"ha":808,"x_min":44,"x_max":1089,"o":"m 196 -53 q 114 -28 153 -53 q 56 46 75 -4 q 47 85 49 64 q 44 125 44 106 l 44 143 q 47 161 44 153 q 57 169 49 169 q 60 167 60 169 q 59 150 60 158 q 58 133 58 142 q 91 34 58 68 q 172 0 124 0 q 267 28 221 0 q 351 100 313 57 q 402 172 374 124 q 462 280 431 219 q 525 405 493 340 q 586 530 557 469 q 639 636 615 590 q 699 704 661 679 q 763 739 736 729 q 722 738 753 739 q 656 735 690 736 q 600 732 621 733 q 493 719 547 729 q 397 693 439 710 q 338 650 356 676 q 325 608 325 632 q 367 540 325 561 q 369 538 369 538 q 363 530 369 533 q 349 528 356 526 q 322 551 338 535 q 292 585 306 567 q 275 615 279 603 q 268 649 268 636 q 293 703 268 682 q 358 737 318 725 q 444 753 399 749 q 533 760 490 758 q 607 761 576 761 q 734 762 678 761 q 838 763 790 763 q 931 761 886 763 q 1026 757 976 760 q 1076 743 1063 756 q 1089 713 1089 731 q 1074 661 1089 689 q 1046 610 1058 633 q 1028 594 1040 599 q 1018 601 1015 589 q 1024 628 1021 614 q 1026 657 1026 643 q 1017 702 1026 682 q 983 731 1007 722 q 950 738 969 736 q 908 740 931 740 q 825 732 867 740 q 760 706 783 724 q 701 633 731 683 q 644 526 671 583 q 597 426 618 469 q 596 418 596 424 q 608 411 596 411 q 663 411 628 411 q 738 410 699 411 q 804 410 776 410 q 853 406 835 410 q 871 388 871 403 q 864 365 871 382 q 842 327 854 343 q 824 294 831 311 q 811 285 822 289 q 803 286 800 281 q 815 317 808 299 q 821 350 821 336 q 801 372 821 372 l 585 372 q 565 361 572 372 q 478 189 525 281 q 371 32 432 97 q 290 -29 336 -6 q 196 -53 244 -53 z "},"G":{"ha":800,"x_min":44,"x_max":910,"o":"m 247 -483 q 138 -460 194 -483 q 58 -387 82 -437 q 47 -349 49 -369 q 44 -310 44 -329 l 44 -294 q 47 -274 44 -283 q 61 -265 50 -265 q 64 -268 64 -265 q 63 -285 64 -276 q 61 -303 61 -293 q 102 -400 61 -367 q 204 -433 143 -433 q 365 -390 292 -433 q 499 -272 439 -347 q 594 -131 557 -200 q 658 8 631 -62 q 715 154 686 79 q 615 55 679 100 q 477 -17 551 10 q 333 -44 403 -44 q 195 -19 260 -44 q 92 58 131 7 q 53 188 53 110 q 88 364 53 278 q 181 524 122 450 q 311 653 239 599 q 459 732 375 701 q 626 763 543 763 q 692 758 661 763 q 754 738 722 753 q 799 706 782 725 q 815 664 815 688 q 815 657 815 661 q 814 650 815 653 q 788 599 808 628 q 757 540 768 571 q 742 531 756 535 q 731 533 728 528 q 748 578 742 551 q 754 631 754 604 q 751 667 754 650 q 739 697 747 685 q 696 732 725 722 q 633 742 667 742 q 569 735 601 742 q 514 719 538 728 q 360 628 433 690 q 244 496 294 571 q 164 342 193 421 q 135 190 135 263 q 163 71 135 117 q 239 3 192 25 q 340 -18 286 -18 q 538 34 453 -18 q 683 171 624 86 q 775 353 743 256 l 632 353 q 586 351 615 353 q 526 341 557 349 q 475 317 496 333 q 454 271 454 300 q 457 251 454 261 q 461 235 460 240 l 449 226 q 426 265 439 244 q 411 297 413 285 q 413 326 410 308 q 431 358 415 344 q 478 378 447 374 q 543 383 510 383 q 601 381 574 383 q 646 379 629 379 l 910 379 l 894 363 q 851 356 875 363 q 813 331 828 350 q 766 243 782 292 q 733 140 750 194 q 679 -53 706 42 q 609 -234 653 -149 q 482 -392 565 -319 q 371 -456 438 -429 q 247 -483 304 -483 z "},"H":{"ha":1069,"x_min":7,"x_max":1285,"o":"m 158 -28 q 76 -3 115 -28 q 18 71 38 22 q 9 110 11 89 q 7 150 7 131 l 7 168 q 9 186 7 178 q 19 194 11 194 q 22 192 22 194 q 22 175 22 183 q 21 158 21 167 q 53 60 21 93 q 135 26 86 26 q 229 54 183 26 q 314 125 275 82 q 377 215 346 160 q 442 335 408 271 q 349 331 397 333 q 260 322 300 329 q 253 329 247 321 q 274 350 258 338 q 306 372 289 363 q 335 383 324 382 q 394 381 358 382 q 464 379 429 381 q 523 492 494 435 q 576 600 551 550 q 613 656 590 628 q 665 707 636 685 q 724 735 693 729 q 572 731 650 732 q 422 710 493 729 q 365 688 390 701 q 329 653 340 674 q 318 607 318 632 q 338 557 318 572 q 339 554 339 556 q 334 549 339 551 q 325 547 329 546 q 294 581 313 554 q 272 626 276 608 q 268 657 268 643 q 292 713 268 693 q 351 742 315 733 q 425 753 388 751 q 492 756 463 756 l 646 756 q 738 756 699 756 q 800 761 776 757 q 804 762 803 761 q 807 763 806 763 q 815 757 815 763 q 810 747 815 751 q 803 742 806 742 q 722 704 760 738 q 654 618 685 671 q 624 561 646 603 q 575 469 601 519 q 526 376 549 419 q 570 374 553 375 q 590 374 588 374 l 794 374 q 841 378 807 374 q 893 390 875 382 q 969 533 931 463 q 1042 660 1008 604 q 1096 742 1076 717 q 1149 765 1119 751 q 1209 790 1179 779 q 1263 801 1239 801 q 1277 797 1269 801 q 1285 789 1285 793 q 1257 782 1285 782 q 1228 777 1243 782 q 1189 747 1213 772 q 1138 681 1169 728 q 1071 573 1107 635 q 998 443 1035 511 q 929 310 961 375 q 875 194 897 246 q 846 114 853 142 q 842 92 844 104 q 840 69 840 81 q 851 31 840 47 q 893 14 863 14 q 938 22 915 14 q 979 40 961 31 q 1069 116 1029 68 q 1135 197 1110 164 q 1140 203 1139 203 q 1144 193 1144 203 q 1140 178 1144 185 q 1071 91 1114 140 q 971 10 1028 42 q 869 -14 926 -14 q 795 17 826 -14 q 764 93 764 49 q 772 138 764 115 q 813 229 785 169 q 878 361 842 289 q 846 339 864 349 q 811 331 828 329 q 713 335 768 335 q 572 336 658 336 l 506 336 q 425 181 467 257 q 339 57 383 106 q 256 -4 304 19 q 158 -28 207 -28 z "},"I":{"ha":507,"x_min":14,"x_max":893,"o":"m 167 -14 q 85 10 124 -14 q 26 85 46 35 q 17 123 19 103 q 14 163 14 143 q 21 182 14 182 q 29 171 29 182 q 62 72 29 106 q 143 39 94 39 q 238 67 192 39 q 322 138 283 94 q 429 278 385 207 q 510 426 474 350 q 585 583 547 501 q 633 662 604 625 q 696 721 661 699 l 654 721 q 597 718 633 721 q 522 706 560 715 q 460 674 485 696 q 438 614 435 651 q 446 584 439 603 q 454 561 453 565 l 440 550 q 419 585 432 565 q 397 625 407 606 q 385 654 386 644 q 387 690 383 668 q 408 729 390 713 q 466 753 429 747 q 542 758 503 758 q 614 756 579 758 q 671 753 649 753 l 893 754 l 875 733 q 835 731 861 733 q 782 724 810 729 q 706 687 749 718 q 632 604 663 656 l 619 583 q 572 471 599 536 q 513 333 546 406 q 442 194 481 261 q 356 76 403 126 q 268 13 321 39 q 167 -14 215 -14 z "},"J":{"ha":282,"x_min":-308,"x_max":578,"o":"m -157 -232 q -239 -207 -200 -232 q -297 -132 -278 -182 q -306 -94 -304 -114 q -308 -54 -308 -74 q -301 -35 -308 -35 q -294 -46 -294 -35 q -262 -144 -294 -111 q -179 -178 -229 -178 q -85 -150 -131 -178 q -1 -79 -40 -122 q 117 83 64 -8 q 214 271 171 174 q 246 347 225 294 q 292 460 267 399 q 340 572 317 522 q 376 647 361 619 q 415 694 390 675 q 490 733 440 714 q 449 730 468 732 q 418 728 429 728 q 313 721 365 726 q 218 701 260 715 q 158 660 176 686 q 146 618 146 642 q 158 572 146 594 q 190 540 171 550 q 193 536 193 538 q 187 530 193 533 q 174 528 181 526 q 146 551 163 535 q 116 585 129 567 q 99 615 103 603 q 93 649 93 632 q 117 703 93 682 q 181 735 142 724 q 265 751 219 746 q 352 756 310 756 q 425 757 394 757 l 575 757 q 578 756 578 757 q 569 744 578 751 q 557 736 560 736 q 488 707 518 735 q 437 644 458 679 q 401 579 415 608 q 376 526 393 563 q 338 442 358 489 q 298 350 318 396 q 263 271 278 304 q 195 116 226 188 q 126 -18 164 44 q 33 -140 89 -81 q -55 -205 -1 -178 q -157 -232 -108 -232 z "},"K":{"ha":778,"x_min":-4,"x_max":1106,"o":"m 8 -29 q -1 -26 3 -29 q -1 -22 -4 -24 q 52 28 31 3 q 96 92 74 53 l 115 125 q 178 233 143 172 q 248 357 213 294 q 313 472 283 419 q 361 558 343 525 q 379 590 379 590 q 462 690 417 656 q 542 733 507 724 q 361 718 440 732 q 254 653 282 704 q 247 631 249 643 q 244 608 244 619 q 264 557 244 572 q 265 554 265 556 q 260 549 265 551 q 251 547 256 546 q 221 581 239 554 q 199 626 203 608 q 194 657 194 643 q 221 715 194 694 q 285 744 247 736 q 364 754 324 753 q 431 756 404 756 l 486 756 q 547 756 514 756 q 601 761 579 757 l 607 761 q 619 756 615 761 q 624 744 624 750 q 614 733 624 733 q 605 734 608 733 q 596 735 601 735 q 468 624 532 735 q 453 599 468 624 q 417 538 439 575 q 372 458 396 500 q 331 383 349 417 q 251 233 293 314 q 164 64 208 151 q 147 26 154 47 q 126 4 140 4 q 113 6 121 4 q 94 7 104 7 q 52 -1 71 7 q 14 -28 33 -10 q 8 -29 13 -29 m 614 -15 q 543 8 579 -15 q 469 79 507 31 q 394 195 425 139 q 345 293 364 251 q 317 353 326 335 q 477 482 394 425 q 642 590 560 539 q 761 665 697 624 q 890 733 825 706 q 979 753 936 753 q 1018 749 999 753 q 1056 739 1038 746 q 1088 722 1069 735 q 1103 692 1106 708 q 1097 686 1103 686 q 1085 694 1090 686 q 1068 711 1079 703 q 1033 719 1057 719 q 966 707 1003 719 q 901 683 929 694 q 785 632 846 660 q 669 574 724 604 q 567 513 621 547 q 462 442 513 478 q 371 378 411 407 q 399 315 379 357 q 450 222 418 274 q 525 117 482 169 q 588 60 557 78 q 647 43 619 43 q 717 65 685 43 q 780 119 750 86 q 836 188 810 153 q 846 196 843 196 q 851 189 851 196 q 844 172 851 181 q 727 36 783 88 q 614 -15 671 -15 z "},"L":{"ha":760,"x_min":4,"x_max":753,"o":"m 11 -10 q 8 -11 10 -11 q 4 1 4 -11 q 9 19 4 10 q 28 29 14 28 q 101 56 67 32 q 163 112 136 79 q 200 174 189 144 l 328 493 q 388 619 354 558 q 476 719 422 681 q 611 758 529 758 q 676 751 643 758 q 731 726 708 743 q 753 679 753 710 q 753 671 753 675 q 751 663 753 667 q 727 618 747 640 q 696 563 707 596 q 683 553 694 553 q 679 565 674 553 q 697 605 690 582 q 703 651 703 628 q 686 715 703 688 q 629 743 669 743 q 556 722 593 743 q 490 650 518 701 l 233 176 q 167 81 197 110 q 118 46 138 53 l 453 46 q 576 50 519 46 q 646 71 633 54 q 660 113 660 90 q 622 164 660 147 q 618 169 618 167 q 622 175 618 172 q 631 175 625 178 q 660 151 643 169 q 693 110 678 132 q 713 76 708 89 q 717 51 717 64 q 618 -6 717 -6 q 451 0 540 -6 q 276 13 363 6 q 113 22 189 19 q 55 15 83 25 q 11 -10 26 4 z "},"M":{"ha":1153,"x_min":8,"x_max":1397,"o":"m 161 -14 q 79 10 118 -14 q 21 85 40 35 q 11 123 14 103 q 8 163 8 143 q 15 182 8 182 q 24 171 24 182 q 56 72 24 106 q 138 39 89 39 q 231 67 186 39 q 315 138 276 94 q 424 278 379 207 q 505 426 468 350 q 579 583 542 501 q 638 671 603 633 q 724 722 674 708 l 725 724 l 649 724 q 546 719 600 724 q 448 701 492 715 q 385 660 404 688 q 372 618 372 642 q 385 572 372 594 q 417 540 397 550 q 419 536 419 538 q 413 530 419 533 q 400 528 407 526 q 372 551 389 535 q 342 585 356 567 q 325 615 329 603 q 319 649 319 632 q 344 703 319 682 q 407 735 368 724 q 491 751 446 746 q 578 756 536 756 q 651 757 621 757 l 801 757 q 804 756 804 757 q 795 744 804 751 q 783 736 786 736 q 732 699 749 729 q 717 604 715 669 q 717 574 717 604 q 719 494 718 543 q 722 390 721 446 q 725 283 724 335 q 728 197 726 232 l 728 189 l 1210 697 q 1301 780 1256 746 q 1394 810 1346 814 q 1397 809 1396 810 q 1397 808 1397 808 q 1392 799 1397 804 q 1379 792 1386 793 q 1314 764 1343 793 q 1260 694 1285 735 q 1222 628 1247 674 q 1166 522 1197 583 q 1103 393 1135 461 q 1044 260 1071 325 q 1000 141 1017 194 q 983 54 983 88 q 1010 15 983 15 q 1033 21 1021 15 q 1074 42 1051 28 q 1114 74 1096 56 q 1178 145 1150 108 q 1211 188 1206 182 q 1218 193 1215 193 q 1224 185 1224 193 q 1218 169 1224 176 q 1181 122 1207 156 q 1119 53 1154 88 q 1043 0 1083 18 q 1017 -9 1031 -6 q 989 -12 1003 -12 q 934 6 958 -12 q 910 69 910 25 q 930 167 910 113 q 976 274 950 222 q 1018 363 1001 326 q 1064 458 1036 400 q 1128 576 1092 517 l 728 154 q 718 133 726 143 q 692 115 710 122 q 665 93 682 111 q 643 68 649 75 q 639 67 643 67 q 631 69 635 67 q 628 74 626 72 q 665 200 664 119 l 667 233 q 671 356 669 292 q 673 477 672 421 q 674 569 674 533 q 674 604 674 604 q 683 663 674 638 q 707 706 693 688 q 661 663 683 688 q 624 607 639 638 q 576 496 603 564 q 516 351 550 428 q 441 202 482 275 q 350 76 400 129 q 262 13 315 39 q 161 -14 208 -14 z "},"N":{"ha":1001,"x_min":8,"x_max":1310,"o":"m 801 -42 q 794 -39 797 -42 q 792 -35 790 -36 q 808 -8 801 -22 q 819 22 814 7 q 772 225 801 119 q 708 437 742 331 q 643 639 674 543 q 623 606 633 632 q 608 567 613 579 q 566 456 590 519 q 512 326 542 393 q 445 194 482 258 q 364 76 408 129 q 307 30 343 50 q 232 -2 271 10 q 161 -14 193 -14 q 78 10 118 -14 q 19 85 39 35 q 11 123 14 103 q 8 163 8 143 q 15 182 8 182 q 22 171 22 182 q 58 63 22 106 q 144 19 94 19 q 242 43 193 19 q 329 108 290 67 q 435 256 392 178 q 511 417 478 333 q 579 583 544 500 q 638 675 600 636 q 725 724 675 714 l 649 724 q 546 719 600 724 q 447 701 492 715 q 383 660 403 688 q 372 619 372 643 q 385 572 372 594 q 417 540 397 550 q 419 538 419 538 q 413 530 419 533 q 400 528 407 526 q 372 551 389 535 q 342 585 356 567 q 325 615 329 603 q 319 649 319 632 q 344 703 319 682 q 407 735 368 724 q 491 751 446 746 q 578 756 536 756 q 650 757 619 757 l 818 757 q 819 747 825 758 q 803 726 813 736 q 789 715 794 715 q 747 710 775 717 q 707 696 718 704 q 727 572 711 643 q 765 423 743 501 q 815 266 788 344 q 868 119 842 188 q 918 249 890 172 q 977 411 946 325 q 1042 578 1008 497 q 1110 724 1076 660 q 1178 818 1144 788 q 1218 842 1194 833 q 1263 851 1242 851 q 1296 842 1282 851 q 1308 814 1310 833 l 1307 764 q 1300 761 1307 763 q 1294 761 1293 760 q 1281 787 1296 779 q 1256 794 1265 794 q 1194 758 1226 796 q 1126 660 1161 721 q 1058 526 1092 599 q 995 380 1025 453 q 942 246 965 307 q 903 150 918 185 q 889 93 889 121 q 889 85 889 89 q 890 76 889 81 q 892 64 890 71 q 896 50 894 57 q 897 47 896 49 q 897 43 897 46 q 886 24 897 32 q 856 7 872 14 q 828 -15 846 3 q 807 -39 811 -32 q 801 -42 804 -42 z "},"O":{"ha":825,"x_min":10,"x_max":900,"o":"m 322 -17 q 211 -8 267 -17 q 110 25 156 1 q 38 92 65 49 q 10 203 10 135 q 33 334 10 260 q 101 484 56 408 q 216 625 147 560 q 376 730 285 690 q 581 769 467 769 q 824 716 747 769 q 900 550 900 663 q 855 339 900 440 q 730 157 810 238 q 546 30 650 76 q 322 -17 442 -17 m 311 4 q 473 37 396 4 q 613 126 550 69 q 723 254 676 182 q 795 406 769 326 q 821 563 821 485 q 767 699 821 649 q 583 749 713 749 q 437 712 510 749 q 301 614 364 675 q 188 479 238 553 q 111 331 139 406 q 83 190 83 256 q 135 53 83 103 q 311 4 188 4 z "},"P":{"ha":751,"x_min":-1,"x_max":826,"o":"m 19 -26 q 4 -22 10 -26 q 4 -14 -1 -17 q 57 9 35 -8 q 93 53 79 26 q 151 151 122 101 q 206 250 179 200 q 271 373 238 311 q 338 496 304 435 q 394 606 369 553 q 432 682 419 658 q 466 715 442 700 q 514 738 490 729 q 497 738 506 738 q 479 739 489 739 q 385 734 436 739 q 287 719 335 729 q 203 693 239 710 q 154 653 167 676 q 144 628 149 640 q 140 603 140 615 q 163 557 140 571 q 164 554 164 557 q 159 549 164 551 q 151 547 154 546 q 120 581 138 554 q 97 626 103 608 q 93 657 93 643 q 117 713 93 693 q 176 742 140 733 q 251 753 213 751 q 318 756 289 756 q 424 756 363 756 q 536 757 485 757 q 564 758 549 757 q 596 758 579 758 q 674 754 633 758 q 747 736 714 750 q 799 693 781 722 q 826 601 826 650 q 795 499 826 547 q 717 415 764 451 q 621 360 669 379 q 519 335 575 342 q 418 328 463 328 q 391 328 404 328 q 368 331 378 329 q 365 333 365 331 q 376 349 365 339 q 394 358 388 360 q 417 357 406 357 q 440 357 428 357 q 553 371 493 357 q 663 424 613 385 q 740 540 714 464 q 749 574 747 557 q 751 608 751 592 q 728 692 751 656 q 660 733 704 728 q 647 735 654 735 q 633 735 640 735 q 576 728 607 735 q 529 701 544 721 q 463 598 494 656 q 401 481 431 540 q 346 371 372 422 q 319 322 339 357 q 276 241 300 286 q 232 151 253 196 q 199 72 211 107 q 193 25 188 38 q 194 21 194 24 q 190 17 194 17 q 168 22 179 17 q 142 28 157 28 q 114 21 128 28 q 78 0 100 15 q 28 -25 56 -15 q 19 -26 25 -26 z "},"Q":{"ha":832,"x_min":10,"x_max":933,"o":"m 686 -374 q 624 -360 653 -374 q 574 -312 594 -346 q 524 -232 551 -276 q 471 -142 497 -187 q 424 -62 444 -97 q 396 -12 404 -28 q 322 -17 361 -17 q 211 -8 267 -17 q 110 25 156 1 q 38 92 65 49 q 10 203 10 135 q 33 334 10 260 q 101 484 56 408 q 216 625 147 560 q 376 730 285 690 q 581 769 467 769 q 824 716 747 769 q 900 550 900 663 q 867 368 900 457 q 773 205 833 279 q 632 77 713 131 q 456 0 551 24 q 487 -56 465 -21 q 535 -131 508 -90 q 588 -209 561 -171 q 636 -276 615 -247 q 683 -317 657 -306 q 736 -329 710 -329 q 814 -311 776 -329 q 880 -272 851 -293 q 918 -239 908 -250 q 925 -235 922 -235 q 931 -240 929 -235 q 929 -250 933 -244 q 870 -301 910 -272 q 782 -352 831 -331 q 686 -374 733 -374 m 311 4 q 473 37 396 4 q 613 126 550 69 q 723 254 676 182 q 795 406 769 326 q 821 563 821 485 q 767 699 821 649 q 583 749 713 749 q 437 712 510 749 q 301 614 364 675 q 188 479 238 553 q 111 331 139 406 q 83 190 83 256 q 135 53 83 103 q 311 4 188 4 z "},"R":{"ha":836,"x_min":-1,"x_max":903,"o":"m 656 -32 q 585 -10 621 -32 q 514 58 550 11 q 439 175 469 119 q 390 272 408 231 q 361 332 371 314 q 368 341 361 332 q 385 359 375 350 q 403 368 396 368 q 520 370 468 368 q 613 387 572 372 q 686 438 654 401 q 740 540 718 474 q 749 574 747 557 q 751 608 751 592 q 728 692 751 656 q 660 733 704 728 q 647 735 654 735 q 633 735 640 735 q 576 728 607 735 q 529 701 544 721 q 463 598 494 656 q 401 481 431 540 q 346 371 372 422 q 319 322 339 357 q 276 241 300 286 q 232 151 253 196 q 199 72 211 107 q 193 25 188 38 q 194 21 194 24 q 190 17 194 17 q 168 22 179 17 q 142 28 157 28 q 114 21 128 28 q 78 0 100 15 q 28 -25 56 -15 q 19 -26 25 -26 q 4 -22 10 -26 q 4 -14 -1 -17 q 57 9 35 -8 q 93 53 79 26 q 151 151 122 101 q 206 250 179 200 q 271 373 238 311 q 338 496 304 435 q 394 606 369 553 q 432 682 419 658 q 466 715 442 700 q 514 738 490 729 q 497 738 506 738 q 479 739 489 739 q 385 734 436 739 q 287 719 335 729 q 203 693 239 710 q 154 653 167 676 q 144 628 149 640 q 140 603 140 615 q 163 557 140 571 q 164 554 164 557 q 159 549 164 551 q 151 547 154 546 q 120 581 138 554 q 97 626 103 608 q 93 657 93 643 q 117 713 93 693 q 176 742 140 733 q 251 753 213 751 q 318 756 289 756 q 424 756 363 756 q 536 757 485 757 q 564 758 549 757 q 596 758 579 758 q 674 754 633 758 q 747 736 714 750 q 799 693 781 722 q 822 604 822 654 q 782 476 822 528 q 751 442 768 458 q 713 410 735 425 q 626 367 676 385 q 523 342 576 350 q 425 331 469 333 q 480 226 443 292 q 569 96 517 161 q 626 47 597 61 q 683 33 656 33 q 767 60 728 33 q 840 122 807 86 q 892 183 872 157 q 899 190 896 190 q 903 182 903 190 q 894 160 903 171 q 772 20 831 72 q 656 -32 714 -32 z "},"S":{"ha":626,"x_min":53,"x_max":736,"o":"m 307 -47 q 205 -33 258 -47 q 110 15 151 -18 q 56 104 69 49 q 53 119 54 111 q 53 136 53 128 q 72 219 53 179 q 119 281 92 260 l 121 281 q 128 274 124 281 q 128 265 133 268 q 108 234 114 251 q 101 197 101 217 q 110 144 101 171 q 133 97 119 117 q 230 20 168 49 q 351 -8 292 -8 q 478 40 433 -8 q 524 160 524 89 q 507 246 524 203 q 448 363 485 306 q 381 476 411 421 q 354 578 354 526 q 388 682 354 632 q 476 753 421 726 q 588 781 531 781 q 663 767 626 781 q 728 721 699 753 q 736 689 736 708 q 725 646 736 661 q 697 599 713 628 q 679 558 682 569 q 666 553 676 557 q 653 554 656 550 q 668 594 658 565 q 678 647 678 624 q 677 681 678 663 q 658 714 676 700 q 615 740 642 729 q 551 751 589 751 q 435 707 475 751 q 394 610 394 663 q 406 557 394 583 q 464 463 426 507 q 538 372 501 418 q 596 271 575 325 q 610 197 610 235 q 583 99 610 143 q 510 22 556 54 q 413 -29 465 -11 q 307 -47 360 -47 z "},"T":{"ha":600,"x_min":17,"x_max":1053,"o":"m 206 -54 q 124 -30 163 -54 q 65 44 85 -6 q 56 83 58 63 q 53 122 53 104 l 53 135 q 55 157 53 146 q 67 168 57 168 q 69 165 69 168 q 69 148 69 157 q 68 131 68 139 q 101 32 68 65 q 182 -1 133 -1 q 276 26 231 -1 q 361 97 322 54 q 435 204 400 140 q 500 340 469 268 q 558 481 531 411 q 608 604 585 550 q 660 658 622 636 q 733 690 699 681 q 715 692 724 692 q 697 694 706 693 l 501 714 q 443 718 479 717 q 367 719 407 719 q 256 713 313 719 q 153 692 199 707 q 86 646 107 676 q 75 607 75 629 q 88 565 75 585 q 119 535 100 546 q 122 531 122 532 q 116 524 122 526 q 103 524 110 521 q 74 547 90 531 q 44 583 57 564 q 25 614 31 601 q 17 656 17 638 q 40 710 17 689 q 99 744 63 732 q 178 760 136 756 q 260 765 221 765 q 289 765 275 765 q 315 764 303 765 q 408 758 360 761 q 507 751 457 756 l 728 733 q 795 728 750 732 q 888 725 840 725 q 982 731 939 725 q 1039 754 1025 738 q 1047 757 1042 760 q 1050 750 1053 754 q 1039 725 1046 733 q 1020 694 1032 711 q 985 672 1008 678 q 969 670 979 671 q 949 669 960 669 q 872 674 917 669 q 783 685 826 679 q 711 646 742 678 q 658 573 681 614 q 619 496 636 532 q 569 381 589 433 q 519 267 549 329 q 458 141 490 203 q 381 29 426 79 q 300 -31 346 -8 q 206 -54 254 -54 z "},"U":{"ha":849,"x_min":10,"x_max":983,"o":"m 203 -36 q 141 -21 158 -36 q 124 18 124 -6 q 128 49 124 33 q 139 82 133 65 q 177 169 157 126 q 219 254 197 213 q 272 357 242 297 q 333 483 303 417 q 383 611 363 549 q 403 721 403 674 l 281 721 q 223 718 260 721 q 148 706 186 715 q 85 674 110 696 q 63 614 60 651 q 71 584 64 603 q 81 561 78 565 l 65 550 q 44 585 57 565 q 22 625 32 606 q 11 654 13 644 q 10 661 11 657 q 10 669 10 665 q 15 701 10 685 q 35 729 21 717 q 92 753 56 747 q 168 758 129 758 q 240 756 206 758 q 297 753 275 753 q 329 753 297 753 q 410 753 361 753 q 515 754 460 754 q 617 754 571 754 l 599 733 q 547 726 574 733 q 500 694 519 718 q 435 596 471 657 q 361 461 399 535 q 292 314 324 388 q 238 176 260 240 q 211 67 217 111 q 223 31 210 42 q 258 19 236 19 q 315 35 288 19 q 426 113 371 63 q 532 222 482 164 q 617 331 582 281 q 724 503 672 410 q 814 678 776 596 q 831 716 824 694 q 853 738 839 738 q 867 736 858 738 q 885 735 875 735 q 964 769 928 735 q 971 771 965 771 q 980 769 976 771 q 981 764 983 767 q 929 714 950 739 q 883 650 908 689 q 817 547 854 606 q 743 425 781 489 q 675 299 706 361 q 628 185 644 236 q 614 132 619 158 q 608 83 608 106 q 623 29 608 50 q 672 8 638 8 q 685 9 679 8 q 699 11 692 10 q 759 41 725 15 q 824 97 793 67 q 876 151 854 125 q 922 207 897 176 q 925 196 925 201 q 919 176 924 186 q 907 160 914 167 q 878 124 897 147 q 835 76 858 101 q 785 33 818 60 q 713 -15 751 6 q 642 -36 675 -36 q 571 -9 590 -36 q 551 57 551 18 q 572 164 551 106 q 610 269 592 222 q 549 203 581 235 q 485 140 517 172 q 417 76 451 108 q 347 17 383 43 q 278 -21 314 -6 q 203 -36 242 -36 z "},"V":{"ha":747,"x_min":18,"x_max":1367,"o":"m 385 -68 q 367 -65 374 -68 q 361 -50 360 -61 q 365 -37 361 -46 q 371 -25 369 -29 q 383 15 378 -6 q 394 53 389 35 q 431 205 414 129 q 457 357 447 281 q 471 477 463 401 q 479 624 479 553 q 478 676 479 651 q 471 719 476 700 q 379 720 425 719 q 289 721 333 721 q 231 718 268 721 q 156 706 194 715 q 93 674 118 696 q 71 614 68 651 q 79 584 72 603 q 89 561 86 565 l 74 550 q 53 585 65 565 q 31 625 40 606 q 19 654 21 644 q 21 690 18 668 q 43 729 24 713 q 101 753 64 747 q 176 758 138 758 q 249 756 214 758 q 306 753 283 753 q 338 753 306 753 q 419 753 369 753 q 524 754 468 754 q 625 754 579 754 l 596 718 l 499 718 q 526 610 519 679 q 532 476 532 540 q 532 426 532 450 q 531 385 532 403 q 513 228 528 319 q 474 54 497 136 q 613 246 531 135 q 803 477 696 357 q 1042 706 911 597 q 1111 756 1068 728 q 1203 803 1154 783 q 1294 824 1251 824 q 1351 810 1335 824 q 1367 774 1367 796 q 1351 715 1367 747 q 1326 663 1335 683 q 1314 657 1325 658 q 1304 661 1303 656 q 1310 688 1307 672 q 1314 721 1314 704 q 1306 761 1314 743 q 1274 782 1297 779 q 1265 783 1269 783 q 1257 783 1261 783 q 1170 756 1217 783 q 1063 681 1124 729 q 841 476 946 588 q 640 242 736 364 q 543 115 590 179 q 456 -18 496 51 q 451 -31 453 -24 q 446 -43 449 -39 q 429 -52 443 -46 q 402 -63 415 -58 q 385 -68 389 -68 z "},"W":{"ha":1239,"x_min":18,"x_max":1756,"o":"m 385 -68 q 367 -65 374 -68 q 361 -50 360 -61 q 365 -37 361 -46 q 371 -25 369 -29 q 383 15 378 -6 q 394 53 389 35 q 431 205 414 129 q 457 357 447 281 q 461 402 460 376 q 463 457 463 428 q 449 599 463 524 q 394 721 435 674 l 289 721 q 231 718 268 721 q 156 706 194 715 q 93 674 118 696 q 71 614 68 651 q 79 584 72 603 q 89 561 86 565 l 74 550 q 53 585 65 565 q 31 625 40 606 q 19 654 21 644 q 21 690 18 668 q 43 729 24 713 q 101 753 64 747 q 176 758 138 758 q 249 756 214 758 q 306 753 283 753 q 338 753 306 753 q 419 753 369 753 q 524 754 468 754 q 625 754 579 754 l 596 718 q 513 719 554 718 q 431 719 472 719 q 497 643 475 690 q 525 544 518 596 q 532 449 532 493 q 531 414 532 431 q 531 385 531 397 q 513 228 528 319 q 474 54 497 136 q 577 206 519 118 q 708 392 635 294 q 867 582 781 490 q 940 656 901 618 q 1024 718 979 693 q 1119 743 1068 743 q 1188 729 1164 743 l 1179 714 q 1169 716 1174 715 q 1157 717 1164 717 q 1074 693 1118 717 q 1007 646 1031 669 q 940 544 964 603 q 906 419 917 485 q 890 285 896 353 q 880 158 885 218 q 863 54 875 99 q 1003 246 919 135 q 1196 477 1088 357 q 1433 706 1304 597 q 1502 756 1460 728 q 1592 803 1544 783 q 1683 824 1640 824 q 1740 810 1724 824 q 1756 774 1756 796 q 1740 715 1756 747 q 1715 663 1724 683 q 1703 657 1714 658 q 1693 661 1692 656 q 1699 688 1696 672 q 1703 721 1703 704 q 1694 761 1703 743 q 1663 782 1686 779 q 1654 783 1658 783 q 1646 783 1650 783 q 1561 756 1607 783 q 1456 681 1515 729 q 1232 476 1339 588 q 1029 242 1125 364 q 932 115 979 179 q 844 -18 885 51 q 840 -31 842 -24 q 835 -43 838 -39 q 818 -52 832 -46 q 791 -63 804 -58 q 774 -68 778 -68 q 756 -65 763 -68 q 750 -50 749 -61 q 754 -37 750 -46 q 760 -25 758 -29 q 772 15 767 -6 q 783 53 778 35 q 808 182 800 114 q 823 319 815 250 q 847 451 831 388 q 899 567 864 515 q 819 485 871 550 q 694 329 768 421 q 639 253 669 299 q 577 159 608 208 q 517 63 546 110 q 469 -18 489 17 q 465 -31 467 -24 q 460 -43 463 -39 q 440 -52 457 -46 q 406 -63 422 -58 q 385 -68 389 -68 z "},"X":{"ha":753,"x_min":-154,"x_max":1061,"o":"m -82 -82 q -134 -64 -114 -82 q -154 -7 -154 -46 q -147 35 -154 11 q -129 83 -139 60 q -114 106 -119 106 q -111 94 -108 106 q -128 29 -128 56 q -74 -21 -128 -21 q -60 -20 -67 -21 q -46 -18 -53 -19 q 94 49 19 -4 q 249 181 169 103 q 407 342 329 258 q 398 390 401 367 q 392 433 394 414 q 383 516 386 474 q 379 597 379 558 q 384 669 379 638 q 401 719 389 701 q 345 721 374 721 q 289 721 317 721 q 231 718 268 721 q 156 706 194 715 q 93 674 118 696 q 71 614 68 651 q 79 584 72 603 q 89 561 86 565 l 74 550 q 53 585 65 565 q 31 625 40 606 q 19 654 21 644 q 21 690 18 668 q 43 729 24 713 q 101 753 64 747 q 176 758 138 758 q 249 756 214 758 q 306 753 283 753 q 338 753 306 753 q 419 753 369 753 q 524 754 468 754 q 625 754 579 754 l 596 718 q 508 719 553 718 q 419 719 464 719 q 418 701 418 710 q 418 681 418 692 q 425 578 418 631 q 442 478 432 525 q 458 399 451 431 q 544 485 494 436 q 650 586 594 535 q 761 682 706 638 q 865 753 817 726 q 922 777 893 768 q 979 786 950 786 q 990 786 985 786 q 1001 785 996 786 q 1049 765 1036 779 q 1061 731 1061 750 q 1047 674 1061 704 q 1022 624 1032 644 q 1011 618 1021 619 q 1003 622 1001 617 q 1008 649 1006 633 q 1011 679 1011 664 q 999 725 1011 706 q 953 744 988 744 q 876 722 917 744 q 777 658 833 701 q 663 562 721 614 q 553 460 604 510 q 468 378 501 411 q 467 374 467 376 q 464 369 467 372 q 481 313 468 353 q 512 226 494 274 q 549 134 529 178 q 586 65 568 90 q 635 38 606 38 q 697 64 665 38 q 760 126 729 90 q 813 190 790 161 q 822 199 819 199 q 825 192 825 199 q 822 176 825 186 q 811 157 818 165 q 741 80 779 118 q 663 17 703 42 q 588 -7 624 -7 q 513 35 542 -7 q 456 158 481 79 q 414 313 431 236 q 255 142 333 226 q 99 -2 176 58 q -56 -79 21 -62 q -69 -81 -62 -81 q -82 -82 -75 -82 z "},"Y":{"ha":628,"x_min":11,"x_max":1004,"o":"m 163 -54 q 81 -30 119 -54 q 22 44 42 -6 q 13 83 15 63 q 11 124 11 104 q 18 143 11 143 q 25 131 25 143 q 58 33 25 67 q 140 -1 90 -1 q 255 32 201 -1 q 353 115 308 65 q 432 214 397 164 q 404 204 415 204 q 390 215 389 204 q 392 223 390 218 q 396 231 394 228 q 403 254 400 242 q 411 278 407 267 q 433 389 422 322 q 444 524 444 456 q 433 635 444 582 q 393 721 422 688 l 360 721 q 302 718 339 721 q 228 706 265 715 q 165 674 190 696 q 143 614 140 651 q 151 584 144 603 q 160 561 158 565 l 146 550 q 125 585 138 565 q 102 625 113 606 q 90 654 92 644 q 92 690 89 668 q 114 729 96 713 q 172 753 135 747 q 247 758 208 758 q 319 756 285 758 q 376 753 354 753 q 441 753 376 753 q 599 754 506 754 l 569 718 q 506 719 531 718 q 463 720 482 719 q 418 721 444 721 q 485 626 467 688 q 504 496 504 565 q 494 378 504 436 q 474 281 485 321 q 599 467 539 371 q 732 647 658 563 q 788 708 756 674 q 860 768 821 742 q 940 794 900 794 q 974 786 960 794 q 997 757 988 778 q 1004 726 1004 740 q 996 686 1004 704 q 983 658 988 668 q 976 653 982 653 q 972 658 971 653 q 975 672 975 665 q 975 685 975 679 q 963 731 975 710 q 922 751 950 751 q 836 713 883 751 q 749 628 789 674 q 624 469 676 544 q 526 317 572 394 q 428 149 481 240 q 360 51 399 97 q 274 -25 322 4 q 163 -54 226 -54 z "},"Z":{"ha":629,"x_min":-39,"x_max":1044,"o":"m 889 -353 q 779 -321 833 -353 q 675 -240 725 -289 q 582 -139 625 -190 q 506 -50 539 -87 q 425 42 463 0 q 347 111 388 85 q 256 138 307 138 q 170 120 213 138 q 96 72 128 103 q 51 -1 64 40 q 43 -33 47 -18 q 29 -61 39 -49 q 1 -75 19 -75 q -26 -64 -12 -75 q -39 -35 -39 -53 q -29 -3 -39 -18 q 78 133 8 57 q 238 290 149 208 q 419 452 326 372 q 597 601 513 532 q 740 718 681 669 q 609 720 675 719 q 478 721 543 721 q 420 718 457 721 q 346 706 383 715 q 283 674 308 696 q 261 614 258 651 q 269 584 263 603 q 278 561 276 565 l 264 550 q 243 585 256 565 q 221 625 231 606 q 210 654 211 644 q 209 661 210 657 q 208 669 208 665 q 214 701 208 685 q 233 729 219 717 q 298 754 256 749 q 385 760 340 760 q 451 758 419 760 q 501 757 482 757 l 825 757 q 826 753 826 757 q 824 740 826 749 q 818 729 821 732 q 473 452 643 603 q 147 133 303 301 q 226 165 189 156 q 296 175 263 175 q 405 147 354 175 q 505 67 456 118 q 608 -51 554 15 q 722 -174 664 -117 q 832 -267 779 -232 q 922 -301 885 -301 q 989 -279 968 -301 q 1010 -224 1010 -257 q 982 -137 1010 -182 q 962 -110 972 -122 q 944 -90 951 -97 q 952 -81 943 -87 q 963 -76 961 -75 q 992 -97 978 -86 q 1017 -124 1006 -108 q 1038 -162 1032 -142 q 1044 -203 1044 -183 q 1023 -276 1044 -242 q 966 -331 1001 -310 q 889 -353 931 -351 z "},"[":{"ha":503,"x_min":13,"x_max":779,"o":"m 13 -144 q 149 154 78 -4 q 292 471 219 313 q 433 768 365 629 l 513 819 q 559 825 536 824 q 604 826 582 826 q 685 824 643 826 q 779 822 728 822 l 714 772 q 638 784 672 782 q 576 783 604 786 q 540 771 560 782 q 510 742 519 760 q 440 611 481 689 q 356 444 400 533 q 267 267 311 356 q 186 102 224 179 q 123 -28 149 25 q 88 -100 97 -82 q 159 -102 117 -101 q 249 -103 201 -103 q 340 -101 294 -103 q 421 -96 386 -100 l 346 -139 q 254 -144 307 -143 q 146 -144 201 -144 l 13 -144 z "},"\\":{"ha":692,"x_min":0,"x_max":708,"o":"m 686 -46 q 661 -39 668 -46 q 581 65 629 1 q 474 209 533 129 q 351 375 415 289 q 224 545 288 461 q 104 702 161 629 q 1 828 47 775 q 20 836 0 831 q 63 847 40 842 q 88 847 85 851 q 178 731 126 801 q 288 577 229 661 q 408 405 347 493 q 526 233 469 317 q 630 81 583 150 q 707 -35 676 11 q 708 -36 707 -36 q 708 -37 708 -36 q 701 -44 708 -42 q 686 -46 694 -46 z "},"]":{"ha":551,"x_min":-76,"x_max":690,"o":"m 99 -149 q 17 -147 60 -149 q -76 -144 -25 -144 l -10 -94 q 65 -106 32 -104 q 128 -106 99 -107 q 164 -93 143 -104 q 194 -64 185 -82 q 265 67 225 -10 q 349 233 304 144 q 437 410 393 322 q 517 576 481 499 q 581 706 554 653 q 615 778 607 760 q 544 778 588 778 q 456 779 501 779 q 363 778 408 779 q 283 774 318 776 l 357 817 q 449 822 396 821 q 557 822 501 822 l 690 822 q 554 523 625 682 q 411 206 483 364 q 269 -90 339 49 l 190 -142 q 145 -147 168 -146 q 99 -149 122 -149 z "},"^":{"ha":435,"x_min":117,"x_max":436,"o":"m 429 346 q 394 358 417 346 q 345 385 371 369 q 299 416 319 400 q 269 440 278 432 q 241 422 263 436 q 194 390 219 407 q 149 362 169 374 q 125 350 129 350 q 119 354 122 350 q 118 361 117 358 q 142 385 118 367 q 197 426 165 404 q 256 464 229 447 q 290 482 282 481 l 297 479 q 361 419 326 447 q 431 364 396 392 l 436 354 l 429 346 z "},"_":{"ha":1175,"x_min":0,"x_max":0,"o":""},"`":{"ha":310,"x_min":68,"x_max":257,"o":"m 256 465 q 220 481 247 467 q 160 515 193 496 q 103 551 128 533 q 74 574 78 568 q 70 586 72 576 q 68 604 68 596 q 72 617 68 617 q 94 605 79 617 q 126 581 110 593 q 147 563 142 568 q 199 518 171 542 q 254 475 228 494 q 256 470 254 475 q 256 465 257 465 z "},"a":{"ha":408,"x_min":4,"x_max":490,"o":"m 236 -4 q 213 1 222 -4 q 203 22 203 7 q 213 67 203 42 q 235 116 222 92 q 257 156 247 140 q 156 58 208 104 q 97 17 129 36 q 29 -3 65 -3 q 10 6 15 -3 q 4 28 4 15 q 6 38 4 35 q 40 150 13 92 q 108 260 68 208 q 190 343 149 311 q 294 379 238 379 l 454 379 q 461 374 461 379 q 449 363 461 363 q 421 345 435 363 q 400 317 407 328 q 369 265 390 301 q 327 187 349 229 q 290 108 306 144 q 275 56 275 72 q 294 36 275 36 q 342 56 315 36 q 395 103 368 75 q 445 160 422 132 q 482 206 468 189 q 481 183 490 197 q 465 160 472 168 q 401 85 438 124 q 323 22 365 47 q 236 -4 281 -4 m 86 44 q 133 69 103 44 q 197 130 163 93 q 263 208 232 167 q 313 283 293 249 q 333 335 333 317 q 324 356 333 350 q 301 361 315 361 q 253 345 279 361 q 213 314 228 329 q 173 266 196 299 q 128 194 150 233 q 90 119 106 156 q 75 61 75 83 q 86 44 75 44 z "},"b":{"ha":374,"x_min":38,"x_max":710,"o":"m 106 -12 q 63 -6 88 -12 q 38 25 38 0 q 42 47 38 35 q 50 69 46 60 q 79 143 64 106 q 111 219 94 181 q 77 181 93 199 q 54 156 61 164 q 47 150 50 150 q 44 157 44 150 q 51 178 44 168 q 96 231 71 203 q 144 289 121 258 q 275 526 203 411 q 438 729 347 640 q 500 783 465 756 q 574 831 535 811 q 653 850 614 850 q 691 839 674 850 q 710 804 708 828 l 710 764 q 701 758 710 758 q 697 761 697 758 q 678 791 697 783 q 639 799 658 799 q 501 759 563 799 q 393 656 440 719 q 308 517 346 593 q 241 369 271 442 q 185 239 211 296 q 185 236 185 239 q 186 233 185 233 q 209 255 188 233 q 263 306 231 276 q 332 356 296 335 q 399 378 368 378 q 418 367 414 378 q 422 344 422 357 l 422 332 q 387 221 415 281 q 315 108 358 161 q 217 21 271 54 q 106 -12 164 -12 m 128 11 q 176 28 150 11 q 215 60 201 46 q 256 108 232 75 q 301 179 279 140 q 339 254 324 218 q 354 313 354 290 q 351 325 354 319 q 342 331 349 331 q 309 315 329 331 q 266 278 289 300 q 224 237 243 257 q 197 207 206 217 q 158 158 182 190 q 116 94 135 126 q 97 39 97 61 q 128 11 97 11 z "},"c":{"ha":331,"x_min":13,"x_max":406,"o":"m 106 -11 q 33 8 54 -11 q 13 58 13 28 q 39 148 13 99 q 89 231 65 197 q 142 291 113 263 q 207 340 172 319 q 267 370 229 354 q 332 386 306 386 q 376 372 364 386 q 389 336 389 357 q 383 302 389 319 q 371 269 378 285 q 358 258 367 261 q 350 260 350 254 q 351 272 350 267 q 353 285 353 278 q 341 337 353 311 q 306 363 329 363 q 251 345 281 363 q 211 315 222 328 q 141 222 175 278 q 92 117 107 167 q 82 67 82 88 q 94 33 82 43 q 125 24 107 24 q 155 28 139 24 q 189 38 171 32 q 273 81 231 51 q 350 145 315 111 q 403 204 385 179 q 406 196 406 201 q 400 180 406 189 q 392 165 394 171 q 315 85 363 126 q 213 17 268 44 q 106 -11 158 -11 z "},"d":{"ha":408,"x_min":4,"x_max":829,"o":"m 236 -4 q 213 1 222 -4 q 203 22 203 7 q 213 67 203 42 q 235 116 222 92 q 257 156 247 140 q 156 58 208 104 q 97 17 129 36 q 29 -3 65 -3 q 10 6 15 -3 q 4 28 4 15 q 6 38 4 35 q 40 150 13 92 q 108 260 68 208 q 190 343 149 311 q 251 373 222 367 q 315 379 281 379 l 361 379 q 408 463 383 417 q 456 556 432 510 q 501 636 481 601 q 627 792 558 733 q 781 850 696 850 q 814 840 799 850 q 828 808 829 829 l 825 758 q 822 755 825 757 q 818 753 819 753 q 814 756 817 753 q 789 794 810 781 q 738 807 768 807 q 716 806 728 807 q 693 800 704 804 q 619 744 654 786 q 544 632 585 701 q 508 563 531 606 q 462 472 486 521 q 416 378 438 424 q 379 300 394 332 q 356 249 372 283 q 320 176 339 215 q 288 103 301 136 q 275 56 275 69 q 292 36 275 36 q 336 56 308 36 q 394 106 364 76 q 448 164 424 136 q 482 206 472 192 q 486 196 486 201 q 478 176 486 186 q 465 160 471 167 q 403 88 440 126 q 324 23 367 50 q 236 -4 281 -4 m 86 44 q 133 69 103 44 q 197 130 163 93 q 263 208 232 167 q 313 283 293 249 q 333 335 333 317 q 324 356 333 350 q 301 361 315 361 q 253 345 279 361 q 213 314 228 329 q 173 266 196 299 q 128 194 150 233 q 90 119 106 156 q 75 61 75 83 q 86 44 75 44 z "},"e":{"ha":346,"x_min":25,"x_max":419,"o":"m 126 -11 q 47 11 69 -11 q 25 65 25 33 q 47 151 25 106 q 88 229 68 197 q 147 299 110 263 q 229 360 185 335 q 315 385 274 385 q 365 367 351 385 q 379 326 379 350 q 353 256 379 283 q 290 210 328 228 q 218 182 253 193 q 169 171 197 176 q 117 165 142 165 q 101 117 107 140 q 96 74 96 93 q 108 35 96 50 q 147 19 119 19 q 174 22 158 19 q 207 31 189 25 q 289 75 249 44 q 363 141 329 106 q 415 200 397 176 q 419 190 419 196 q 410 168 419 183 q 338 88 382 129 q 239 17 293 46 q 126 -11 185 -11 m 128 193 q 169 194 146 192 q 214 203 192 196 q 297 256 271 219 q 322 322 322 293 q 315 350 322 339 q 293 361 308 361 q 221 331 253 361 q 165 263 189 301 q 128 193 142 224 z "},"f":{"ha":253,"x_min":-418,"x_max":667,"o":"m -275 -314 q -366 -297 -329 -314 q -415 -244 -403 -279 q -417 -236 -417 -240 q -418 -226 -418 -232 q -408 -180 -418 -206 q -387 -125 -399 -154 q -378 -117 -383 -117 q -372 -131 -368 -117 q -382 -175 -382 -151 q -340 -253 -382 -224 q -243 -283 -297 -283 q -162 -264 -201 -283 q -56 -172 -97 -231 q 18 -54 -14 -114 q 102 141 67 39 q 178 343 138 243 l 146 343 q 131 342 139 343 q 115 339 122 340 l 113 340 q 140 367 115 356 q 178 379 164 379 l 194 379 q 244 489 215 429 q 306 609 272 549 q 378 719 339 669 q 461 799 418 769 q 618 849 532 849 q 651 838 635 849 q 665 807 667 828 l 661 757 q 657 753 661 754 q 651 754 653 751 q 622 795 646 782 q 565 808 597 808 q 472 775 514 808 q 381 651 429 742 q 341 569 363 617 q 299 472 319 522 q 258 379 278 422 l 358 379 q 378 380 368 379 q 399 382 389 381 q 391 372 399 376 q 378 364 383 367 q 313 344 343 346 q 243 343 282 342 q 185 198 213 267 q 126 64 158 129 q 61 -60 100 6 q -28 -183 22 -125 q -140 -278 -78 -242 q -275 -314 -201 -314 z "},"g":{"ha":368,"x_min":-392,"x_max":464,"o":"m -201 -486 q -303 -462 -254 -486 q -376 -387 -353 -437 q -389 -349 -386 -369 q -392 -310 -392 -329 l -392 -296 q -389 -275 -392 -285 q -374 -265 -386 -265 q -371 -268 -371 -265 q -372 -285 -371 -276 q -374 -303 -374 -293 q -333 -400 -374 -367 q -231 -433 -292 -433 q -179 -428 -206 -433 q -131 -412 -153 -422 q 24 -304 -42 -375 q 140 -144 90 -233 q 227 38 189 -56 q 299 215 265 132 q 235 131 269 168 q 157 58 200 94 q 99 17 131 36 q 32 -3 68 -3 q 13 6 18 -3 q 7 28 7 15 l 7 38 q 42 150 14 92 q 111 260 71 208 q 193 343 151 311 q 297 379 240 379 l 457 379 q 464 374 464 379 q 451 363 464 363 q 422 350 436 363 q 401 326 408 338 q 365 258 388 304 q 317 153 343 213 q 264 34 290 94 q 215 -79 238 -26 q 140 -234 182 -158 q 40 -370 97 -310 q -97 -465 -18 -431 q -201 -486 -144 -486 m 89 44 q 135 69 106 44 q 199 130 164 93 q 264 208 233 167 q 315 283 294 249 q 335 335 335 317 q 326 356 335 350 q 303 361 317 361 q 256 345 281 361 q 215 314 231 329 q 176 266 199 299 q 130 194 153 233 q 92 119 107 156 q 76 61 76 83 q 89 44 76 44 z "},"h":{"ha":408,"x_min":-12,"x_max":732,"o":"m 253 -8 q 216 0 232 -8 q 200 31 200 8 q 206 58 200 43 q 240 136 218 90 q 283 226 261 182 q 318 297 306 269 q 326 321 326 314 q 313 326 326 333 q 282 307 299 319 q 257 288 265 294 q 181 209 221 254 q 109 115 142 164 q 58 17 76 65 q 40 3 57 8 q 10 -3 24 -3 q -7 11 -12 -3 q 59 171 25 83 q 136 350 93 258 q 208 493 168 419 q 296 634 247 567 q 403 753 344 701 q 516 826 454 797 q 650 854 578 854 q 706 841 682 854 q 732 794 729 828 l 732 782 q 728 743 732 763 q 717 738 726 738 q 714 739 713 738 q 695 790 719 775 q 633 806 671 806 q 508 781 565 806 q 403 714 451 756 q 272 547 328 649 q 176 340 217 446 q 138 238 157 289 q 103 142 119 186 q 223 285 165 225 q 324 369 281 344 q 386 389 358 389 q 413 367 413 389 q 393 317 413 347 q 363 265 383 301 q 322 187 343 229 q 285 108 300 144 q 269 56 269 72 q 289 33 269 33 q 315 40 300 33 q 336 53 329 47 q 410 121 374 81 q 471 192 446 161 q 472 188 472 193 q 470 172 472 182 q 461 154 468 161 q 430 115 446 133 q 399 78 414 96 q 335 19 372 47 q 253 -8 299 -8 z "},"i":{"ha":267,"x_min":44,"x_max":386,"o":"m 336 531 q 308 543 317 531 q 303 561 303 550 q 324 597 303 583 q 351 606 339 606 q 381 593 372 606 q 386 575 386 586 q 364 539 386 553 q 336 531 351 531 m 94 -4 q 72 1 81 -4 q 63 22 63 7 q 73 68 63 42 q 97 121 83 94 q 117 164 110 147 q 141 215 126 183 q 169 274 156 246 q 188 314 182 303 q 141 262 168 293 q 90 201 114 231 q 54 156 67 172 q 47 150 50 150 q 44 157 44 150 q 51 178 44 168 q 110 253 78 211 q 169 330 143 294 q 203 376 196 365 q 248 385 218 379 q 289 400 278 390 q 297 404 293 404 q 301 399 300 404 q 297 389 301 394 q 268 342 289 379 q 224 259 247 304 q 182 178 201 214 q 149 106 163 140 q 135 56 135 71 q 154 36 135 36 q 201 58 172 36 q 258 112 229 81 q 310 169 288 143 q 327 190 317 178 q 340 204 338 201 q 343 194 343 201 q 336 176 342 185 q 325 160 331 167 q 261 85 296 124 q 185 22 226 47 q 94 -4 143 -4 z "},"j":{"ha":188,"x_min":-582,"x_max":321,"o":"m 271 531 q 243 543 251 531 q 238 561 238 550 q 260 597 238 583 q 288 606 272 606 q 315 593 307 606 q 321 575 321 586 q 299 539 321 553 q 271 531 286 531 m -393 -486 q -495 -462 -446 -486 q -568 -387 -544 -437 q -579 -349 -576 -369 q -582 -310 -582 -329 l -582 -294 q -579 -274 -582 -283 q -565 -265 -576 -265 q -561 -268 -561 -265 q -563 -285 -561 -276 q -565 -303 -565 -293 q -524 -400 -565 -367 q -422 -433 -483 -433 q -371 -428 -397 -433 q -321 -412 -344 -422 q -169 -306 -233 -375 q -56 -151 -104 -237 q 32 24 -7 -65 q 88 169 65 101 q 123 282 110 238 q 140 331 136 326 q 199 367 163 353 q 256 382 235 382 q 272 374 272 382 q 260 363 272 363 q 232 355 244 363 q 213 336 219 347 q 177 271 200 318 q 127 162 154 224 q 74 37 100 100 q 25 -79 47 -26 q -51 -234 -8 -158 q -151 -370 -93 -310 q -289 -465 -210 -431 q -393 -486 -336 -486 z "},"k":{"ha":450,"x_min":7,"x_max":671,"o":"m 296 -7 q 243 17 261 -7 q 221 67 232 33 q 201 136 210 100 q 188 194 193 172 q 119 94 149 144 q 79 17 89 44 q 60 3 76 8 q 29 -3 44 -3 q 13 11 7 -3 q 94 196 56 107 q 177 375 133 285 q 276 563 221 465 q 370 699 315 633 q 488 808 425 765 q 614 850 550 850 q 653 839 635 850 q 671 804 671 828 l 671 764 q 663 758 671 758 q 658 761 658 758 q 639 791 658 783 q 601 799 619 799 q 503 779 553 799 q 410 713 447 757 q 340 618 372 668 q 258 469 299 554 q 184 297 218 383 q 124 142 150 211 q 154 181 139 161 q 183 217 169 200 q 183 222 183 219 q 182 228 182 225 q 186 244 182 238 q 197 261 190 251 q 215 283 207 275 q 233 303 224 290 l 238 279 q 344 369 299 342 q 407 389 376 389 q 438 365 438 389 q 418 317 438 346 q 410 303 411 307 q 404 294 408 299 q 399 294 403 293 q 394 299 394 296 q 383 320 394 315 q 358 325 372 325 q 302 306 332 325 q 242 256 272 288 q 258 180 249 221 q 278 104 267 139 q 299 53 289 69 q 318 38 306 42 q 339 35 331 35 q 384 55 358 35 q 437 103 410 75 q 487 160 464 132 q 522 204 510 188 q 525 190 528 197 q 517 173 524 182 q 506 157 511 164 q 446 87 478 122 q 378 24 414 51 q 340 2 363 11 q 296 -7 318 -7 z "},"l":{"ha":297,"x_min":44,"x_max":581,"o":"m 139 -3 q 82 17 97 -3 q 67 67 67 38 q 84 150 67 106 q 113 219 101 194 q 78 182 94 200 q 54 156 61 164 q 47 150 50 150 q 44 157 44 150 q 51 178 44 168 q 96 231 71 203 q 144 289 121 258 q 206 409 172 340 q 277 551 240 478 q 349 685 314 624 q 413 785 385 747 q 458 810 436 794 q 501 838 479 825 q 546 851 522 851 q 569 843 561 851 q 579 824 576 835 q 581 808 581 819 q 559 731 581 776 q 509 641 538 685 q 460 569 481 597 q 346 428 404 492 q 241 323 288 365 q 174 261 194 281 q 151 213 164 243 q 128 151 138 183 q 118 90 118 118 q 129 51 118 67 q 167 35 140 35 q 175 35 171 35 q 185 36 179 35 q 236 63 208 40 q 292 114 264 85 q 342 169 319 143 q 360 191 351 181 q 371 206 368 201 q 370 181 381 196 q 353 157 360 167 q 325 123 343 144 q 283 76 307 101 q 218 24 257 50 q 139 -3 179 -3 m 197 317 q 306 420 240 353 q 436 583 372 488 q 459 621 443 594 q 492 681 475 647 q 522 748 510 715 q 535 804 535 781 q 522 826 535 826 q 482 800 507 826 q 416 710 453 769 q 339 579 379 651 q 262 438 299 507 q 197 317 225 368 z "},"m":{"ha":653,"x_min":44,"x_max":728,"o":"m 56 -21 q 56 -8 50 -21 q 69 19 63 4 q 82 53 75 35 q 113 128 96 86 q 144 209 129 169 q 172 277 160 249 q 188 314 183 306 q 141 262 168 293 q 90 201 114 231 q 54 156 67 172 q 47 150 50 150 q 44 157 44 150 q 51 178 44 168 q 110 253 78 211 q 169 330 143 294 q 203 376 196 365 q 248 385 218 379 q 289 400 278 390 q 297 404 293 404 q 301 399 300 404 q 297 389 301 394 q 269 344 289 379 q 226 265 249 308 q 183 188 203 222 q 227 238 206 214 q 257 271 249 261 q 303 313 274 288 q 364 358 332 338 q 419 382 396 379 q 429 383 425 383 q 438 383 433 383 q 464 364 464 383 q 460 344 464 356 q 449 322 456 333 q 421 270 440 306 q 386 206 401 235 l 451 271 q 497 313 468 288 q 558 358 526 338 q 614 382 590 379 q 624 383 619 383 q 632 383 629 383 q 663 361 663 383 q 644 317 663 344 q 614 265 635 301 q 572 187 593 229 q 535 108 550 144 q 519 56 519 72 q 539 36 519 36 q 585 58 557 36 q 644 110 614 79 q 696 168 674 140 q 715 191 706 179 q 725 204 724 203 q 728 194 728 201 q 722 176 728 185 q 710 160 715 167 q 649 88 683 125 q 575 24 615 50 q 489 -6 535 -1 q 461 0 475 -7 q 447 22 447 7 q 458 68 447 42 q 481 121 468 94 q 501 164 494 147 q 547 256 526 213 q 576 317 568 299 q 581 331 581 325 q 565 332 581 340 q 528 307 550 324 q 489 274 507 290 q 465 253 471 258 q 409 189 442 229 q 349 105 376 149 q 310 24 321 61 q 283 11 296 11 q 267 18 274 11 q 261 35 261 25 q 278 101 261 63 q 307 164 296 139 q 353 256 332 213 q 382 317 374 299 q 386 331 386 325 q 371 332 386 340 q 334 307 356 324 q 294 274 313 290 q 271 253 276 258 q 209 182 238 218 q 161 104 181 146 q 138 49 150 79 q 117 -3 125 18 q 81 -12 99 -4 q 56 -21 63 -21 z "},"n":{"ha":458,"x_min":44,"x_max":533,"o":"m 56 -21 q 56 -8 50 -21 q 69 19 63 4 q 82 53 75 35 q 113 128 96 86 q 144 209 129 169 q 172 277 160 249 q 188 314 183 306 q 141 262 168 293 q 90 201 114 231 q 54 156 67 172 q 47 150 50 150 q 44 157 44 150 q 51 178 44 168 q 110 253 78 211 q 169 330 143 294 q 203 376 196 365 q 248 385 218 379 q 289 400 278 390 q 297 404 293 404 q 301 399 300 404 q 297 389 301 394 q 269 344 289 379 q 226 265 249 308 q 183 188 203 222 q 219 231 200 210 q 257 271 239 251 q 303 313 274 288 q 364 358 332 338 q 419 382 396 379 q 430 383 425 383 q 438 383 435 383 q 468 361 468 383 q 450 317 468 344 q 420 266 440 301 q 380 190 400 231 q 345 113 360 149 q 331 61 331 78 q 350 42 331 42 q 402 65 374 42 q 464 126 431 89 q 531 204 497 163 q 533 194 533 201 q 527 176 533 185 q 515 160 521 167 q 478 115 501 142 q 432 62 456 88 q 389 21 408 36 q 353 0 375 11 q 308 -11 331 -11 q 274 2 283 -11 q 264 35 264 15 q 272 82 264 57 q 291 130 281 107 q 307 164 301 153 q 353 256 332 213 q 382 317 374 299 q 386 331 386 325 q 371 332 386 340 q 334 307 356 324 q 294 274 313 290 q 271 253 276 258 q 181 133 219 199 q 117 -3 143 67 q 81 -12 99 -4 q 56 -21 63 -21 z "},"o":{"ha":368,"x_min":13,"x_max":436,"o":"m 69 -3 q 30 6 47 -3 q 13 46 13 15 q 38 144 13 94 q 89 231 63 193 q 142 291 113 263 q 207 340 172 319 q 267 370 229 354 q 332 386 306 386 q 371 374 354 386 q 388 332 388 363 q 363 235 388 285 q 313 149 339 186 q 288 117 300 132 q 260 88 275 103 q 354 117 311 88 q 429 190 397 147 l 432 193 q 436 185 436 193 q 431 167 436 175 q 361 98 403 128 q 267 68 319 68 q 256 68 261 68 q 244 69 250 68 q 69 -3 167 -3 m 106 21 q 148 35 125 21 q 183 61 171 49 q 226 112 207 85 q 263 167 246 139 q 301 246 282 200 q 321 332 321 292 q 299 364 321 364 q 255 349 281 364 q 217 321 229 333 q 138 215 169 272 q 99 140 119 183 q 78 61 78 97 q 78 51 78 56 q 81 40 79 46 q 106 21 86 21 z "},"p":{"ha":354,"x_min":-582,"x_max":417,"o":"m -393 -486 q -495 -462 -446 -486 q -568 -387 -544 -437 q -579 -349 -576 -369 q -582 -310 -582 -329 l -582 -294 q -579 -274 -582 -283 q -565 -265 -576 -265 q -561 -268 -561 -265 q -563 -285 -561 -276 q -565 -303 -565 -293 q -524 -400 -565 -367 q -422 -433 -483 -433 q -371 -428 -397 -433 q -321 -412 -344 -422 q -168 -307 -233 -375 q -54 -153 -103 -239 q 32 24 -6 -67 q 109 219 72 122 q 192 408 146 315 q 283 538 235 494 q 381 581 332 581 q 405 574 393 581 q 415 551 417 567 l 413 513 q 407 508 413 508 q 406 508 407 508 q 406 510 406 508 q 394 533 406 526 q 371 539 382 539 q 287 506 324 539 q 222 422 250 474 q 175 315 194 371 q 143 211 156 258 q 178 246 153 219 q 239 303 204 272 q 310 356 274 333 q 376 378 346 378 q 398 362 394 378 q 399 332 401 346 q 364 221 392 281 q 292 108 336 161 q 195 21 249 54 q 83 -12 142 -12 q 65 -12 76 -12 q 50 -8 53 -11 q -25 -187 21 -96 q -135 -353 -71 -279 q -289 -465 -200 -428 q -393 -486 -336 -486 m 104 11 q 152 28 125 11 q 193 60 179 46 q 233 108 210 75 q 278 179 256 140 q 317 254 301 218 q 332 313 332 290 q 329 325 332 319 q 319 331 326 331 q 286 315 307 331 q 242 278 265 300 q 200 237 219 257 q 172 207 181 217 q 135 158 158 190 q 93 94 111 126 q 75 39 75 61 q 104 11 75 11 z "},"q":{"ha":388,"x_min":-11,"x_max":464,"o":"m -1 -475 q -11 -465 -11 -475 q 9 -410 -10 -456 q 57 -296 28 -364 q 119 -153 86 -228 q 182 -10 151 -78 q 234 103 213 57 q 260 156 256 149 q 210 106 236 131 q 157 58 183 82 q 99 17 131 36 q 32 -3 68 -3 q 13 6 18 -3 q 7 28 7 15 l 7 38 q 42 150 14 92 q 111 260 71 208 q 193 343 151 311 q 297 379 238 379 l 457 379 q 464 374 464 379 q 451 363 464 363 q 422 345 436 363 q 401 317 408 328 q 326 190 367 263 q 247 35 286 117 q 173 -123 207 -46 q 117 -261 139 -200 q 192 -148 149 -210 q 283 -23 235 -86 q 377 99 331 40 q 460 204 424 158 q 463 196 463 199 q 449 164 463 182 q 345 26 401 101 q 235 -128 289 -49 q 138 -285 181 -208 q 72 -432 94 -362 q 57 -448 71 -437 q 26 -467 43 -458 q -1 -475 10 -475 m 89 44 q 135 69 106 44 q 199 130 164 93 q 264 208 233 167 q 315 283 294 249 q 335 335 335 317 q 326 356 335 350 q 303 361 317 361 q 256 345 281 361 q 215 314 231 329 q 176 266 199 299 q 130 194 153 233 q 92 119 107 156 q 76 61 76 83 q 89 44 76 44 z "},"r":{"ha":378,"x_min":44,"x_max":451,"o":"m 56 -19 q 56 -8 50 -19 q 69 19 63 4 q 82 53 75 35 q 113 128 96 86 q 144 209 129 169 q 172 277 160 249 q 188 314 183 306 q 141 262 168 293 q 90 201 114 231 q 54 156 67 172 q 47 150 50 150 q 44 157 44 150 q 51 178 44 168 q 110 253 78 211 q 169 330 143 294 q 203 376 196 365 q 248 385 218 379 q 289 400 278 390 q 297 404 293 404 q 301 399 300 404 q 297 389 301 394 q 273 353 289 381 q 238 289 257 325 q 200 219 218 253 q 237 269 214 240 q 288 324 260 297 q 344 369 315 351 q 397 388 372 388 q 428 380 415 388 q 447 353 440 372 q 451 331 451 343 q 440 285 451 307 q 422 253 428 264 q 413 245 421 249 q 406 247 404 242 q 408 261 407 254 q 408 276 408 268 q 399 319 408 300 q 367 339 390 339 q 313 311 344 339 q 249 247 281 283 q 185 158 208 200 q 146 75 161 115 q 129 31 138 53 q 117 -3 121 10 q 81 -12 99 -4 q 56 -19 63 -19 z "},"s":{"ha":322,"x_min":-1,"x_max":340,"o":"m 131 -22 q 78 -15 106 -22 q 28 8 50 -8 q 0 51 7 24 q -1 64 -1 56 q 8 107 -1 83 q 31 140 17 131 q 40 140 36 143 q 40 135 43 138 q 36 124 39 131 q 32 111 33 118 q 47 47 28 75 q 67 26 56 36 q 90 10 79 17 q 114 2 100 4 q 142 0 128 0 q 185 6 164 0 q 215 24 206 11 q 233 74 233 46 q 222 118 233 94 q 188 168 211 142 q 158 204 172 185 q 140 246 144 224 q 138 254 139 250 q 138 263 138 258 q 101 213 119 236 q 68 174 82 190 q 58 165 63 165 q 56 171 56 165 q 67 197 56 183 q 92 228 78 210 q 114 258 106 247 q 149 313 138 293 q 175 350 161 333 q 213 379 190 368 q 261 390 236 390 q 315 381 290 390 q 340 336 339 372 q 334 302 340 319 q 321 269 328 285 q 309 258 317 261 q 301 260 301 254 q 303 272 301 265 q 304 285 304 279 q 296 326 304 308 q 275 355 289 346 q 246 364 261 364 q 203 347 224 364 q 182 301 182 329 q 182 294 182 299 q 183 288 182 290 q 217 238 189 265 q 260 189 244 210 q 286 115 286 153 q 265 47 286 78 q 208 -3 243 15 q 131 -22 172 -22 z "},"t":{"ha":275,"x_min":44,"x_max":413,"o":"m 103 -4 q 79 1 89 -4 q 69 22 69 7 q 80 68 69 42 q 103 121 90 94 q 124 164 115 147 q 142 203 131 176 q 167 260 154 231 q 190 311 181 290 q 199 332 199 332 q 166 293 186 318 q 123 241 146 268 q 81 190 100 214 q 54 156 63 167 q 47 150 50 150 q 44 157 44 150 q 51 178 44 168 q 92 228 68 199 q 140 289 115 258 q 182 343 164 319 q 153 342 171 343 q 122 338 136 340 q 107 336 108 336 q 108 347 100 336 q 131 369 117 358 q 151 381 144 381 q 174 380 153 381 q 204 379 194 379 q 259 465 232 417 q 313 572 286 514 q 351 588 324 574 q 393 618 378 603 q 404 625 400 625 q 404 614 413 625 q 371 567 394 603 q 318 483 347 532 q 263 379 289 433 l 375 379 q 390 375 390 379 q 369 364 390 369 q 320 356 346 357 q 273 350 294 354 q 242 332 251 346 q 218 290 233 322 q 185 217 203 258 q 156 135 168 176 q 140 67 143 94 l 140 61 q 147 43 140 50 q 161 36 154 36 q 208 58 179 36 q 267 112 236 81 q 319 169 297 143 q 337 190 329 181 q 346 203 344 200 q 349 194 349 197 q 344 176 349 186 q 333 160 339 167 q 269 87 307 125 q 190 22 232 49 q 103 -4 147 -4 z "},"u":{"ha":546,"x_min":44,"x_max":622,"o":"m 125 -4 q 101 1 111 -4 q 92 22 92 7 q 102 68 92 42 q 125 121 113 94 q 146 164 138 147 q 178 228 163 196 q 204 282 193 260 q 215 310 215 303 q 199 310 215 321 q 169 288 183 299 q 106 219 139 258 q 54 156 72 179 q 47 150 50 150 q 44 157 44 150 q 51 178 44 168 q 97 239 71 206 q 151 303 124 272 q 206 357 178 331 q 276 383 233 383 q 306 361 306 383 q 289 317 306 342 q 258 265 279 301 q 216 187 238 229 q 179 108 194 144 q 164 56 164 72 q 183 36 164 36 q 221 52 199 36 q 267 90 243 68 q 345 181 310 132 q 406 276 381 231 q 447 351 432 322 q 453 365 450 357 q 465 374 457 372 q 501 375 474 375 q 553 386 529 375 l 556 386 q 560 382 560 386 q 542 365 560 371 q 503 332 525 360 q 461 265 482 304 q 424 183 440 225 q 399 107 407 142 q 394 56 390 72 q 414 36 400 36 q 465 58 432 36 q 532 112 497 81 q 589 169 567 143 q 607 192 599 181 q 618 206 615 203 q 621 201 619 204 q 622 194 622 197 q 615 176 621 185 q 603 160 610 167 q 540 87 576 125 q 460 22 503 49 q 374 -4 418 -4 q 342 3 360 -4 q 325 33 325 10 q 335 83 325 51 q 356 145 344 114 q 376 192 368 176 q 333 133 358 165 q 281 75 307 100 q 206 19 246 42 q 125 -4 167 -4 z "},"v":{"ha":408,"x_min":44,"x_max":454,"o":"m 161 -8 q 128 6 142 -8 q 114 54 114 19 q 119 126 114 85 q 133 212 124 168 q 156 289 143 256 q 103 217 132 254 q 54 156 74 181 q 47 150 50 150 q 44 157 44 150 q 51 178 44 168 q 117 269 81 218 q 181 363 154 321 q 217 371 196 365 q 249 386 239 376 q 257 390 256 390 q 261 385 261 390 q 257 375 261 381 q 230 319 244 357 q 201 236 215 282 q 177 147 186 190 q 168 72 168 103 q 175 41 168 50 q 193 32 182 32 q 230 47 208 32 q 267 79 251 63 q 310 135 286 100 q 356 208 335 169 q 389 279 378 247 q 400 317 397 301 q 403 343 403 333 q 399 367 403 360 q 392 375 394 374 q 383 382 383 378 q 389 387 383 385 q 400 386 394 389 q 436 370 418 381 q 454 331 454 360 q 453 315 454 324 q 447 294 451 306 q 413 232 439 272 q 354 147 388 192 q 288 67 321 103 q 229 15 254 31 q 194 -1 213 6 q 161 -8 176 -8 z "},"w":{"ha":694,"x_min":44,"x_max":749,"o":"m 161 -8 q 128 6 142 -8 q 114 54 114 19 q 119 126 114 85 q 133 212 124 168 q 156 289 143 256 q 103 217 132 254 q 54 156 74 181 q 47 150 50 150 q 44 157 44 150 q 51 178 44 168 q 117 269 81 218 q 181 363 154 321 q 217 371 196 365 q 249 386 239 376 q 257 390 256 390 q 261 385 261 390 q 257 375 261 381 q 229 319 244 357 q 200 234 214 281 q 177 143 186 188 q 168 69 168 99 q 176 39 168 47 q 193 31 183 31 q 234 49 213 31 q 277 93 256 67 q 315 144 299 119 q 340 183 332 169 q 394 280 368 228 q 438 363 419 332 q 474 371 453 365 q 507 386 496 376 q 514 390 511 390 q 519 385 518 390 q 515 375 519 381 q 489 319 503 357 q 462 237 475 282 q 440 148 449 192 q 432 74 432 104 q 463 32 432 32 q 509 47 483 32 q 551 79 535 63 q 631 175 599 128 q 685 283 663 222 q 696 320 693 304 q 699 350 699 336 q 692 381 699 369 q 679 394 686 393 q 672 401 672 397 q 679 408 672 404 q 694 410 686 411 q 733 390 717 404 q 749 347 749 375 q 739 300 749 325 q 683 194 719 249 q 600 92 646 139 q 504 15 554 44 q 467 -1 486 6 q 429 -8 447 -8 q 391 6 407 -8 q 375 54 375 19 q 383 140 375 90 q 403 238 390 190 q 384 205 393 222 q 364 169 375 188 q 292 75 329 119 q 229 15 256 31 q 194 -1 213 6 q 161 -8 176 -8 z "},"x":{"ha":415,"x_min":-17,"x_max":501,"o":"m 269 -8 q 242 -1 256 -8 q 207 32 224 7 q 179 85 190 57 q 164 131 168 113 q 97 65 125 97 q 33 -3 69 33 q 13 -7 29 -7 q -7 -4 3 -7 q -17 4 -17 -1 q -8 17 -17 11 q 76 84 40 56 q 160 151 113 113 q 154 182 158 158 q 145 233 150 206 q 138 283 140 261 q 135 308 135 304 q 153 338 138 325 q 188 359 168 351 q 224 367 208 367 q 243 357 243 367 q 232 351 243 351 q 210 336 214 351 q 204 311 206 321 q 202 294 203 303 q 201 278 201 286 q 204 236 201 257 q 211 196 207 215 q 239 218 218 201 q 288 257 260 235 q 343 301 315 279 q 390 339 371 324 q 414 357 410 354 q 455 367 431 368 q 497 367 479 367 q 501 358 501 367 q 496 346 501 346 q 456 337 476 344 q 425 324 436 329 q 355 283 393 310 q 281 227 317 256 q 217 175 244 199 q 228 132 219 163 q 251 74 238 101 q 292 38 268 38 q 329 60 311 38 q 360 110 347 82 q 378 158 374 139 q 385 167 381 167 q 392 151 394 167 q 368 82 385 119 q 326 18 351 44 q 269 -8 301 -8 z "},"y":{"ha":478,"x_min":-285,"x_max":569,"o":"m -96 -486 q -198 -462 -149 -486 q -271 -387 -247 -437 q -282 -349 -279 -369 q -285 -310 -285 -329 l -285 -294 q -282 -274 -285 -283 q -268 -265 -279 -265 q -265 -268 -265 -265 q -267 -285 -265 -276 q -268 -303 -268 -293 q -227 -400 -268 -367 q -125 -433 -186 -433 q -74 -428 -100 -433 q -24 -412 -47 -422 q 128 -306 64 -375 q 242 -151 193 -237 q 329 24 290 -65 q 369 126 351 76 q 400 217 386 176 q 364 169 386 197 q 319 116 342 142 q 281 75 297 90 q 206 19 246 42 q 125 -4 167 -4 q 101 1 111 -4 q 92 22 92 7 q 102 68 92 42 q 125 121 113 94 q 146 164 138 147 q 178 228 163 196 q 204 282 193 260 q 215 310 215 303 q 199 310 215 321 q 169 288 183 299 q 106 219 139 258 q 54 156 72 179 q 47 150 50 150 q 44 157 44 150 q 51 178 44 168 q 97 239 71 206 q 151 303 124 272 q 206 357 178 331 q 276 383 233 383 q 306 361 306 383 q 289 317 306 342 q 258 265 279 301 q 216 187 238 229 q 179 108 194 144 q 164 56 164 72 q 183 36 164 36 q 221 52 199 36 q 267 90 243 68 q 341 176 307 129 q 400 267 375 224 q 415 292 404 274 q 437 326 425 310 q 456 346 449 343 q 483 361 463 349 q 525 378 504 374 q 554 382 544 382 q 569 374 569 382 q 557 363 569 363 q 529 355 542 363 q 510 336 517 347 q 474 271 497 318 q 424 162 451 224 q 371 37 397 100 q 322 -79 344 -26 q 246 -234 289 -158 q 145 -370 203 -310 q 8 -465 88 -431 q -96 -486 -39 -486 z "},"z":{"ha":325,"x_min":-22,"x_max":519,"o":"m 424 -176 q 382 -165 403 -176 q 330 -121 361 -153 q 243 -26 299 -89 q 185 38 213 10 q 119 65 158 65 q 60 47 89 65 q 22 -3 31 28 q 18 -18 21 -11 q 11 -32 15 -25 q -3 -39 7 -39 q -16 -33 -10 -39 q -22 -18 -22 -28 q -17 -3 -22 -14 q 10 31 -10 10 q 53 78 29 53 q 97 124 76 103 q 131 156 118 146 q 237 249 188 204 q 344 342 286 294 q 294 340 326 342 q 227 336 263 339 q 165 328 192 333 q 132 313 139 322 q 113 300 122 300 q 107 304 107 300 q 114 315 107 308 q 133 342 126 329 q 147 368 140 356 q 178 366 163 367 q 210 365 193 365 q 295 367 251 365 q 376 369 339 369 q 397 352 389 369 q 406 325 404 335 q 300 249 358 290 q 186 164 242 208 q 126 113 160 144 q 68 63 92 82 q 140 82 107 82 q 220 53 185 82 q 297 -17 256 24 q 381 -89 339 -58 q 451 -119 422 -119 q 471 -115 461 -118 q 488 -107 481 -112 q 499 -85 499 -97 q 486 -53 499 -69 q 464 -32 474 -37 q 463 -29 463 -31 q 468 -22 463 -25 q 479 -22 474 -19 q 508 -50 497 -32 q 519 -90 519 -68 q 506 -132 519 -112 q 471 -163 493 -150 q 424 -176 449 -176 z "},"{":{"ha":492,"x_min":108,"x_max":746,"o":"m 313 -140 q 254 -138 288 -140 q 190 -128 221 -136 q 140 -103 160 -121 q 125 -56 121 -86 q 156 44 132 -3 q 203 138 179 90 q 232 236 226 185 q 200 296 239 281 q 108 317 161 311 l 126 335 q 265 369 213 336 q 351 475 317 403 q 369 515 361 494 q 385 557 376 536 q 439 653 404 607 q 528 733 474 699 q 658 778 582 767 q 676 778 665 778 q 697 779 686 779 q 722 778 711 779 q 736 774 733 776 q 742 764 739 769 q 746 756 746 758 q 682 758 719 761 q 593 735 629 754 q 529 672 557 717 q 483 574 504 628 q 436 472 463 521 q 368 392 410 424 q 225 322 307 342 q 291 291 263 314 q 314 225 319 268 q 286 129 308 175 q 242 38 264 83 q 214 -57 221 -7 q 228 -106 210 -96 q 278 -118 247 -115 q 288 -119 282 -118 q 301 -119 294 -119 q 321 -119 311 -119 q 338 -117 331 -118 q 326 -133 333 -126 q 313 -140 318 -140 z "},"|":{"ha":506,"x_min":89,"x_max":479,"o":"m 89 0 q 121 83 97 24 q 178 222 144 142 q 247 392 211 303 q 317 563 283 481 q 377 709 351 646 q 414 801 403 772 l 479 801 q 454 749 474 793 q 406 638 435 706 q 345 490 378 569 q 280 328 313 410 q 219 178 247 247 q 172 60 190 108 q 147 0 153 13 l 89 0 z "},"}":{"ha":571,"x_min":-49,"x_max":590,"o":"m -4 -143 q -26 -142 -17 -143 q -39 -137 -36 -140 q -49 -119 -46 -129 q 17 -122 -22 -125 q 106 -99 69 -118 q 168 -36 142 -81 q 215 62 194 8 q 263 165 236 115 q 329 246 289 214 q 396 286 358 268 q 472 314 433 304 q 406 345 435 322 q 383 411 378 368 q 412 508 390 463 q 456 598 433 553 q 483 693 478 643 q 469 742 488 733 q 419 754 451 751 q 410 755 415 754 q 397 756 404 756 q 378 755 388 756 q 360 753 368 754 q 372 770 365 763 q 385 778 379 778 q 443 776 410 778 q 507 765 476 774 q 557 740 538 757 q 572 692 576 722 q 542 593 567 640 q 494 499 518 546 q 465 401 471 453 q 498 340 460 356 q 590 319 536 325 l 572 301 q 434 267 486 300 q 347 161 382 235 q 329 121 338 142 q 313 79 321 100 q 258 -16 293 31 q 170 -96 224 -62 q 39 -140 117 -129 q -4 -143 22 -143 z "},"~":{"ha":385,"x_min":104,"x_max":413,"o":"m 339 443 q 281 453 308 443 q 228 472 254 463 q 175 481 203 481 q 142 472 157 481 q 115 451 128 463 l 104 465 q 140 492 118 476 q 181 508 163 508 q 230 499 206 508 q 281 479 254 489 q 340 469 307 469 q 374 478 363 469 q 404 499 386 488 l 413 489 q 378 461 403 479 q 339 443 354 443 z "},"":{"ha":1175,"x_min":0,"x_max":0,"o":""},"Ç":{"ha":732,"x_min":53,"x_max":818,"o":"m 101 -324 q 93 -312 93 -324 q 98 -306 93 -308 q 106 -304 103 -304 q 133 -304 113 -304 q 177 -299 153 -304 q 220 -277 201 -293 q 244 -231 239 -261 q 235 -195 247 -214 q 211 -156 224 -176 q 199 -115 199 -136 q 214 -67 199 -90 q 253 -32 229 -44 q 111 35 169 -17 q 53 188 53 86 q 88 364 53 278 q 181 524 122 450 q 311 653 239 599 q 459 732 375 701 q 626 763 543 763 q 692 758 661 763 q 754 738 722 753 q 799 706 782 725 q 815 664 815 688 q 815 657 815 661 q 814 650 815 653 q 788 599 808 628 q 757 540 768 571 q 742 531 756 535 q 731 533 728 528 q 748 578 742 551 q 754 631 754 604 q 751 667 754 650 q 739 697 747 685 q 696 732 725 722 q 633 742 667 742 q 569 735 601 742 q 514 719 538 728 q 360 628 433 690 q 244 496 294 571 q 164 342 193 421 q 135 190 135 263 q 167 74 135 117 q 250 13 199 31 q 361 -6 301 -6 q 466 6 414 -6 q 561 33 518 17 q 694 101 635 61 q 804 206 753 142 q 814 213 811 213 q 818 207 818 213 q 807 181 818 196 q 700 74 760 117 q 572 3 640 31 q 466 -28 526 -15 q 344 -40 406 -40 q 288 -37 315 -40 q 258 -64 269 -49 q 247 -97 247 -79 q 261 -136 247 -118 q 288 -173 275 -154 q 296 -218 301 -192 q 255 -278 289 -256 q 178 -312 221 -301 q 101 -324 136 -324 z "},"†":{"ha":454,"x_min":111,"x_max":665,"o":"m 111 -149 q 147 -58 119 -125 q 211 103 174 10 q 292 302 249 197 q 374 503 335 407 q 277 501 328 503 q 188 497 226 500 q 192 510 183 497 q 215 536 201 524 q 236 547 229 549 q 301 543 256 544 q 389 542 347 542 q 455 703 426 633 q 493 800 483 774 l 603 864 q 576 812 597 857 q 525 697 556 767 q 457 542 494 626 q 535 542 494 542 q 610 544 576 543 q 661 546 644 546 q 656 533 665 546 q 634 508 647 521 q 613 496 621 496 q 567 499 597 497 q 503 501 538 500 q 440 503 469 503 q 353 302 397 404 q 272 112 310 200 q 210 -36 235 24 q 179 -108 185 -96 l 111 -149 z "},"°":{"ha":294,"x_min":126,"x_max":342,"o":"m 217 382 q 152 406 178 382 q 126 464 126 429 q 165 542 126 508 q 250 575 203 575 q 316 551 290 575 q 342 493 342 528 q 324 438 342 464 q 277 397 306 413 q 217 382 249 382 m 224 422 q 274 442 251 422 q 297 488 297 463 q 282 522 297 507 q 243 536 267 536 q 193 516 217 536 q 169 471 169 496 q 185 437 169 451 q 224 422 201 422 z "},"¢":{"ha":521,"x_min":75,"x_max":565,"o":"m 156 -68 q 181 4 165 -39 q 214 99 196 47 q 203 100 208 99 q 192 103 197 101 q 104 160 133 117 q 75 263 75 204 q 115 405 75 329 q 232 540 154 481 q 317 585 267 567 q 414 610 367 604 q 437 667 426 642 q 454 710 447 692 q 473 722 457 717 q 486 719 489 726 q 472 682 483 710 q 444 611 461 654 q 485 608 467 611 q 524 596 504 606 q 554 573 543 586 q 561 540 565 560 q 545 509 558 526 q 525 472 532 492 q 515 466 524 468 q 508 468 507 464 q 521 522 521 489 q 511 567 521 551 q 481 589 501 583 q 438 593 461 594 q 386 453 415 532 q 327 290 357 374 q 271 132 297 207 q 367 151 319 131 q 456 205 415 171 q 524 279 497 239 q 528 282 525 282 q 535 274 533 282 q 535 263 538 265 q 415 142 489 189 q 257 94 342 96 q 231 15 243 51 q 211 -47 218 -21 q 197 -55 211 -49 q 169 -66 182 -61 q 156 -68 156 -71 m 229 139 q 288 292 257 213 q 349 449 318 372 q 406 589 381 526 q 376 581 389 585 q 283 525 326 561 q 186 397 222 471 q 150 258 150 322 q 168 183 150 215 q 225 140 186 151 l 229 139 z "},"£":{"ha":863,"x_min":0,"x_max":857,"o":"m 649 -47 q 472 -35 565 -44 q 288 -16 379 -26 q 117 0 197 -6 q 55 -7 86 3 q 7 -31 24 -17 q 6 -31 6 -31 q 4 -32 6 -32 q 0 -21 0 -32 q 6 -1 0 -11 q 28 10 13 8 q 108 35 69 11 q 178 92 147 58 q 224 157 208 126 l 311 333 q 242 333 276 333 q 181 329 208 332 q 185 340 178 329 q 205 363 193 351 q 224 372 217 374 q 267 369 238 371 q 328 368 297 368 l 389 488 q 463 617 422 554 q 562 719 504 679 q 703 760 619 760 q 772 752 736 760 q 832 726 807 744 q 857 676 857 708 q 853 653 857 665 q 824 608 847 631 q 785 550 800 585 q 771 540 781 540 q 768 553 760 540 q 800 657 800 596 q 783 717 800 692 q 726 743 767 743 q 649 722 689 743 q 575 650 608 701 l 393 367 q 467 367 426 367 q 544 369 508 368 q 597 371 581 371 q 593 360 601 371 q 573 338 585 349 q 554 326 561 326 q 508 329 539 328 q 442 332 476 331 q 383 333 408 333 l 372 333 l 258 158 q 179 60 214 89 q 124 25 144 32 q 153 24 124 25 q 228 22 183 24 q 319 19 272 21 q 400 17 367 18 q 480 14 439 15 q 558 13 521 13 q 640 17 604 13 q 685 33 675 21 q 704 81 704 60 q 669 132 704 113 q 667 138 667 133 q 670 143 667 140 q 678 143 674 146 q 707 117 690 138 q 738 74 724 96 q 756 38 753 51 q 758 26 758 32 q 758 15 758 21 q 649 -47 758 -50 z "},"§":{"ha":753,"x_min":11,"x_max":821,"o":"m 265 -228 q 163 -213 217 -228 q 69 -165 110 -199 q 14 -76 28 -132 q 12 -61 13 -69 q 11 -46 11 -53 q 31 38 11 -3 q 78 100 50 78 l 79 100 q 87 94 82 100 q 86 83 92 88 q 66 52 72 69 q 60 15 60 35 q 69 -38 60 -11 q 92 -85 78 -65 q 188 -162 126 -133 q 310 -190 250 -190 q 437 -142 392 -190 q 482 -21 482 -93 q 465 65 482 22 q 406 181 443 124 q 339 294 369 239 q 313 396 313 344 q 346 500 313 453 q 440 575 382 549 q 448 630 440 603 q 474 682 456 657 q 562 753 507 726 q 674 781 617 781 q 749 767 713 781 q 813 721 785 753 q 821 689 821 708 q 810 646 821 661 q 783 599 799 628 q 765 558 768 569 q 752 553 763 557 q 739 554 742 550 q 753 594 744 565 q 763 647 763 624 q 762 681 763 663 q 744 714 761 700 q 701 740 728 729 q 638 751 675 751 q 521 707 561 751 q 481 610 481 663 q 492 557 481 583 q 553 469 513 507 q 635 392 593 431 q 704 301 678 354 q 728 208 728 256 q 685 86 728 142 q 581 -4 642 31 q 574 -7 578 -6 q 567 -10 569 -8 q 510 -123 558 -74 q 397 -200 463 -172 q 265 -228 331 -228 m 569 19 q 578 26 571 22 q 628 83 611 49 q 646 160 646 118 q 618 267 646 211 q 572 339 600 306 q 515 406 543 372 q 467 476 486 439 q 442 557 446 517 q 376 503 399 539 q 353 428 353 468 q 364 375 353 401 q 422 281 385 325 q 497 190 460 236 q 554 90 533 144 q 565 54 561 72 q 569 19 568 36 z "},"•":{"ha":660,"x_min":64,"x_max":644,"o":"m 310 135 q 183 164 239 135 q 96 243 128 193 q 64 354 64 293 q 92 469 64 415 q 167 566 119 524 q 274 632 214 608 q 400 656 335 656 q 526 626 471 656 q 613 548 581 597 q 644 436 644 499 q 617 321 644 375 q 542 224 589 267 q 435 158 494 182 q 310 135 375 135 z "},"¶":{"ha":686,"x_min":-268,"x_max":938,"o":"m -219 -381 q -246 -377 -225 -381 q -267 -362 -267 -374 q -253 -353 -268 -354 q -236 -351 -239 -351 q -98 -309 -165 -351 q 30 -199 -31 -267 q 142 -54 90 -132 q 234 96 194 24 q 297 219 274 168 q 194 244 244 224 q 111 302 143 264 q 79 400 79 340 q 91 467 79 435 q 121 525 103 499 q 256 645 172 601 q 437 708 339 689 q 626 728 535 728 q 678 729 653 728 q 728 736 704 731 q 804 803 760 772 q 900 833 849 833 q 924 831 911 833 q 938 815 938 829 l 938 813 q 930 797 938 801 q 913 793 922 793 q 844 771 876 793 q 785 718 811 749 q 743 661 760 688 q 689 561 718 622 q 633 438 660 500 q 588 333 607 376 q 518 186 560 271 q 422 14 476 101 q 302 -149 368 -74 q 159 -269 236 -224 q -4 -312 82 -315 l -15 -312 q -111 -362 -60 -344 q -219 -381 -162 -381 m 11 -293 q 117 -256 65 -289 q 215 -172 168 -222 q 301 -63 261 -121 q 371 50 340 -6 q 421 147 401 106 q 553 417 488 283 q 688 683 618 551 l 649 682 q 553 580 599 647 q 463 424 507 513 q 372 238 418 336 q 272 43 325 140 q 154 -141 218 -54 q 11 -293 90 -228 z "},"ß":{"ha":640,"x_min":-418,"x_max":807,"o":"m -275 -314 q -366 -297 -329 -314 q -415 -244 -403 -279 q -417 -236 -417 -240 q -418 -226 -418 -232 q -408 -180 -418 -206 q -387 -125 -399 -154 q -378 -117 -383 -117 q -372 -131 -368 -117 q -382 -175 -382 -151 q -340 -250 -382 -222 q -246 -278 -299 -278 q -203 -273 -225 -278 q -162 -258 -182 -268 q -56 -169 -97 -225 q 18 -54 -14 -114 q 102 141 67 39 q 178 343 138 243 l 146 343 q 131 342 139 343 q 115 339 122 340 l 113 340 q 140 367 115 356 q 178 379 164 379 l 194 379 q 254 513 218 439 q 335 658 290 588 q 431 772 381 728 q 515 826 468 806 q 617 849 561 847 q 755 801 703 849 q 807 685 807 753 q 794 619 807 653 q 753 553 781 585 q 667 490 718 514 q 554 460 615 467 q 506 442 519 454 q 492 415 492 431 q 513 365 492 393 q 559 312 533 338 q 599 267 585 286 q 638 164 638 214 q 600 64 638 108 q 506 -7 563 19 q 392 -33 450 -33 q 297 -8 340 -33 q 236 75 254 18 q 233 94 233 86 q 247 153 233 122 q 278 200 260 185 q 283 201 279 201 q 292 197 289 201 q 292 190 294 193 q 281 158 285 179 q 280 149 281 153 q 279 140 279 144 q 302 62 279 93 q 361 15 325 31 q 435 0 397 0 q 531 33 496 0 q 567 131 567 67 q 543 222 567 183 q 491 294 519 261 q 444 363 463 328 q 436 393 436 379 q 460 440 436 421 q 514 469 485 460 q 629 509 575 483 q 717 578 683 535 q 757 694 757 631 q 724 788 757 747 q 621 828 690 828 q 533 807 574 828 q 458 754 492 786 q 379 651 417 715 q 308 510 342 588 q 242 353 274 433 q 183 197 211 272 q 126 64 154 122 q 61 -60 100 6 q -28 -183 22 -125 q -140 -278 -78 -242 q -275 -314 -201 -314 z "},"®":{"ha":982,"x_min":56,"x_max":946,"o":"m 432 -6 q 411 -6 422 -6 q 389 -4 400 -6 q 270 14 329 0 q 163 57 211 28 q 85 135 114 86 q 56 257 56 183 q 75 379 56 313 q 134 513 94 446 q 234 635 174 579 q 376 724 294 690 q 563 757 458 757 q 584 757 574 757 q 606 756 594 757 q 857 684 775 743 q 944 514 939 625 q 945 499 944 507 q 946 485 946 492 q 907 296 946 385 q 798 140 868 207 q 634 33 728 72 q 432 -6 540 -6 m 132 238 q 163 115 132 164 l 164 115 q 200 132 185 119 q 225 163 215 144 q 304 300 267 229 q 351 385 328 343 q 396 471 374 428 q 436 544 419 511 q 458 593 453 578 q 465 617 465 610 q 458 632 465 626 q 439 636 451 632 q 426 646 426 640 q 434 651 426 649 q 461 653 442 653 q 508 654 482 654 q 547 654 533 654 q 567 655 557 654 q 589 656 578 656 q 671 647 629 656 q 731 608 713 639 q 742 580 739 596 q 746 547 746 564 q 739 499 746 524 q 718 458 732 475 q 617 385 682 410 q 493 358 551 361 q 531 285 506 331 q 594 194 557 240 q 629 165 611 174 q 665 156 647 156 q 736 185 703 156 q 788 244 769 214 q 849 383 831 308 q 863 532 867 458 q 799 672 857 618 q 608 735 740 725 q 597 735 603 735 q 586 736 592 736 q 448 705 515 736 q 324 621 381 674 q 224 503 267 568 q 156 369 181 438 q 132 238 132 300 m 410 17 q 584 56 504 17 q 724 158 664 94 q 674 128 700 140 q 621 115 647 115 q 576 127 599 115 q 532 167 553 139 q 460 284 485 229 q 425 357 435 339 q 435 369 425 357 q 453 382 446 382 q 528 394 485 382 q 609 438 571 407 q 665 521 647 469 q 672 561 672 544 q 658 610 672 589 q 618 633 644 631 q 607 635 613 635 q 594 635 601 635 q 566 631 581 635 q 542 615 551 626 q 474 503 506 568 q 414 385 442 438 q 388 338 407 372 q 349 263 369 304 q 315 188 328 222 q 307 143 303 154 q 308 141 307 142 q 308 140 308 140 q 303 138 308 138 q 288 141 296 138 q 269 144 281 144 q 251 140 263 144 q 220 125 242 135 q 179 108 199 115 q 168 108 172 106 q 247 47 196 69 q 376 18 297 25 q 393 17 385 17 q 410 17 401 17 z "},"©":{"ha":993,"x_min":56,"x_max":946,"o":"m 432 -6 q 411 -6 422 -6 q 389 -4 400 -6 q 270 14 329 0 q 163 57 211 28 q 85 135 114 86 q 56 257 56 183 q 75 379 56 313 q 134 513 94 446 q 234 635 174 579 q 376 724 294 690 q 563 757 458 757 q 584 757 574 757 q 606 756 594 757 q 857 684 775 743 q 944 514 939 625 q 945 499 944 507 q 946 485 946 492 q 907 297 946 385 q 798 140 868 208 q 634 33 728 72 q 432 -6 540 -6 m 408 17 q 590 58 507 17 q 735 171 674 100 q 830 328 796 242 q 864 504 864 415 q 807 663 864 601 q 608 735 750 724 q 597 735 603 735 q 586 736 592 736 q 448 705 515 736 q 324 621 381 674 q 224 503 267 568 q 156 369 181 438 q 132 238 132 300 q 188 86 132 144 q 376 18 243 28 q 393 17 385 17 q 408 17 401 17 m 418 110 q 387 111 403 110 q 354 117 371 113 q 267 174 296 131 q 238 276 238 218 q 277 419 238 343 q 396 554 317 494 q 495 605 436 585 q 606 625 554 625 q 647 622 628 625 q 686 610 667 619 q 717 587 706 600 q 724 554 728 574 q 708 523 721 540 q 689 486 696 506 q 679 480 688 482 q 672 482 671 478 q 685 536 685 503 q 675 581 685 565 q 648 601 665 596 q 610 607 631 607 q 572 603 592 607 q 539 594 553 600 q 492 572 515 585 q 447 539 468 558 q 349 411 385 485 q 314 274 314 338 q 332 199 314 231 q 389 154 350 167 q 443 146 417 146 q 581 190 514 146 q 688 293 647 235 q 692 296 689 296 q 699 288 696 296 q 699 276 701 279 q 578 156 651 201 q 418 110 504 110 z "},"™":{"ha":1178,"x_min":338,"x_max":1133,"o":"m 640 400 q 652 428 642 403 q 676 488 663 453 q 705 562 690 524 q 731 630 719 600 q 744 671 742 660 q 749 713 749 683 q 748 739 749 726 q 746 761 747 751 q 753 769 746 768 q 769 771 760 771 q 788 770 779 771 q 796 767 796 769 q 808 701 800 746 q 825 603 815 656 q 849 511 835 551 q 883 461 864 471 q 933 504 906 469 q 989 585 960 539 q 1043 671 1018 631 q 1056 695 1046 676 q 1076 734 1065 714 q 1093 764 1088 754 q 1100 767 1096 767 q 1122 760 1110 767 q 1131 747 1133 753 q 1113 683 1121 726 q 1100 590 1106 640 q 1091 494 1094 539 q 1086 428 1088 450 q 1069 413 1085 418 q 1042 407 1053 407 q 1028 418 1028 407 q 1029 428 1028 425 q 1051 533 1043 481 q 1069 636 1058 585 q 1033 587 1057 619 q 978 519 1008 554 q 920 459 949 483 q 871 435 892 435 q 828 458 846 435 q 798 516 810 482 q 778 583 786 550 q 765 636 771 617 q 738 561 750 603 q 715 481 725 519 q 697 415 706 442 q 681 403 696 411 q 651 394 665 396 q 640 400 638 392 m 385 400 q 371 404 369 400 q 390 450 375 414 q 423 532 404 486 q 458 617 442 578 q 479 674 474 657 q 490 703 483 682 q 497 738 497 724 q 475 738 485 739 q 461 738 465 738 q 449 739 456 739 q 435 739 442 739 q 391 738 414 739 q 350 736 368 736 q 338 750 338 736 q 344 764 338 757 q 369 771 351 771 l 725 771 q 733 764 733 771 q 725 752 733 758 q 701 743 717 746 q 642 739 678 740 q 576 735 606 738 q 543 722 547 732 q 504 625 524 682 q 467 511 485 568 q 433 411 449 454 q 415 403 432 407 q 385 400 397 400 z "},"´":{"ha":179,"x_min":36,"x_max":225,"o":"m 38 465 q 38 470 36 465 q 39 475 39 475 q 94 518 65 494 q 146 563 122 542 q 167 581 151 568 q 199 605 183 593 q 221 617 215 617 q 225 604 225 617 q 224 586 225 596 q 219 574 222 576 q 190 551 215 568 q 133 515 165 533 q 73 481 100 496 q 38 465 46 467 z "},"¨":{"ha":346,"x_min":104,"x_max":379,"o":"m 318 513 q 290 523 304 513 q 267 543 275 533 q 278 555 265 546 q 305 572 290 564 q 321 579 319 581 q 343 567 332 574 q 367 563 354 561 l 372 563 q 379 558 379 563 q 369 544 379 554 q 344 524 357 535 q 318 513 331 513 m 157 513 q 128 523 143 513 q 106 543 114 533 q 117 555 104 546 q 144 572 129 564 q 160 579 158 581 q 182 567 171 574 q 206 563 193 561 l 211 563 q 218 558 218 563 q 208 544 218 554 q 183 524 196 535 q 157 513 169 513 z "},"≠":{"ha":408,"x_min":67,"x_max":390,"o":"m 75 4 q 67 10 67 4 q 95 40 75 22 q 126 69 115 58 q 114 69 121 69 q 100 68 107 68 q 88 78 94 68 q 81 94 81 89 l 82 96 q 121 100 101 100 q 158 101 140 100 l 249 188 q 184 182 217 186 q 119 178 151 178 q 106 188 114 178 q 100 204 99 199 l 101 206 q 158 213 129 213 q 214 213 188 213 q 244 213 229 213 q 272 211 258 213 q 297 236 282 219 q 330 266 313 253 q 360 279 347 279 q 365 275 365 279 q 351 258 365 272 q 321 228 336 243 q 301 208 306 213 q 330 207 308 208 q 371 203 351 206 q 389 194 390 200 q 381 190 389 190 q 331 190 356 190 q 281 189 306 190 l 190 103 l 214 103 q 261 101 228 103 q 326 97 294 100 q 367 90 358 94 q 369 85 371 89 q 367 82 369 83 q 363 81 364 81 q 261 79 311 81 q 160 72 211 78 q 136 49 151 65 q 104 18 121 32 q 75 4 88 4 z "},"∞":{"ha":764,"x_min":46,"x_max":726,"o":"m 496 176 q 419 192 447 176 q 374 231 390 207 q 344 283 358 256 q 255 229 307 257 q 153 201 203 201 q 72 224 97 201 q 46 282 46 247 q 53 319 46 299 q 97 382 65 353 q 172 428 128 411 q 263 446 215 446 q 360 421 331 446 q 404 356 389 396 q 506 419 449 389 q 628 450 564 450 q 705 424 683 450 q 726 364 726 399 q 719 319 726 343 q 638 219 699 261 q 496 176 576 176 m 553 235 q 641 260 604 235 q 692 325 678 285 q 696 338 694 332 q 697 350 697 344 q 672 390 697 376 q 607 407 647 404 q 503 387 553 410 q 411 335 454 364 q 438 284 424 307 q 478 248 451 261 q 553 235 506 235 m 154 236 q 252 258 199 236 q 338 303 306 281 q 299 367 324 338 q 213 397 274 397 q 126 376 163 397 q 76 319 89 356 q 72 297 72 310 q 94 253 72 271 q 154 236 115 236 z "},"±":{"ha":515,"x_min":33,"x_max":635,"o":"m 244 156 q 295 263 268 200 q 343 372 322 325 q 234 372 294 372 q 128 367 174 371 q 133 380 124 367 q 156 406 142 393 q 176 417 169 418 q 226 413 193 414 q 295 411 258 411 q 358 411 332 411 q 393 500 375 453 q 417 569 411 547 q 440 585 419 576 q 478 597 460 593 q 494 597 496 601 q 473 551 488 582 q 441 483 458 519 q 408 411 424 446 q 494 412 449 411 q 576 414 539 413 q 631 415 614 415 q 626 403 635 415 q 603 378 617 390 q 582 365 590 365 q 535 368 568 367 q 463 371 501 369 q 392 372 424 372 l 390 367 q 364 304 379 340 q 337 235 349 268 q 321 185 325 201 q 299 169 319 178 q 260 156 279 160 q 244 156 242 151 m 460 11 q 408 14 443 13 q 333 17 372 15 q 265 18 294 18 q 151 17 217 18 q 38 13 86 17 q 42 24 33 13 q 65 48 51 36 q 85 58 78 60 q 135 54 101 56 q 205 53 168 53 q 268 51 242 53 q 353 53 306 51 q 444 56 401 54 q 507 57 488 57 q 501 45 511 57 q 479 22 492 33 q 460 11 467 11 z "},"≤":{"ha":374,"x_min":10,"x_max":411,"o":"m 310 72 q 200 184 258 131 q 76 283 142 238 l 79 307 q 165 350 118 324 q 256 408 211 376 q 338 471 301 439 q 359 489 349 479 q 374 513 369 499 l 382 513 q 393 490 382 506 q 406 471 404 474 q 392 439 411 458 q 347 401 372 419 q 313 376 322 383 q 235 326 278 350 q 160 283 193 301 q 158 272 151 278 q 194 241 171 263 q 243 194 217 219 q 290 144 269 168 q 315 104 310 119 l 315 99 q 314 86 315 93 q 310 72 313 79 m 332 0 q 292 2 319 1 q 236 4 265 3 q 185 6 207 6 q 99 5 149 6 q 13 1 49 4 q 17 11 10 1 q 33 31 24 21 q 49 39 43 40 q 86 36 61 38 q 140 35 111 35 q 188 33 168 35 q 253 34 217 33 q 321 36 289 35 q 368 38 353 38 q 364 28 371 38 q 347 9 357 18 q 332 0 338 0 z "},"≥":{"ha":446,"x_min":10,"x_max":417,"o":"m 111 72 q 101 95 111 79 q 88 114 90 111 q 101 146 82 126 q 146 183 121 165 q 181 208 171 201 q 258 259 217 235 q 333 301 300 283 q 335 313 342 307 q 299 344 322 322 q 250 391 276 365 q 203 441 224 417 q 178 481 183 465 l 178 486 q 180 500 178 493 q 183 513 182 507 q 294 401 236 454 q 417 301 353 347 l 414 278 q 328 235 375 261 q 237 177 282 208 q 156 114 192 146 q 135 96 146 106 q 119 72 124 86 l 111 72 m 332 0 q 292 2 319 1 q 236 4 265 3 q 185 6 207 6 q 99 5 149 6 q 13 1 49 4 q 17 11 10 1 q 33 31 24 21 q 49 39 43 40 q 86 36 61 38 q 140 35 111 35 q 188 33 168 35 q 253 34 217 33 q 321 36 289 35 q 368 38 353 38 q 364 28 371 38 q 347 9 357 18 q 332 0 338 0 z "},"¥":{"ha":628,"x_min":11,"x_max":1004,"o":"m 163 -54 q 81 -30 119 -54 q 22 44 42 -6 q 13 83 15 63 q 11 124 11 104 q 18 143 11 143 q 25 131 25 143 q 58 33 25 67 q 140 -1 90 -1 q 249 28 199 -1 q 343 104 300 58 q 421 197 386 150 q 339 197 385 197 q 258 193 293 196 q 263 203 256 193 q 279 222 269 213 q 294 231 289 232 q 336 228 307 229 q 394 226 365 226 q 396 231 394 229 l 411 278 q 433 389 422 322 q 444 524 444 456 q 433 635 444 582 q 393 721 422 688 l 360 721 q 302 718 339 721 q 228 706 265 715 q 165 674 190 696 q 143 614 140 651 q 151 584 144 603 q 160 561 158 565 l 146 550 q 125 585 138 565 q 102 625 113 606 q 90 654 92 644 q 92 690 89 668 q 114 729 96 713 q 172 753 135 747 q 247 758 208 758 q 319 756 285 758 q 376 753 354 753 q 441 753 376 753 q 599 754 506 754 l 569 718 q 506 719 531 718 q 463 720 482 719 q 418 721 444 721 q 485 626 467 688 q 504 496 504 565 q 494 378 504 436 q 474 281 485 321 q 599 467 539 371 q 732 647 658 563 q 788 708 756 674 q 860 768 821 742 q 940 794 900 794 q 974 786 960 794 q 997 757 988 778 q 1004 726 1004 740 q 996 686 1004 704 q 983 658 988 668 q 976 653 982 653 q 972 658 971 653 q 975 672 975 665 q 975 685 975 679 q 963 731 975 710 q 922 751 950 751 q 836 713 883 751 q 749 628 789 674 q 640 491 688 556 q 553 362 593 426 q 471 225 513 297 q 553 226 511 225 q 614 229 596 228 q 610 219 617 229 q 593 201 603 210 q 578 192 583 192 l 456 197 l 428 149 q 360 51 399 97 q 274 -25 322 4 q 163 -54 226 -54 z "},"µ":{"ha":349,"x_min":-228,"x_max":386,"o":"m -104 -537 q -192 -504 -156 -537 q -228 -425 -228 -471 q -228 -415 -228 -419 q -226 -404 -228 -410 l -225 -401 q -188 -306 -217 -360 q -121 -196 -160 -253 q -44 -87 -82 -139 q 19 3 -7 -35 q 108 142 65 71 q 164 289 150 213 q 142 255 158 278 q 103 206 125 232 q 63 157 82 179 q 32 124 43 135 q 30 123 31 124 q 28 122 29 122 q 24 128 24 122 q 24 128 24 128 q 25 129 24 129 q 48 158 29 138 q 74 189 67 179 q 125 258 101 224 q 167 332 149 293 q 179 351 171 342 q 200 361 188 361 q 213 353 210 361 q 215 335 215 346 q 213 310 215 321 q 183 219 206 267 q 133 124 160 171 q 85 35 106 78 q 184 108 142 71 q 269 193 226 146 l 279 203 q 291 234 283 214 q 308 274 299 254 q 326 301 318 293 q 350 308 335 308 q 365 306 356 308 q 372 297 374 304 q 361 266 369 279 q 339 239 353 253 q 308 161 321 200 q 288 82 294 122 q 285 72 286 76 q 285 61 285 67 q 290 40 285 49 q 314 31 296 31 q 344 40 329 31 q 371 58 360 49 q 383 67 382 67 q 386 61 386 67 q 385 60 386 60 q 385 58 385 60 q 340 24 368 40 q 288 7 313 7 q 255 22 263 7 q 247 54 247 36 q 248 71 247 63 q 250 86 249 79 q 260 133 254 110 q 272 178 267 156 q 176 81 231 122 q 63 4 122 40 q -26 -133 22 -58 q -111 -285 -74 -208 q -161 -429 -149 -361 q -163 -446 -162 -437 q -164 -462 -164 -454 q -153 -506 -164 -486 q -110 -525 -142 -525 q -51 -513 -85 -525 q 4 -489 -18 -501 q -45 -523 -10 -508 q -104 -537 -81 -537 z "},"∂":{"ha":506,"x_min":86,"x_max":490,"o":"m 135 -21 q 96 4 106 -21 q 89 51 86 29 q 113 108 93 74 q 165 178 133 142 q 231 247 196 215 q 300 299 265 279 q 361 319 335 319 q 383 296 388 319 l 376 285 q 361 278 368 279 q 344 274 354 276 q 271 240 310 265 q 197 178 232 214 q 137 104 161 142 q 107 36 113 67 q 106 25 106 32 q 132 0 106 0 q 233 29 188 0 q 316 106 279 58 q 380 208 353 153 q 424 315 407 263 q 447 406 440 367 q 453 444 450 424 q 456 488 456 465 q 447 556 456 524 q 414 610 438 589 q 347 632 390 632 q 304 622 329 632 q 258 597 279 611 q 224 567 236 582 q 220 566 222 567 q 215 565 218 565 q 213 574 213 565 q 243 619 218 601 q 300 647 268 638 q 357 657 332 657 q 438 628 410 657 q 478 557 467 600 q 490 469 490 514 q 488 428 490 449 q 483 390 486 408 q 456 295 476 349 q 405 186 436 242 q 333 83 374 131 q 242 8 292 36 q 135 -21 192 -21 z "},"∑":{"ha":757,"x_min":14,"x_max":735,"o":"m 650 0 l 14 0 l 17 29 l 414 443 l 126 811 l 129 840 l 735 840 l 735 674 l 713 669 q 667 775 694 749 q 616 797 651 792 q 500 803 581 803 l 268 803 l 519 475 l 136 82 l 518 82 q 598 90 565 82 q 656 124 631 99 q 707 201 682 150 l 725 193 l 650 0 z "},"∏":{"ha":365,"x_min":31,"x_max":758,"o":"m 325 24 l 317 0 l 31 0 l 39 24 q 106 32 81 28 q 142 53 131 36 q 154 113 154 71 l 154 642 q 144 700 154 685 q 108 719 133 715 q 39 725 83 722 l 46 749 l 739 749 l 732 725 q 659 708 676 721 q 639 656 642 696 q 638 640 639 649 q 638 622 638 632 l 638 113 q 650 53 638 71 q 690 32 663 36 q 758 24 717 28 l 750 0 l 450 0 l 458 24 q 525 35 504 28 q 551 64 546 43 q 557 126 557 85 l 557 685 q 550 709 557 704 q 522 714 543 714 l 268 714 q 240 709 246 714 q 233 681 233 704 l 233 126 q 239 64 233 85 q 265 35 244 43 q 325 24 285 28 z "},"π":{"ha":419,"x_min":83,"x_max":536,"o":"m 83 -26 q 140 111 113 32 q 188 271 167 190 q 219 410 210 351 l 217 410 q 139 392 172 411 q 88 358 106 374 l 88 382 q 129 415 106 396 q 181 447 153 433 q 239 461 210 461 q 307 448 276 461 q 369 422 338 435 q 436 408 400 408 q 506 423 483 408 q 535 444 528 438 q 535 436 535 444 q 533 425 536 428 q 469 382 503 397 q 394 371 435 367 q 349 249 369 306 q 317 126 328 193 q 315 110 315 118 q 314 96 314 103 q 319 63 314 76 q 336 50 325 50 q 382 78 354 50 q 433 132 410 104 q 479 188 457 160 q 491 192 483 193 q 494 183 499 190 q 453 128 481 163 q 394 63 425 93 q 340 25 364 33 q 330 23 335 24 q 321 22 325 22 q 284 42 296 22 q 272 93 272 63 q 273 108 272 100 q 275 122 274 115 q 296 209 282 161 q 326 302 310 257 q 353 378 342 347 q 306 393 329 385 q 256 407 282 401 q 233 314 250 371 q 196 194 217 257 q 153 76 175 131 q 113 -11 131 21 l 83 -26 z "},"∫":{"ha":382,"x_min":-418,"x_max":667,"o":"m -275 -314 q -366 -297 -329 -314 q -415 -244 -403 -279 q -417 -236 -417 -240 q -418 -226 -418 -232 q -408 -180 -418 -206 q -387 -125 -399 -154 q -378 -117 -383 -117 q -372 -131 -368 -117 q -382 -175 -382 -151 q -340 -250 -382 -222 q -246 -278 -299 -278 q -203 -273 -225 -278 q -162 -258 -182 -268 q -56 -169 -97 -225 q 18 -54 -14 -114 q 90 107 57 19 q 158 288 124 194 q 231 474 192 382 q 318 646 269 565 q 455 795 376 742 q 618 849 533 849 q 651 838 635 849 q 665 807 667 828 l 661 757 q 654 753 661 753 q 651 754 651 753 q 619 796 646 781 q 560 811 593 811 q 518 804 542 811 q 450 764 479 792 q 381 667 421 736 q 289 467 331 576 q 208 247 247 358 q 121 35 168 136 q 56 -85 94 -24 q -31 -198 18 -146 q -141 -282 -81 -250 q -275 -314 -201 -314 z "},"ª":{"ha":408,"x_min":4,"x_max":490,"o":"m 236 417 q 213 422 222 417 q 203 443 203 428 q 213 488 203 463 q 235 537 222 513 q 257 576 247 561 q 156 479 208 525 q 97 438 129 457 q 29 418 65 418 q 10 427 15 418 q 4 449 4 436 q 6 458 4 456 q 40 571 13 513 q 108 681 68 629 q 190 764 149 732 q 294 800 238 800 l 454 800 q 461 794 461 800 q 449 783 461 783 q 421 766 435 783 q 400 738 407 749 q 369 686 390 722 q 327 608 349 650 q 290 529 306 565 q 275 476 275 493 q 294 457 275 457 q 342 476 315 457 q 395 524 368 496 q 445 581 422 553 q 482 626 468 610 q 481 603 490 618 q 465 581 472 589 q 401 506 438 544 q 323 442 365 468 q 236 417 281 417 m 86 465 q 133 490 103 465 q 197 551 163 514 q 263 628 232 588 q 313 703 293 669 q 333 756 333 738 q 324 776 333 771 q 301 782 315 782 q 253 766 279 782 q 213 735 228 750 q 173 687 196 719 q 128 615 150 654 q 90 540 106 576 q 75 482 75 504 q 86 465 75 465 z "},"º":{"ha":368,"x_min":13,"x_max":436,"o":"m 69 424 q 30 433 47 424 q 13 472 13 442 q 38 570 13 521 q 89 657 63 619 q 142 717 113 689 q 207 767 172 746 q 267 797 229 781 q 332 813 306 813 q 371 801 354 813 q 388 758 388 789 q 363 662 388 711 q 313 575 339 613 q 288 544 300 558 q 260 514 275 529 q 354 544 311 514 q 429 617 397 574 l 432 619 q 436 611 436 619 q 431 593 436 601 q 361 524 403 554 q 267 494 319 494 q 256 494 261 494 q 244 496 250 494 q 69 424 167 424 m 106 447 q 148 461 125 447 q 183 488 171 475 q 226 538 207 511 q 263 593 246 565 q 301 672 282 626 q 321 758 321 718 q 299 790 321 790 q 255 775 281 790 q 217 747 229 760 q 138 642 169 699 q 99 567 119 610 q 78 488 78 524 q 78 477 78 482 q 81 467 79 472 q 106 447 86 447 z "},"Ω":{"ha":924,"x_min":89,"x_max":886,"o":"m 381 0 l 96 0 l 89 156 l 107 158 q 142 80 125 96 q 193 64 158 64 l 318 64 q 267 128 299 89 q 203 216 235 167 q 151 324 171 265 q 136 446 132 382 q 200 645 144 560 q 344 778 256 731 q 535 826 432 826 q 713 785 636 826 q 835 667 790 743 q 879 489 879 592 q 879 470 879 479 q 878 451 879 461 q 844 328 874 388 q 776 219 815 269 q 701 128 738 168 q 643 64 664 89 l 758 64 q 803 69 788 64 q 833 95 819 75 q 864 158 846 115 l 886 156 l 850 0 l 565 0 l 560 17 q 606 79 576 39 q 669 176 636 119 q 728 302 703 233 q 758 450 753 371 q 760 473 760 461 q 760 496 760 485 q 701 706 760 625 q 532 786 642 786 q 340 694 413 786 q 256 446 267 603 q 254 430 254 438 q 254 414 254 422 q 271 283 254 346 q 311 168 288 221 q 357 76 335 115 q 390 15 379 38 l 381 0 z "},"¿":{"ha":619,"x_min":11,"x_max":542,"o":"m 486 575 q 465 588 476 582 q 440 592 453 594 l 435 592 q 428 596 428 592 q 438 610 428 600 q 463 631 450 621 q 488 642 476 642 q 517 632 503 642 q 539 611 531 622 q 529 601 542 610 q 503 583 517 592 q 486 575 489 575 m 165 -160 q 52 -133 93 -160 q 11 -47 11 -107 q 15 -11 11 -29 q 58 80 25 44 q 135 140 90 115 q 227 186 179 164 q 318 236 275 208 q 388 306 361 264 q 417 363 407 336 q 428 411 428 389 q 414 453 428 438 l 429 475 q 464 383 464 436 q 440 313 464 347 q 388 256 415 279 l 157 72 q 115 22 129 50 q 101 -33 101 -6 q 115 -82 101 -60 q 154 -115 128 -104 q 208 -125 175 -125 q 267 -117 238 -125 q 319 -93 297 -108 q 349 -61 333 -83 q 377 -12 364 -39 q 396 38 390 15 q 411 58 396 50 q 424 50 426 65 q 413 2 419 31 q 403 -52 407 -26 q 399 -92 399 -78 q 388 -116 399 -106 q 368 -131 376 -126 q 311 -145 351 -137 q 239 -156 271 -153 l 200 -158 q 182 -160 190 -160 q 165 -160 174 -160 z "},"¡":{"ha":340,"x_min":-56,"x_max":383,"o":"m 328 575 q 306 588 318 582 q 282 592 294 594 l 276 592 q 269 596 269 592 q 279 610 269 600 q 305 631 292 621 q 331 642 318 642 q 360 632 346 642 q 382 611 374 622 q 371 601 383 610 q 344 583 358 592 q 328 575 331 575 m -43 -164 q -51 -152 -47 -164 q -53 -139 -56 -140 q -33 -115 -46 -135 q -10 -74 -21 -94 q 3 -50 1 -54 q 86 113 44 31 q 163 265 128 194 q 222 383 199 336 q 251 442 246 431 q 273 458 256 451 q 288 457 290 465 q 268 407 283 447 q 231 309 253 367 q 184 187 208 251 q 136 62 160 122 q 96 -43 113 1 q 81 -84 89 -61 q 68 -117 72 -107 q 18 -131 50 -121 q -42 -164 -14 -140 l -43 -164 z "},"¬":{"ha":575,"x_min":85,"x_max":521,"o":"m 521 340 q 485 269 503 310 q 461 208 468 229 l 403 210 q 427 257 410 228 q 460 314 444 286 q 421 315 447 314 q 360 315 394 315 q 261 315 314 315 q 161 313 208 314 q 85 310 114 313 l 101 342 l 183 342 q 274 342 225 342 q 371 342 324 342 q 456 342 418 342 q 511 344 493 343 l 521 340 z "},"√":{"ha":458,"x_min":31,"x_max":904,"o":"m 224 -18 q 208 -10 214 -18 l 208 -6 q 226 35 211 10 q 260 85 242 60 q 289 122 279 110 q 370 218 318 160 q 488 340 422 276 q 624 461 554 404 q 760 554 694 518 q 878 590 826 590 q 899 580 893 590 q 904 554 904 569 q 903 534 904 544 q 899 514 901 524 q 890 496 899 503 q 884 536 892 518 q 847 554 876 554 q 757 528 808 554 q 651 460 706 501 q 546 371 597 418 q 453 281 494 324 q 388 208 411 238 q 364 179 379 199 q 336 140 349 160 q 321 107 324 119 q 306 79 317 99 q 282 38 296 60 q 255 -1 268 15 q 233 -17 242 -17 q 228 -17 231 -17 q 224 -18 226 -18 m 228 57 q 227 57 228 57 q 226 58 226 57 q 228 59 228 58 q 228 60 228 60 q 265 152 246 107 q 292 244 283 197 q 294 260 293 251 q 294 276 294 268 q 286 316 294 299 q 250 333 278 333 q 183 314 219 333 q 111 269 146 294 q 53 225 76 244 q 36 218 46 218 q 32 222 31 218 q 38 235 32 228 q 49 244 44 242 q 94 286 65 263 q 158 331 124 310 q 225 367 192 353 q 285 382 258 382 q 327 362 317 382 q 338 317 338 342 q 336 297 338 307 q 333 276 335 286 q 303 176 326 233 q 251 79 279 118 q 240 67 247 74 q 228 57 233 60 z "},"ƒ":{"ha":261,"x_min":-567,"x_max":667,"o":"m -392 -460 q -504 -439 -460 -460 q -564 -375 -549 -418 q -566 -364 -565 -369 q -567 -353 -567 -358 q -555 -298 -567 -329 q -529 -232 -543 -267 q -518 -222 -525 -222 q -511 -227 -514 -222 q -512 -239 -508 -232 q -521 -266 -518 -253 q -524 -290 -524 -279 q -500 -356 -524 -328 q -437 -400 -476 -385 q -356 -415 -399 -415 q -304 -410 -331 -415 q -254 -392 -278 -404 q -115 -284 -174 -351 q -19 -142 -56 -217 q 51 19 17 -68 q 119 192 86 107 q 178 343 151 276 l 146 343 q 131 342 139 343 q 115 339 122 340 l 113 340 q 140 367 115 356 q 178 379 164 379 l 194 379 q 235 468 210 417 q 288 570 261 519 q 336 656 315 621 q 464 800 394 751 q 618 849 533 849 q 651 838 635 849 q 665 807 667 828 l 661 757 q 654 753 661 753 q 651 754 651 753 q 626 793 647 779 q 575 807 604 807 q 531 799 554 807 q 456 753 492 786 q 381 651 421 721 q 340 569 361 617 q 299 472 319 522 q 258 379 278 422 l 358 379 q 378 380 368 379 q 399 382 389 381 q 391 372 399 376 q 378 364 383 367 q 313 344 343 346 q 243 343 282 342 q 199 232 224 293 q 150 110 175 171 q 101 -6 125 49 q 22 -159 69 -79 q -87 -307 -25 -239 q -226 -417 -150 -375 q -392 -460 -301 -460 z "},"≈":{"ha":408,"x_min":71,"x_max":400,"o":"m 324 181 q 266 190 293 181 q 214 209 239 200 q 161 218 189 218 q 129 209 144 218 q 101 189 114 200 l 90 203 q 127 230 104 214 q 168 246 150 246 q 217 236 194 246 q 267 217 240 226 q 326 207 293 207 q 361 216 349 207 q 392 236 374 225 l 400 225 q 365 198 390 215 q 324 181 339 181 m 304 68 q 247 78 274 68 q 194 97 219 88 q 142 106 169 106 q 110 97 125 106 q 82 76 94 88 l 71 90 q 108 117 85 101 q 149 133 131 133 q 198 124 175 133 q 247 106 221 115 q 307 96 274 96 q 342 104 329 96 q 372 124 354 113 l 381 114 q 345 86 371 104 q 304 68 319 68 z "},"∆":{"ha":846,"x_min":68,"x_max":825,"o":"m 68 0 q 118 87 83 28 q 199 223 153 146 q 294 383 244 300 q 392 546 344 467 q 476 688 440 625 q 519 758 497 724 q 579 797 540 792 q 590 799 582 799 l 671 799 q 664 747 664 781 q 675 622 664 699 q 705 458 686 546 q 745 282 724 369 q 788 121 767 194 q 825 1 808 47 q 649 1 739 1 q 475 1 558 1 q 326 1 392 1 q 221 0 260 0 q 182 0 182 0 l 68 0 m 544 699 q 453 551 501 636 q 358 376 404 467 q 272 202 311 285 q 207 61 232 119 l 676 61 q 638 197 657 122 q 601 351 618 272 q 572 500 585 429 q 552 624 560 571 q 544 699 544 676 z "},"«":{"ha":493,"x_min":147,"x_max":515,"o":"m 460 160 q 444 144 457 144 l 436 149 q 381 213 413 188 q 314 267 350 239 q 313 274 311 272 q 337 307 314 281 q 390 366 360 333 q 448 426 421 399 q 483 461 475 453 q 508 472 494 472 q 515 467 515 472 q 494 440 514 463 q 449 388 475 417 q 400 334 422 358 q 371 303 378 310 q 391 274 376 294 q 422 230 406 254 q 450 186 439 206 q 460 160 461 167 m 294 161 q 279 144 294 144 l 271 149 q 217 213 249 188 q 149 267 185 239 q 147 274 147 269 q 172 307 149 281 q 225 366 194 333 q 283 426 256 399 q 318 461 310 453 q 343 472 332 472 q 350 467 350 472 q 329 440 349 463 q 284 388 310 417 q 235 334 258 358 q 206 303 213 310 q 226 275 211 294 q 256 232 240 256 q 283 189 272 208 q 294 161 294 169 z "},"»":{"ha":493,"x_min":122,"x_max":511,"o":"m 315 138 q 308 144 306 138 q 328 172 308 149 q 374 223 347 194 q 423 276 400 251 q 453 308 446 300 q 433 337 447 317 q 401 381 418 357 q 373 424 385 404 q 363 451 361 444 q 378 465 365 465 l 386 461 q 442 397 410 422 q 508 343 474 371 q 511 336 511 340 q 487 303 510 329 q 433 244 464 276 q 375 185 401 213 q 339 149 349 157 q 328 141 333 144 q 315 138 322 138 m 132 138 q 125 144 122 138 q 144 172 125 149 q 190 223 164 194 q 240 276 217 251 q 269 308 263 300 q 249 337 264 317 q 218 381 235 357 q 190 424 201 404 q 179 451 178 444 q 194 465 182 465 l 203 461 q 258 397 226 422 q 325 343 290 371 q 328 336 328 340 q 303 303 326 329 q 249 244 281 276 q 192 185 218 213 q 156 149 165 157 q 144 141 150 144 q 132 138 139 138 z "},"…":{"ha":639,"x_min":44,"x_max":626,"o":"m 324 -8 q 295 2 310 -8 q 272 22 281 13 q 283 34 271 25 q 310 51 296 43 q 326 58 325 60 q 349 47 338 53 q 372 42 360 40 l 378 42 q 385 38 385 42 q 375 24 385 33 q 349 3 363 14 q 324 -8 336 -8 m 97 -8 q 69 2 83 -8 q 46 22 54 13 q 57 34 44 25 q 84 51 69 43 q 100 58 99 60 q 122 47 111 53 q 146 42 133 40 l 151 42 q 158 38 158 42 q 149 24 158 33 q 123 3 136 14 q 97 -8 110 -8 m 567 -8 q 538 2 551 -8 q 515 22 524 13 q 526 34 514 25 q 553 51 539 43 q 569 58 567 60 q 591 47 581 53 q 614 42 601 40 l 619 42 q 626 38 626 42 q 617 24 626 33 q 592 3 606 14 q 567 -8 578 -8 z "},"–":{"ha":465,"x_min":108,"x_max":469,"o":"m 431 200 q 391 202 418 201 q 335 204 364 203 q 283 206 306 206 q 197 205 247 206 q 111 201 147 204 q 115 211 108 201 q 132 231 122 221 q 147 239 142 240 q 185 236 160 238 q 238 235 210 235 q 286 233 267 235 q 351 234 315 233 q 419 236 388 235 q 467 238 451 238 q 463 228 469 238 q 446 209 456 218 q 431 200 436 200 z "},"—":{"ha":711,"x_min":101,"x_max":725,"o":"m 685 197 q 638 198 675 197 q 553 200 600 199 q 465 202 506 201 q 408 203 424 203 q 348 203 390 203 q 256 202 306 203 q 165 201 207 201 q 104 199 122 200 q 108 208 101 199 q 125 228 115 218 q 140 236 135 238 q 185 233 149 235 q 269 231 222 232 q 356 231 315 231 q 411 231 396 231 q 478 231 432 231 q 576 233 524 232 q 669 234 628 233 q 721 235 710 235 q 718 225 725 235 q 701 206 711 215 q 685 197 692 197 z "},"“":{"ha":410,"x_min":133,"x_max":413,"o":"m 306 624 q 283 637 290 626 q 276 661 276 647 q 277 672 276 667 q 279 682 278 676 q 322 773 290 733 q 393 839 354 813 q 406 847 400 844 q 413 850 413 850 l 410 839 q 408 833 408 836 q 399 824 407 831 q 359 778 376 804 q 335 722 342 753 q 342 691 332 706 q 369 674 351 676 l 364 658 q 345 651 357 657 q 326 640 333 644 q 315 630 321 636 q 306 624 310 624 m 163 624 q 133 660 133 628 q 134 671 133 665 q 136 682 135 676 q 178 773 147 733 q 249 839 210 813 q 263 847 257 844 q 269 850 269 850 l 267 839 q 265 833 265 836 q 256 824 264 831 q 216 778 233 804 q 192 722 199 753 q 199 691 189 706 q 226 674 208 676 l 221 658 q 201 651 214 657 q 183 640 189 644 q 172 630 178 636 q 163 624 167 624 z "},"”":{"ha":233,"x_min":236,"x_max":515,"o":"m 400 636 q 385 628 392 631 q 379 625 379 625 l 382 636 q 384 643 383 640 q 393 651 385 646 q 434 697 417 671 q 457 753 451 724 q 451 785 461 771 q 422 801 440 799 l 428 817 q 447 826 435 819 q 465 836 460 832 q 478 847 472 840 q 486 851 483 853 q 515 815 515 847 q 515 805 515 810 q 513 793 514 800 q 471 703 503 743 q 400 636 439 664 m 257 636 q 242 628 249 631 q 236 625 236 625 l 239 636 q 241 643 240 640 q 250 651 242 646 q 291 697 274 671 q 314 753 308 724 q 307 785 317 771 q 279 801 297 799 l 285 817 q 304 826 292 819 q 322 836 317 832 q 333 847 328 840 q 343 851 339 853 q 372 815 372 847 q 372 805 372 810 q 369 793 371 800 q 327 703 358 743 q 257 636 296 664 z "},"‘":{"ha":233,"x_min":100,"x_max":236,"o":"m 129 625 q 100 661 100 629 q 101 672 100 667 q 103 683 101 678 q 146 774 114 735 q 217 840 178 813 q 230 849 224 846 q 236 851 236 851 l 233 840 q 231 834 232 836 q 222 825 231 832 q 183 779 200 806 q 158 724 165 753 q 165 692 156 707 q 193 675 175 678 l 188 660 q 169 651 181 658 q 150 640 157 644 q 139 630 144 636 q 129 625 133 624 z "},"’":{"ha":233,"x_min":236,"x_max":372,"o":"m 257 636 q 242 628 249 631 q 236 625 236 625 l 239 636 q 241 643 240 640 q 250 651 242 646 q 291 697 274 671 q 314 753 308 724 q 307 785 317 771 q 279 801 297 799 l 285 817 q 304 826 292 819 q 322 836 317 832 q 333 847 328 840 q 343 851 339 853 q 372 815 372 847 q 372 805 372 810 q 369 793 371 800 q 327 703 358 743 q 257 636 296 664 z "},"€":{"ha":686,"x_min":26,"x_max":708,"o":"m 350 -1 q 275 7 313 -1 q 174 74 207 24 q 140 193 140 125 q 140 210 140 201 q 142 228 140 219 q 78 226 108 226 q 29 224 49 225 q 33 234 26 224 q 51 255 40 244 q 68 264 63 265 q 99 262 76 263 q 147 260 121 261 q 172 336 156 296 q 108 332 129 333 q 113 342 106 332 q 131 363 119 353 q 147 372 142 374 q 164 372 153 372 q 190 369 175 371 q 247 448 214 410 q 324 519 281 486 q 440 579 371 556 q 569 603 510 603 q 618 599 596 603 q 664 585 640 596 q 696 562 683 575 q 708 531 708 549 q 707 519 708 524 q 689 483 704 504 q 667 439 674 461 q 655 432 665 435 q 647 433 644 429 q 663 497 663 460 q 650 550 663 529 q 620 574 640 568 q 576 581 600 581 q 531 576 554 581 q 492 565 508 572 q 436 540 464 556 q 383 501 408 524 q 269 368 313 439 l 357 368 q 428 369 388 368 q 504 370 468 369 q 556 371 540 371 q 552 361 560 371 q 534 341 544 351 q 517 331 524 331 q 472 333 503 332 q 409 336 442 335 q 353 338 376 338 q 310 338 336 338 q 253 336 283 338 q 222 260 233 299 l 278 258 q 349 259 308 258 q 425 261 389 260 q 478 263 461 263 q 474 252 482 263 q 456 232 467 242 q 439 222 446 222 q 394 225 425 224 q 331 227 364 226 q 275 228 297 228 l 215 228 q 213 208 214 218 q 213 189 213 199 q 238 94 213 135 q 313 38 263 53 q 372 29 342 29 q 485 54 429 29 q 588 120 540 79 q 665 207 635 161 q 672 213 669 213 q 678 206 676 213 q 678 194 681 199 q 536 53 624 108 q 350 -1 449 -1 z "},"ﬁ":{"ha":518,"x_min":-418,"x_max":667,"o":"m -275 -314 q -366 -297 -329 -314 q -415 -244 -403 -279 q -417 -236 -417 -240 q -418 -226 -418 -232 q -408 -180 -418 -206 q -387 -125 -399 -154 q -378 -117 -383 -117 q -372 -131 -368 -117 q -382 -175 -382 -151 q -340 -250 -382 -222 q -246 -278 -299 -278 q -203 -273 -225 -278 q -162 -258 -182 -268 q -56 -169 -97 -225 q 18 -54 -14 -114 q 102 141 67 39 q 178 343 138 243 l 146 343 q 131 342 139 343 q 115 339 122 340 l 113 340 q 140 367 115 356 q 178 379 164 379 l 194 379 q 235 468 210 417 q 288 570 261 519 q 336 656 315 621 q 464 800 394 751 q 618 849 533 849 q 651 838 635 849 q 665 807 667 828 l 661 757 q 654 753 661 753 q 651 754 651 753 q 626 793 647 779 q 575 807 604 807 q 531 799 554 807 q 456 753 492 786 q 381 651 421 721 q 340 569 361 617 q 299 472 319 522 q 258 379 278 422 q 324 378 292 379 q 383 378 356 378 q 460 381 425 378 q 521 393 494 383 l 540 400 q 549 401 543 401 q 551 399 551 401 q 546 389 551 394 q 517 342 538 379 q 473 259 496 304 q 432 178 450 214 q 397 106 411 140 q 383 56 383 71 q 403 36 383 36 q 450 58 421 36 q 510 112 479 81 q 563 169 540 143 q 579 190 569 178 q 592 204 589 201 q 590 180 600 196 q 574 157 581 164 q 508 83 543 121 q 433 21 474 46 q 344 -4 393 -4 q 321 1 331 -4 q 311 22 311 7 q 322 68 311 42 q 345 121 332 94 q 365 164 358 147 q 390 215 375 183 q 417 274 404 246 q 436 314 431 303 q 445 338 443 328 q 449 356 447 349 q 382 347 421 350 q 306 343 343 343 q 243 343 268 343 q 185 198 213 267 q 126 64 158 129 q 61 -60 100 6 q -28 -183 22 -125 q -140 -278 -78 -242 q -275 -314 -201 -314 m 586 531 q 557 543 565 531 q 553 551 556 547 q 551 560 551 556 q 574 597 551 583 q 601 606 589 606 q 631 593 622 606 q 635 585 633 589 q 636 576 636 581 q 614 539 636 553 q 586 531 600 531 z "},"ﬂ":{"ha":547,"x_min":-418,"x_max":831,"o":"m -275 -314 q -366 -297 -329 -314 q -415 -244 -403 -279 q -417 -236 -417 -240 q -418 -226 -418 -232 q -408 -180 -418 -206 q -387 -125 -399 -154 q -378 -117 -383 -117 q -372 -131 -368 -117 q -382 -175 -382 -151 q -340 -250 -382 -222 q -246 -278 -299 -278 q -203 -273 -225 -278 q -162 -258 -182 -268 q -56 -169 -97 -225 q 18 -54 -14 -114 q 102 141 67 39 q 178 343 138 243 l 146 343 q 131 342 139 343 q 115 339 122 340 l 113 340 q 140 367 115 356 q 178 379 164 379 l 194 379 q 235 468 210 417 q 288 570 261 519 q 336 656 315 621 q 464 800 394 751 q 618 849 533 849 q 651 838 635 849 q 665 807 667 828 l 664 785 q 708 810 688 794 q 750 839 729 826 q 794 851 771 851 q 823 836 815 850 q 831 806 831 822 q 829 788 831 796 q 825 772 828 779 q 753 622 799 694 q 659 488 708 550 q 569 375 610 425 q 480 264 524 317 q 381 160 436 211 q 370 127 375 142 q 365 93 365 113 q 376 51 365 68 q 417 35 388 35 q 425 35 421 35 q 435 36 429 35 q 485 63 458 40 q 540 114 513 85 q 590 169 568 143 q 608 192 600 181 q 619 206 617 203 q 622 201 621 204 q 622 194 624 197 q 616 176 621 185 q 604 160 611 167 q 576 124 594 147 q 533 76 557 101 q 468 24 507 50 q 389 -3 429 -3 q 332 17 347 -3 q 317 67 317 38 q 324 116 317 90 q 339 165 331 142 q 376 251 356 210 q 417 333 396 293 q 472 442 442 383 q 533 562 501 501 q 594 675 564 622 q 649 765 624 728 q 622 796 642 785 q 576 807 601 807 q 531 799 554 807 q 456 753 492 786 q 381 651 421 721 q 340 569 361 617 q 299 472 319 522 q 258 379 278 422 l 358 379 q 378 380 368 379 q 399 382 389 381 q 391 372 399 376 q 378 364 383 367 q 313 344 343 346 q 243 343 282 342 q 185 198 213 267 q 126 64 158 129 q 61 -60 100 6 q -28 -183 22 -125 q -140 -278 -78 -242 q -275 -314 -201 -314 m 396 201 q 480 292 440 243 q 557 393 519 342 q 640 506 596 444 q 724 635 685 567 q 783 772 764 703 q 788 800 788 789 q 778 817 788 817 q 738 790 764 817 q 676 708 711 764 q 601 583 640 653 q 523 442 561 514 q 451 306 485 369 q 396 201 418 243 z "},"‡":{"ha":454,"x_min":69,"x_max":665,"o":"m 69 -235 q 97 -165 76 -217 q 148 -39 117 -114 q 215 124 179 36 q 289 303 251 211 q 187 301 242 303 q 90 297 132 300 q 95 310 86 297 q 118 335 104 322 q 139 347 132 349 q 181 343 153 344 q 243 342 210 342 q 304 340 276 342 l 372 503 q 276 501 326 503 q 188 497 226 500 q 192 510 183 497 q 215 536 201 524 q 236 547 229 549 q 301 543 256 544 q 388 542 347 542 q 455 704 426 635 q 493 800 483 774 l 603 864 q 578 813 599 857 q 526 698 557 768 q 456 542 494 628 q 534 542 493 542 q 610 544 575 543 q 661 546 644 546 q 656 533 665 546 q 634 508 647 521 q 613 496 621 496 q 567 499 597 497 q 503 501 538 500 q 439 503 468 503 q 404 423 422 464 q 368 340 386 382 q 481 343 424 342 q 564 344 539 344 q 559 332 568 344 q 538 307 550 319 q 517 294 525 294 q 444 299 494 297 q 351 301 394 300 q 276 128 313 213 q 209 -26 239 43 q 160 -140 179 -94 q 138 -196 142 -185 l 69 -235 z "},"·":{"ha":819,"x_min":250,"x_max":660,"o":"m 422 243 q 299 288 347 243 q 250 397 250 332 q 283 503 250 454 q 371 581 317 551 q 486 610 425 610 q 611 565 563 610 q 660 454 660 519 q 626 349 660 397 q 538 272 592 301 q 422 243 483 243 z "},"‰":{"ha":1239,"x_min":94,"x_max":1231,"o":"m 118 -47 q 101 -44 108 -47 q 100 -35 94 -40 q 223 115 151 29 q 378 292 294 200 q 549 474 461 385 q 719 640 636 564 q 872 764 803 715 q 770 752 819 756 q 676 749 721 749 q 589 753 629 749 q 513 764 549 757 q 543 719 543 754 q 528 663 543 693 q 504 617 514 632 q 465 561 492 594 q 406 494 439 528 q 338 436 374 461 q 253 404 292 404 q 205 424 218 404 q 192 471 192 444 q 199 521 192 496 q 214 563 206 546 q 230 594 221 578 q 249 624 239 610 q 269 653 253 632 q 307 701 286 675 q 347 744 328 726 q 378 763 367 763 q 393 759 385 763 q 400 747 401 756 q 379 714 400 740 q 330 651 358 688 q 275 576 301 615 q 259 549 272 571 q 235 499 246 526 q 224 450 224 472 q 256 419 224 419 q 285 428 269 419 q 311 446 301 438 q 388 524 350 476 q 451 625 426 572 q 476 718 476 678 q 466 760 476 742 q 431 788 456 778 q 447 799 438 794 q 468 801 457 804 q 558 785 511 789 q 651 781 604 781 q 703 781 678 781 q 753 783 728 782 q 883 799 811 786 q 1003 826 954 813 q 1018 813 1018 825 q 998 773 1018 796 q 958 747 978 750 q 826 645 899 707 q 675 509 754 583 q 518 356 596 435 q 369 203 440 278 q 240 66 297 129 q 144 -39 182 3 q 118 -47 139 -47 m 583 -14 q 535 6 549 -14 q 522 53 522 26 q 529 103 522 78 q 544 144 536 128 q 560 176 551 160 q 579 206 569 192 q 600 235 583 214 q 638 283 617 257 q 678 326 658 308 q 708 344 697 344 q 724 341 715 344 q 732 329 733 338 q 711 296 732 322 q 662 233 690 269 q 607 158 633 196 q 590 131 603 153 q 566 81 578 108 q 554 32 554 54 q 586 1 554 1 q 616 10 600 1 q 642 28 632 19 q 719 106 681 57 q 782 207 757 154 q 807 300 807 260 q 797 342 807 324 q 763 369 786 360 q 754 375 754 372 q 763 383 754 383 q 810 374 785 383 q 855 347 836 365 q 874 303 874 329 q 862 249 874 276 q 835 197 850 222 q 796 142 822 175 q 737 76 769 110 q 669 18 704 43 q 625 -5 647 4 q 583 -14 603 -14 m 940 -14 q 892 6 906 -14 q 879 53 879 26 q 886 103 879 78 q 901 144 893 128 q 917 176 908 160 q 936 206 926 192 q 957 235 940 214 q 994 283 974 257 q 1035 326 1015 308 q 1065 344 1054 344 q 1081 341 1072 344 q 1089 329 1090 338 q 1067 296 1088 322 q 1019 233 1047 269 q 964 158 990 196 q 947 131 960 153 q 922 81 933 108 q 911 32 911 54 q 943 1 911 1 q 973 10 957 1 q 999 28 989 19 q 1076 106 1038 57 q 1139 207 1114 154 q 1164 300 1164 260 q 1153 342 1164 324 q 1118 369 1143 360 q 1111 375 1111 371 q 1119 383 1111 383 q 1167 374 1142 383 q 1212 347 1193 365 q 1231 303 1231 329 q 1219 249 1231 276 q 1192 197 1207 222 q 1153 142 1179 175 q 1094 76 1126 110 q 1025 18 1061 43 q 940 -14 979 -14 z "},"":{"ha":557,"x_min":24,"x_max":535,"o":"m 290 424 q 289 439 289 428 q 295 478 289 456 q 315 524 301 501 q 365 565 335 551 q 404 575 394 579 q 414 542 414 564 q 399 488 414 517 q 356 441 383 460 q 290 424 328 422 m 183 -43 q 140 -26 160 -43 q 99 18 121 -8 q 44 117 65 58 q 24 235 24 175 q 50 349 24 300 q 115 417 78 401 q 176 433 153 433 q 196 431 188 433 q 224 420 206 426 q 261 408 243 414 q 285 404 274 404 q 299 406 292 404 q 314 410 307 408 q 349 420 331 414 q 378 431 368 426 q 388 433 381 432 q 403 435 394 435 q 460 422 426 435 q 518 368 494 408 q 472 324 494 354 q 450 246 450 294 q 474 169 450 203 q 535 121 497 136 q 502 47 524 85 q 452 -17 481 8 q 392 -43 424 -43 q 356 -37 369 -43 q 336 -26 343 -32 q 288 -15 317 -15 q 239 -26 258 -15 q 219 -37 232 -32 q 183 -43 207 -43 z "},"ˆ":{"ha":392,"x_min":85,"x_max":378,"o":"m 349 467 q 328 469 340 463 q 305 485 315 475 q 290 497 294 494 q 261 527 275 511 q 236 556 247 543 q 228 556 236 560 q 195 531 219 549 q 144 497 171 513 q 104 475 118 481 q 94 474 99 474 q 85 475 89 474 q 166 532 125 503 q 242 592 207 561 l 258 592 q 298 542 272 569 q 353 494 324 514 q 364 488 358 492 q 378 483 369 483 l 378 479 q 363 473 374 478 q 349 467 351 468 z "},"˜":{"ha":385,"x_min":107,"x_max":369,"o":"m 306 488 q 255 497 278 488 q 211 514 232 506 q 165 522 190 522 q 135 513 143 522 q 124 497 126 504 l 107 497 q 134 537 114 517 q 178 557 154 557 q 218 549 201 557 q 255 534 235 542 q 307 526 275 526 q 340 538 329 526 q 356 557 350 550 l 369 557 q 343 508 361 529 q 306 488 325 488 z "},"¯":{"ha":347,"x_min":153,"x_max":397,"o":"m 174 526 q 160 536 168 526 q 154 551 153 546 l 156 554 q 190 558 167 557 q 236 560 213 560 q 271 561 260 561 q 310 560 285 561 q 359 556 335 558 q 393 549 383 553 q 396 547 394 547 q 397 546 397 547 q 388 539 394 539 q 281 533 335 539 q 174 526 226 526 z "},"˘":{"ha":317,"x_min":138,"x_max":369,"o":"m 218 444 q 185 447 204 444 q 151 460 165 450 q 138 489 138 469 q 143 506 138 496 q 154 517 149 517 l 175 517 q 168 497 168 506 q 188 473 168 481 q 226 465 208 465 q 299 483 267 465 q 347 511 332 501 l 369 511 q 306 466 350 488 q 218 444 263 444 z "},"˙":{"ha":268,"x_min":92,"x_max":206,"o":"m 144 349 q 116 359 131 349 q 93 379 101 369 q 104 391 92 382 q 131 408 117 400 q 147 415 146 417 q 169 403 158 410 q 193 399 181 397 l 199 399 q 206 394 206 399 q 196 381 206 390 q 170 360 183 371 q 144 349 157 349 z "},"˚":{"ha":269,"x_min":138,"x_max":306,"o":"m 179 463 q 138 497 138 463 q 146 526 138 507 q 167 562 154 544 q 197 583 181 579 q 226 609 208 599 q 263 619 244 619 q 295 606 285 619 q 306 575 306 593 q 286 522 306 547 q 238 479 267 496 q 179 463 210 463 m 196 483 q 249 510 225 483 q 276 561 272 538 q 277 567 276 564 q 278 572 278 569 q 273 591 278 583 q 257 599 268 599 q 238 594 247 599 q 221 585 229 590 l 232 579 q 203 544 219 557 q 181 504 186 532 l 181 500 q 196 483 181 483 z "},"¸":{"ha":264,"x_min":-32,"x_max":194,"o":"m -24 -299 q -32 -290 -32 -299 q -27 -282 -32 -285 q -19 -279 -22 -279 q 8 -278 -12 -278 q 51 -272 28 -278 q 94 -251 75 -267 q 119 -206 114 -236 q 110 -170 122 -189 q 86 -131 99 -151 q 74 -90 74 -111 q 101 -27 74 -56 q 167 1 128 1 l 194 1 q 144 -26 165 -6 q 122 -72 122 -47 q 136 -111 122 -93 q 163 -148 150 -129 q 171 -193 175 -167 q 130 -253 164 -231 q 53 -287 96 -276 q -24 -299 11 -299 z "},"˝":{"ha":535,"x_min":244,"x_max":490,"o":"m 372 464 q 394 518 386 497 q 414 572 401 539 q 424 600 417 579 q 440 640 431 621 q 454 663 449 660 q 456 663 456 663 q 458 664 457 664 q 478 658 465 664 q 489 647 490 651 q 476 613 489 639 q 444 556 463 588 q 409 499 425 524 q 386 468 393 474 q 378 465 385 467 q 372 464 372 464 m 244 464 q 266 518 258 497 q 286 572 274 539 q 296 600 289 579 q 312 640 303 621 q 326 663 321 660 q 328 663 328 663 q 331 664 329 664 q 350 658 338 664 q 361 647 363 651 q 348 613 361 639 q 316 556 335 588 q 281 499 297 524 q 258 468 265 474 q 251 465 257 467 q 244 464 244 464 z "},"˛":{"ha":275,"x_min":117,"x_max":325,"o":"m 149 -239 q 123 -226 129 -239 q 117 -194 117 -212 q 135 -121 117 -162 q 178 -43 153 -79 q 224 6 204 -7 l 253 6 q 220 -30 236 -3 q 193 -91 204 -57 q 182 -153 182 -125 q 187 -176 182 -165 q 206 -186 192 -186 q 225 -182 213 -186 q 276 -147 249 -172 q 324 -103 303 -121 q 325 -104 325 -101 q 322 -118 325 -108 q 317 -131 319 -128 q 263 -183 300 -154 q 186 -229 226 -212 q 149 -239 163 -239 z "},"ˇ":{"ha":401,"x_min":61,"x_max":354,"o":"m 181 382 q 141 433 167 406 q 86 479 115 460 q 75 486 81 482 q 61 490 69 490 l 61 494 q 77 501 65 496 q 90 507 89 506 q 112 505 100 511 q 134 490 124 499 q 149 476 144 481 q 178 447 164 463 q 203 418 193 431 q 211 418 203 414 q 244 444 219 426 q 294 478 268 461 q 335 499 321 494 q 345 501 340 501 q 354 499 350 500 q 274 443 314 472 q 197 382 233 414 l 181 382 z "},"Ð":{"ha":869,"x_min":-3,"x_max":950,"o":"m 14 -26 q 4 -24 11 -26 q -3 -18 -3 -22 q -1 -15 -3 -17 q 0 -14 0 -14 q 9 -11 10 -11 q 8 -12 8 -11 q 18 -10 8 -12 q 59 15 42 -1 q 89 53 76 31 q 168 190 129 121 q 244 331 207 260 q 193 328 218 329 q 140 325 168 328 q 145 336 138 325 q 164 360 153 347 q 182 371 175 372 q 217 367 196 368 q 263 364 239 365 l 333 496 q 365 556 350 525 q 396 617 381 586 q 410 650 403 633 q 428 682 418 667 q 463 716 439 701 q 510 738 488 731 l 476 738 q 401 734 449 738 q 300 722 353 731 q 206 697 247 714 q 150 653 165 681 q 136 604 136 628 q 149 567 136 576 q 161 554 161 557 q 157 549 161 551 q 150 546 153 546 q 129 563 142 546 q 106 599 117 579 q 93 626 96 619 q 89 657 89 642 q 115 715 89 694 q 178 743 140 735 q 253 753 215 751 q 317 756 292 756 q 456 759 386 756 q 593 763 525 763 q 722 753 658 763 q 836 718 785 744 q 919 643 888 692 q 950 515 950 594 q 923 367 950 443 q 856 232 896 292 q 381 -22 686 -22 q 284 -12 333 -22 q 192 19 235 -3 q 172 28 182 25 q 150 32 161 32 q 103 17 126 32 q 57 -12 79 3 q 14 -26 35 -26 m 364 -3 q 558 38 468 -3 q 717 151 649 78 q 824 318 785 224 q 853 411 842 363 q 865 507 865 460 q 799 674 865 615 q 626 733 733 733 q 572 728 600 733 q 525 701 543 722 q 491 653 507 679 q 460 601 475 626 q 399 487 428 546 q 342 371 371 428 l 338 364 q 399 366 372 364 q 446 369 426 368 q 442 358 450 369 q 424 335 435 346 q 406 324 413 324 q 367 327 388 325 q 319 331 346 329 l 251 194 q 231 155 242 175 q 211 115 221 135 q 206 101 208 108 q 203 83 203 93 q 214 53 203 65 q 238 29 225 40 q 299 3 264 10 q 364 -3 333 -3 z "},"ð":{"ha":458,"x_min":4,"x_max":543,"o":"m 49 -3 q 19 6 35 -3 q 4 28 4 15 q 6 38 4 35 q 40 150 13 92 q 108 260 68 208 q 190 343 149 311 q 251 373 222 367 q 315 379 281 379 l 361 379 q 388 468 378 417 q 397 571 397 519 q 393 633 397 604 q 341 605 367 619 q 289 571 315 590 q 288 583 286 569 q 294 613 289 597 q 304 632 299 629 q 342 647 319 636 q 386 668 364 657 q 356 741 376 710 q 304 785 336 772 q 290 797 290 790 q 317 814 290 807 q 329 815 321 815 q 388 791 353 815 q 440 694 422 767 q 497 728 472 713 q 539 753 521 743 q 541 742 543 756 q 535 713 539 728 q 524 694 531 697 q 489 679 507 686 q 447 661 471 672 q 452 619 450 642 q 454 569 454 596 q 391 301 454 433 q 194 64 328 169 q 118 16 156 35 q 49 -3 81 -3 m 86 44 q 134 64 103 44 q 202 115 165 83 q 272 185 239 147 q 327 262 306 224 q 349 332 349 300 q 340 353 349 347 q 317 358 331 358 q 235 327 278 358 q 156 248 193 296 q 97 150 119 200 q 75 61 75 100 q 86 44 75 44 z "},"Ł":{"ha":760,"x_min":4,"x_max":753,"o":"m 11 -10 q 8 -11 10 -11 q 4 1 4 -11 q 9 19 4 10 q 28 29 14 28 q 101 56 67 32 q 163 112 136 79 q 200 174 189 144 l 231 251 q 164 231 200 242 q 101 208 128 219 q 103 218 99 207 q 113 242 107 229 q 125 254 119 254 q 177 267 140 257 q 244 285 214 276 l 328 493 q 388 619 354 558 q 476 719 422 681 q 611 758 529 758 q 676 751 643 758 q 731 726 708 743 q 753 679 753 710 q 753 671 753 675 q 751 663 753 667 q 727 618 747 640 q 696 563 707 596 q 683 553 694 553 q 679 565 674 553 q 697 605 690 582 q 703 651 703 628 q 686 715 703 688 q 629 743 669 743 q 556 722 593 743 q 490 650 518 701 l 301 301 q 376 326 339 313 q 432 346 414 340 q 431 335 435 347 q 421 312 428 324 q 408 299 414 300 l 282 267 l 233 176 q 167 81 197 110 q 118 46 138 53 l 453 46 q 576 50 519 46 q 646 71 633 54 q 660 113 660 90 q 622 164 660 147 q 618 169 618 167 q 622 175 618 172 q 631 175 625 178 q 660 151 643 169 q 693 110 678 132 q 713 76 708 89 q 717 51 717 64 q 618 -6 717 -6 q 451 0 540 -6 q 276 13 363 6 q 113 22 189 19 q 55 15 83 25 q 11 -10 26 4 z "},"ł":{"ha":297,"x_min":43,"x_max":581,"o":"m 139 -3 q 82 17 97 -3 q 67 67 67 38 q 84 150 67 106 q 113 219 101 194 l 54 156 q 47 150 50 150 q 44 157 44 150 q 51 178 44 168 q 94 228 69 201 q 140 283 118 254 q 90 283 108 283 q 46 279 72 282 q 50 289 43 279 q 67 308 57 299 q 82 317 76 318 q 111 313 96 314 q 157 313 126 313 q 217 432 185 365 q 285 567 250 499 q 353 692 321 635 q 413 785 386 750 q 458 810 436 794 q 501 838 479 825 q 546 851 522 851 q 573 836 565 850 q 581 806 581 822 q 579 788 581 796 q 575 772 578 779 q 503 622 549 694 q 409 488 458 550 q 319 375 360 425 l 269 311 l 369 315 q 365 306 372 315 q 349 287 358 296 q 333 278 339 278 q 297 279 321 278 q 244 282 272 281 q 191 219 218 250 q 132 160 164 189 q 120 127 125 142 q 115 93 115 113 q 126 51 115 68 q 167 35 138 35 q 175 35 171 35 q 185 36 179 35 q 236 63 208 40 q 292 114 264 85 q 342 169 319 143 l 371 206 q 370 181 381 196 q 353 157 360 167 q 325 123 343 144 q 283 76 307 101 q 218 24 257 50 q 139 -3 179 -3 m 488 790 q 426 709 461 764 q 351 585 390 654 q 274 445 313 517 q 204 311 236 374 l 246 311 q 307 393 279 353 q 390 506 346 444 q 474 635 435 567 q 535 772 514 703 q 539 799 539 788 q 528 817 539 817 q 488 790 514 817 m 146 201 q 222 282 185 239 q 204 283 213 283 q 189 283 196 283 l 146 201 z "},"š":{"ha":322,"x_min":-1,"x_max":426,"o":"m 131 -22 q 78 -15 106 -22 q 28 8 50 -8 q 0 51 7 24 q -1 64 -1 56 q 8 107 -1 83 q 31 140 17 131 q 40 140 36 143 q 40 135 43 138 q 36 124 39 131 q 32 111 33 118 q 47 47 28 75 q 67 26 56 36 q 90 10 79 17 q 114 2 100 4 q 142 0 128 0 q 185 6 164 0 q 215 24 206 11 q 233 74 233 46 q 222 118 233 94 q 188 168 211 142 q 158 204 172 185 q 140 246 144 224 q 138 254 139 250 q 138 263 138 258 q 101 213 119 236 q 68 174 82 190 q 58 165 63 165 q 56 171 56 165 q 67 197 56 183 q 92 228 78 210 q 114 258 106 247 q 149 313 138 293 q 175 350 161 333 q 213 379 190 368 q 261 390 236 390 q 315 381 290 390 q 340 336 339 372 q 334 302 340 319 q 321 269 328 285 q 309 258 317 261 q 301 260 301 254 q 303 272 301 265 q 304 285 304 279 q 296 326 304 308 q 275 355 289 346 q 246 364 261 364 q 203 347 224 364 q 182 301 182 329 q 182 294 182 299 q 183 288 182 290 q 217 238 189 265 q 260 189 244 210 q 286 115 286 153 q 265 47 286 78 q 208 -3 243 15 q 131 -22 172 -22 m 253 468 q 213 519 239 492 q 158 565 188 546 q 147 572 153 568 q 133 576 142 576 l 133 581 q 149 587 138 582 q 163 593 161 592 q 184 591 172 597 q 206 576 196 585 q 221 563 217 567 q 251 533 236 549 q 275 504 265 517 q 283 504 275 500 q 316 530 292 513 q 367 564 340 547 q 407 585 393 581 q 417 587 413 588 q 426 585 422 586 q 346 529 386 558 q 269 468 306 500 l 253 468 z "},"Þ":{"ha":751,"x_min":-81,"x_max":747,"o":"m -60 -194 q -75 -190 -69 -194 q -75 -182 -81 -185 q -22 -159 -44 -176 q 14 -115 0 -142 q 72 -17 43 -67 q 126 82 100 32 q 192 205 158 143 q 258 328 225 267 q 294 394 271 350 q 349 494 318 439 q 410 606 379 550 q 467 709 440 663 q 511 781 494 756 q 529 800 528 807 q 585 824 554 810 q 647 848 615 838 q 701 858 678 858 q 715 855 708 858 q 722 847 722 851 q 694 839 722 839 q 665 834 681 839 q 624 804 650 829 q 558 724 600 782 q 468 589 517 665 q 558 588 508 589 q 653 573 608 586 q 719 525 697 560 q 747 433 747 482 q 716 331 747 379 q 638 247 685 283 q 542 192 590 211 q 427 164 490 171 q 310 157 364 157 q 269 158 288 157 q 235 160 250 158 q 176 44 204 101 q 129 -58 147 -12 q 111 -129 111 -104 q 114 -143 111 -135 q 115 -147 115 -144 q 111 -151 115 -151 q 89 -146 100 -151 q 63 -140 78 -140 q 35 -147 49 -140 q -1 -168 21 -153 q -51 -193 -24 -183 q -60 -194 -54 -194 m 300 186 q 397 194 343 186 q 505 223 451 203 q 600 280 558 243 q 661 372 642 317 q 670 406 668 389 q 672 440 672 424 q 649 524 672 488 q 581 565 625 560 q 567 567 575 567 q 551 567 560 567 q 495 560 525 567 q 450 533 465 553 q 401 456 432 508 q 337 341 371 403 q 274 229 303 279 l 251 189 q 274 187 263 188 q 300 186 286 186 z "},"þ":{"ha":506,"x_min":-289,"x_max":600,"o":"m -267 -460 q -289 -450 -289 -460 q -283 -437 -289 -443 q -235 -369 -264 -415 q -174 -262 -207 -322 q -108 -140 -142 -203 q -47 -19 -75 -76 q 0 76 -18 38 q 71 224 33 147 q 147 376 108 301 q 219 508 185 450 q 335 679 272 597 q 465 808 397 761 q 512 825 479 819 q 569 831 544 831 q 600 825 600 831 q 554 806 600 817 q 466 752 513 794 q 373 647 419 710 q 283 513 326 585 q 203 369 240 440 q 140 239 167 299 q 140 236 140 239 q 142 233 140 233 q 165 255 143 233 q 219 306 186 276 q 288 356 251 335 q 354 378 324 378 q 374 367 369 378 q 378 344 378 357 l 378 332 q 342 221 371 281 q 270 108 314 161 q 173 21 226 54 q 61 -12 119 -12 q 25 -8 44 -12 q -18 -101 7 -47 q -73 -214 -43 -154 q -135 -331 -103 -274 q -201 -435 -168 -389 q -230 -453 -210 -446 q -267 -460 -250 -460 m 83 11 q 131 28 106 11 q 171 60 157 46 q 211 108 188 75 q 257 179 235 140 q 294 254 279 218 q 310 313 310 290 q 307 325 310 319 q 297 331 304 331 q 265 315 285 331 q 222 278 244 300 q 180 237 199 257 q 153 207 161 217 q 114 158 138 190 q 72 94 90 126 q 53 39 53 61 q 83 11 53 11 z "},"Ž":{"ha":629,"x_min":-39,"x_max":1044,"o":"m 889 -353 q 779 -321 833 -353 q 675 -240 725 -289 q 582 -139 625 -190 q 506 -50 539 -87 q 425 42 463 0 q 347 111 388 85 q 256 138 307 138 q 170 120 213 138 q 96 72 128 103 q 51 -1 64 40 q 43 -33 47 -18 q 29 -61 39 -49 q 1 -75 19 -75 q -26 -64 -12 -75 q -39 -35 -39 -53 q -29 -3 -39 -18 q 78 133 8 57 q 238 290 149 208 q 419 452 326 372 q 597 601 513 532 q 740 718 681 669 q 609 720 675 719 q 478 721 543 721 q 420 718 457 721 q 346 706 383 715 q 283 674 308 696 q 261 614 258 651 q 269 584 263 603 q 278 561 276 565 l 264 550 q 243 585 256 565 q 221 625 231 606 q 210 654 211 644 q 209 661 210 657 q 208 669 208 665 q 214 701 208 685 q 233 729 219 717 q 298 754 256 749 q 385 760 340 760 q 451 758 419 760 q 501 757 482 757 l 825 757 q 826 753 826 757 q 824 740 826 749 q 818 729 821 732 q 473 452 643 603 q 147 133 303 301 q 226 165 189 156 q 296 175 263 175 q 405 147 354 175 q 505 67 456 118 q 608 -51 554 15 q 722 -174 664 -117 q 832 -267 779 -232 q 922 -301 885 -301 q 989 -279 968 -301 q 1010 -224 1010 -257 q 982 -137 1010 -182 q 962 -110 972 -122 q 944 -90 951 -97 q 952 -81 943 -87 q 963 -76 961 -75 q 992 -97 978 -86 q 1017 -124 1006 -108 q 1038 -162 1032 -142 q 1044 -203 1044 -183 q 1023 -276 1044 -242 q 966 -331 1001 -310 q 889 -353 931 -351 m 531 846 q 491 897 517 869 q 436 943 465 924 q 425 950 431 946 q 411 954 419 954 l 411 958 q 427 965 415 960 q 440 971 439 969 q 462 969 450 975 q 484 953 474 963 q 499 940 494 944 q 528 910 514 926 q 553 882 543 894 q 561 882 553 878 q 594 908 569 890 q 644 942 618 925 q 685 963 671 958 q 695 965 690 965 q 704 963 700 964 q 624 907 664 936 q 547 846 583 878 l 531 846 z "},"ž":{"ha":325,"x_min":-22,"x_max":519,"o":"m 424 -176 q 382 -165 403 -176 q 330 -121 361 -153 q 243 -26 299 -89 q 185 38 213 10 q 119 65 158 65 q 60 47 89 65 q 22 -3 31 28 q 18 -18 21 -11 q 11 -32 15 -25 q -3 -39 7 -39 q -16 -33 -10 -39 q -22 -18 -22 -28 q -17 -3 -22 -14 q 10 31 -10 10 q 53 78 29 53 q 97 124 76 103 q 131 156 118 146 q 237 249 188 204 q 344 342 286 294 q 294 340 326 342 q 227 336 263 339 q 165 328 192 333 q 132 313 139 322 q 113 300 122 300 q 107 304 107 300 q 114 315 107 308 q 133 342 126 329 q 147 368 140 356 q 178 366 163 367 q 210 365 193 365 q 295 367 251 365 q 376 369 339 369 q 397 352 389 369 q 406 325 404 335 q 300 249 358 290 q 186 164 242 208 q 126 113 160 144 q 68 63 92 82 q 140 82 107 82 q 220 53 185 82 q 297 -17 256 24 q 381 -89 339 -58 q 451 -119 422 -119 q 471 -115 461 -118 q 488 -107 481 -112 q 499 -85 499 -97 q 486 -53 499 -69 q 464 -32 474 -37 q 463 -29 463 -31 q 468 -22 463 -25 q 479 -22 474 -19 q 508 -50 497 -32 q 519 -90 519 -68 q 506 -132 519 -112 q 471 -163 493 -150 q 424 -176 449 -176 m 267 460 q 227 510 253 483 q 172 557 201 538 q 161 564 167 560 q 147 568 156 568 l 147 572 q 163 578 151 574 q 176 585 175 583 q 198 583 186 589 q 220 567 210 576 q 235 554 231 558 q 265 524 250 540 q 289 496 279 508 q 297 496 289 492 q 330 522 306 504 q 381 556 354 539 q 421 576 407 572 q 431 578 426 579 q 440 576 436 578 q 360 521 400 550 q 283 460 319 492 l 267 460 z "},"½":{"ha":913,"x_min":-47,"x_max":901,"o":"m -24 -44 q -40 -42 -33 -44 q -43 -35 -47 -40 q 133 152 36 51 q 331 357 229 253 q 530 556 433 461 q 705 728 626 651 q 833 847 783 804 q 845 851 836 850 q 864 851 854 851 q 890 851 878 851 q 899 847 901 850 q 810 767 867 819 q 683 644 754 714 q 533 497 613 575 q 375 340 454 419 q 224 188 296 261 q 97 58 153 115 q 7 -36 40 0 q -6 -42 3 -40 q -24 -44 -15 -44 m 175 408 q 147 407 175 408 q 53 400 118 406 l 69 424 q 75 423 72 424 q 82 422 78 422 q 122 428 99 422 q 153 451 144 435 q 169 490 158 461 q 190 551 179 519 q 204 599 200 582 l 204 597 l 238 697 q 251 754 251 743 q 244 764 251 764 q 228 757 239 764 q 207 742 218 750 l 190 728 l 168 713 l 169 729 q 174 740 172 736 q 176 750 175 744 l 206 767 l 250 794 q 284 816 263 803 q 322 839 306 829 q 338 844 332 844 q 343 839 343 844 q 338 822 343 832 q 306 746 321 788 q 271 640 290 704 l 257 593 q 231 513 244 557 q 215 449 218 468 q 228 431 214 436 q 261 424 243 425 q 286 424 279 424 l 267 400 q 226 405 257 403 q 175 408 194 407 m 454 -6 q 522 55 475 14 q 618 143 569 96 l 629 154 q 686 209 654 178 q 744 274 718 240 q 778 333 771 307 q 782 354 782 344 q 767 387 782 374 q 724 400 751 400 q 664 386 689 400 q 644 366 654 381 q 629 339 633 351 q 625 318 628 332 q 624 300 622 304 l 590 283 q 600 319 594 296 q 610 365 606 343 q 615 392 615 386 q 622 408 615 401 q 635 415 629 414 q 667 422 644 418 q 710 426 690 426 l 729 428 q 801 418 778 431 q 831 393 822 410 q 840 357 840 376 q 833 319 840 338 q 816 282 828 300 q 789 249 804 264 q 699 167 754 211 q 596 88 644 124 q 557 57 572 71 q 544 45 543 47 q 547 43 544 43 q 579 42 563 43 q 614 40 596 40 q 669 44 643 40 q 708 54 694 47 q 741 83 722 61 q 765 118 760 106 l 785 111 q 768 86 783 110 q 743 43 753 63 q 721 11 733 22 q 685 0 708 0 q 646 1 671 0 q 599 3 621 3 q 583 3 590 3 q 569 1 576 3 q 538 -1 569 1 q 454 -6 506 -3 z "},"⁰":{"ha":326,"x_min":58,"x_max":390,"o":"m 147 394 q 78 426 99 394 q 58 503 58 457 q 73 594 58 546 q 112 687 88 643 q 164 756 136 731 l 233 813 q 269 828 247 824 q 306 833 292 833 q 372 801 353 833 q 390 722 390 769 q 377 633 390 681 q 342 543 364 585 q 290 475 319 501 q 277 464 285 469 q 263 451 269 458 q 244 438 254 446 q 228 424 235 431 q 188 401 211 408 q 147 394 164 394 m 186 436 q 299 549 249 436 q 325 624 315 586 q 335 693 335 661 q 290 782 335 758 q 264 788 278 788 q 201 755 229 788 q 151 674 172 722 q 126 600 136 638 q 117 531 117 563 q 126 477 117 500 q 157 443 135 454 q 186 436 174 436 z "},"¹":{"ha":236,"x_min":-1,"x_max":289,"o":"m 121 408 q 92 407 121 408 q -1 400 64 406 l 15 424 q 21 423 18 424 q 28 422 24 422 q 67 428 44 422 q 99 451 90 435 q 114 490 104 461 q 135 551 124 519 q 150 599 146 582 l 150 597 l 183 697 q 197 754 197 743 q 190 764 197 764 q 174 757 185 764 q 153 742 164 750 l 136 728 l 114 713 l 115 729 q 119 740 118 736 q 122 750 121 744 l 151 767 l 196 794 q 230 816 208 803 q 268 839 251 829 q 283 844 278 844 q 289 839 289 844 q 283 822 289 832 q 251 746 267 788 q 217 640 236 704 l 203 593 q 177 513 190 557 q 161 449 164 468 q 174 431 160 436 q 207 424 189 425 q 232 424 225 424 l 213 400 q 172 405 203 403 q 121 408 140 407 z "},"²":{"ha":306,"x_min":-8,"x_max":378,"o":"m -8 397 q 60 458 13 417 q 156 546 107 499 l 167 557 q 224 612 192 581 q 282 676 256 643 q 315 736 308 710 q 319 757 319 747 q 304 790 319 776 q 261 803 289 803 q 201 789 226 803 q 181 769 192 783 q 167 742 171 754 q 163 721 165 735 q 161 703 160 707 l 128 686 q 138 722 132 699 q 148 767 143 746 q 153 794 153 789 q 160 810 153 804 q 172 818 167 817 q 205 825 182 821 q 247 829 228 829 l 267 831 q 339 821 315 833 q 369 796 360 813 q 378 760 378 779 q 371 722 378 740 q 353 685 365 703 q 326 651 342 667 q 237 570 292 614 q 133 490 182 526 q 94 460 110 474 q 81 448 81 450 q 85 446 82 446 q 117 444 100 446 q 151 443 133 443 q 206 447 181 443 q 246 457 232 450 q 278 486 260 464 q 303 521 297 508 l 322 514 q 306 489 321 513 q 281 446 290 465 q 258 414 271 425 q 222 403 246 403 q 183 404 208 403 q 136 406 158 406 q 121 406 128 406 q 107 404 114 406 q 75 402 107 404 q -8 397 43 400 z "},"³":{"ha":306,"x_min":26,"x_max":374,"o":"m 133 394 q 83 397 111 394 q 40 410 56 400 q 31 419 35 413 q 31 433 26 425 q 43 469 35 442 q 57 514 51 496 l 81 524 q 76 498 79 514 q 72 467 72 482 q 82 436 72 446 q 131 422 99 422 q 225 458 190 422 q 272 535 260 493 q 276 567 276 554 q 256 604 276 593 q 206 619 236 615 q 146 622 176 622 l 167 647 l 185 650 q 233 665 206 656 q 284 690 260 674 q 317 735 308 707 q 321 756 321 746 q 306 789 321 775 q 261 803 290 803 q 203 789 226 803 q 183 769 193 783 q 168 742 172 754 q 163 721 167 735 q 161 703 160 707 l 128 686 q 138 722 132 699 q 148 767 143 746 q 153 794 153 789 q 160 810 153 804 q 174 818 168 817 q 206 825 182 821 q 247 829 229 829 l 268 831 q 339 821 315 833 q 366 798 358 814 q 374 764 374 782 q 350 700 374 726 q 258 642 319 663 q 261 640 257 640 q 317 615 300 638 q 333 561 333 592 q 303 468 333 514 q 235 416 281 438 q 133 394 190 394 z "},"⁴":{"ha":354,"x_min":42,"x_max":419,"o":"m 228 408 q 200 407 228 408 q 107 400 172 406 l 125 424 q 131 423 128 424 q 136 422 133 422 q 174 428 151 422 q 207 451 197 435 q 219 479 211 458 q 236 525 228 500 l 189 525 q 151 524 189 525 q 60 521 113 524 q 42 526 42 521 q 53 540 42 532 q 81 563 64 547 q 114 597 97 579 l 135 621 l 246 738 q 267 759 257 749 q 283 778 276 769 q 318 813 308 810 q 349 825 336 818 q 374 836 363 832 q 390 840 385 840 q 396 836 396 840 q 392 822 396 833 q 360 749 376 792 q 325 640 344 706 l 301 569 q 325 572 315 571 q 338 576 335 574 q 376 607 354 585 q 403 640 397 629 l 417 636 l 419 628 q 402 604 418 626 q 379 567 386 582 q 354 533 368 544 q 313 524 340 522 l 288 524 q 277 480 282 500 q 269 449 272 460 q 283 431 268 436 q 317 424 299 425 q 342 424 335 424 l 319 400 q 280 405 311 403 q 228 408 249 407 m 213 565 q 231 565 222 565 q 247 567 240 565 l 251 574 q 257 591 254 581 q 258 597 260 601 l 290 697 q 304 740 299 721 q 308 767 310 760 q 265 726 294 756 q 205 661 236 696 q 150 601 174 626 l 128 576 q 129 568 121 569 q 167 566 144 567 q 213 565 190 565 z "},"⁵":{"ha":301,"x_min":26,"x_max":411,"o":"m 150 394 q 93 397 128 394 q 40 410 58 400 q 31 419 36 413 q 32 433 26 425 q 44 469 36 442 q 57 514 51 496 l 82 524 l 86 515 q 81 503 83 513 q 76 488 78 494 q 74 479 74 482 q 72 468 72 475 q 83 436 72 444 q 103 426 90 431 q 131 422 117 422 q 222 456 185 422 q 271 532 258 490 q 279 574 279 556 q 267 611 279 597 q 244 626 258 622 q 213 631 229 631 q 167 628 190 631 q 124 618 143 625 q 107 614 111 614 q 106 615 106 614 q 114 633 106 619 l 118 640 q 142 697 131 667 q 161 744 154 726 q 163 749 163 746 q 165 754 164 753 l 174 774 l 189 815 q 204 826 194 826 q 215 825 211 826 l 222 825 q 295 826 254 825 q 367 826 336 826 q 401 826 399 826 q 411 818 411 826 q 406 801 411 811 q 394 781 401 792 l 394 782 l 383 764 l 385 764 q 378 746 385 764 q 361 708 371 728 l 338 715 q 355 744 349 731 q 361 757 361 757 q 365 769 365 764 q 340 783 365 783 q 310 783 332 783 q 265 783 288 783 q 232 781 242 782 q 210 771 217 781 l 153 653 q 194 663 171 660 q 231 667 217 667 q 340 588 340 667 q 332 538 340 563 q 262 438 313 474 q 150 394 211 401 z "},"⁶":{"ha":326,"x_min":57,"x_max":407,"o":"m 154 399 q 78 428 99 399 q 57 499 57 457 q 63 556 57 526 q 79 613 69 586 q 134 719 100 667 q 217 804 168 771 q 331 838 267 838 q 363 835 347 838 q 393 825 379 832 q 403 818 399 824 q 401 803 407 813 l 401 804 q 390 773 399 797 q 379 733 382 749 l 349 721 q 357 740 351 725 q 364 764 363 756 q 365 775 365 767 q 357 800 365 792 l 358 800 q 322 811 346 811 q 258 792 289 811 q 203 742 228 772 q 165 683 179 713 q 153 658 160 671 q 143 631 147 646 l 169 646 q 182 652 175 649 q 190 658 189 656 q 222 668 201 665 q 257 671 243 671 q 328 644 307 671 q 349 582 349 618 q 331 507 349 544 q 283 450 313 469 l 254 435 l 225 417 q 189 403 211 407 q 154 399 167 399 m 188 433 q 228 443 210 433 q 275 493 261 461 q 289 556 289 525 q 288 570 289 563 q 286 583 288 578 q 267 621 283 607 q 226 635 250 635 q 189 626 210 635 q 157 604 172 619 q 133 569 142 589 q 114 501 114 533 q 125 461 114 479 q 160 436 136 443 q 174 434 167 435 q 188 433 182 433 z "},"⁷":{"ha":301,"x_min":46,"x_max":428,"o":"m 110 401 q 86 404 99 404 q 65 404 74 404 q 53 405 60 404 q 46 410 47 406 q 83 460 47 418 q 165 558 118 503 q 244 651 206 604 q 310 731 283 697 q 338 772 336 764 l 338 774 q 325 781 338 781 q 292 783 315 782 q 247 783 269 783 q 215 783 224 783 q 181 777 192 783 q 165 761 171 771 q 156 747 165 761 q 144 718 147 732 l 115 713 q 133 745 122 724 q 144 767 144 767 l 153 785 q 168 812 160 799 q 186 826 176 825 q 226 826 190 826 q 306 826 261 826 q 383 825 350 825 q 390 826 383 825 q 401 828 396 826 q 412 830 407 829 q 421 831 417 831 q 428 826 428 831 q 422 815 428 822 q 370 756 406 797 q 291 661 335 714 q 207 556 247 608 q 140 461 167 503 q 110 401 113 419 z "},"⁸":{"ha":301,"x_min":47,"x_max":382,"o":"m 138 394 q 75 410 103 394 q 47 460 47 426 q 51 485 47 472 q 103 560 65 529 q 179 614 140 592 q 149 644 161 628 q 138 683 138 661 q 144 719 138 701 q 180 781 154 754 q 238 824 206 808 q 303 840 271 840 q 360 824 338 840 q 382 776 382 808 q 378 746 382 763 q 333 683 367 711 q 267 635 299 656 q 304 600 289 619 q 319 553 319 581 q 314 518 319 533 q 244 427 296 460 q 138 394 193 394 m 244 650 q 289 685 267 664 q 327 731 311 707 q 343 774 343 754 q 330 804 343 793 q 296 815 317 815 q 240 794 265 815 q 204 742 215 774 q 202 731 203 736 q 201 721 201 725 q 215 680 201 697 q 244 650 228 663 m 140 422 q 206 442 176 422 q 246 499 235 463 q 251 526 251 514 q 236 568 251 551 q 201 599 221 585 q 140 551 168 578 q 101 489 113 525 q 97 463 97 475 q 140 422 97 422 z "},"⁹":{"ha":326,"x_min":35,"x_max":386,"o":"m 111 399 q 78 402 94 399 q 46 414 61 406 q 39 421 43 417 q 40 433 35 425 q 52 465 43 442 q 64 503 61 489 l 85 513 l 90 504 q 84 491 86 500 q 79 475 82 482 l 79 474 q 78 463 78 471 q 86 436 78 444 l 85 436 q 121 426 96 426 q 184 446 154 426 q 238 494 214 465 q 276 553 263 524 l 281 560 l 279 560 q 292 583 286 575 q 300 606 297 592 l 272 590 l 251 579 q 219 569 240 572 q 183 567 199 567 q 113 592 135 567 q 92 654 92 618 q 113 728 92 690 q 164 788 133 767 q 193 806 174 797 l 218 819 q 253 833 231 829 q 289 838 275 838 q 365 808 344 838 q 386 738 386 779 q 379 682 386 711 q 363 625 372 653 q 308 519 343 571 q 224 433 274 467 q 111 399 175 399 m 218 603 q 272 621 247 603 q 311 667 297 639 l 310 667 q 329 735 329 703 q 318 776 329 758 q 283 800 307 793 q 254 804 269 804 q 165 739 199 804 l 167 739 q 147 669 147 703 q 158 630 147 647 q 196 606 169 613 q 207 603 201 604 q 218 603 213 603 z "},"₀":{"ha":326,"x_min":58,"x_max":390,"o":"m 147 -8 q 78 23 99 -8 q 58 100 58 54 q 73 192 58 143 q 112 284 88 240 q 164 353 136 328 l 233 410 q 269 426 247 421 q 306 431 292 431 q 372 399 353 431 q 390 319 390 367 q 377 230 390 278 q 342 140 364 182 q 290 72 319 99 q 277 61 285 67 q 263 49 269 56 q 244 35 254 43 q 228 21 235 28 q 188 -1 211 6 q 147 -8 164 -8 m 186 33 q 299 146 249 33 q 325 221 315 183 q 335 290 335 258 q 290 379 335 356 q 264 385 278 385 q 201 352 229 385 q 151 271 172 319 q 126 197 136 235 q 117 128 117 160 q 126 74 117 97 q 157 40 135 51 q 186 33 174 33 z "},"₁":{"ha":236,"x_min":-1,"x_max":289,"o":"m 121 6 q 92 4 121 6 q -1 -3 64 3 l 15 21 q 21 20 18 21 q 28 19 24 19 q 67 26 44 19 q 99 49 90 32 q 114 88 104 58 q 135 148 124 117 q 150 196 146 179 l 150 194 l 183 294 q 197 351 197 340 q 190 361 197 361 q 174 354 185 361 q 153 339 164 347 l 136 325 l 114 310 l 115 326 q 119 338 118 333 q 122 347 121 342 l 151 364 l 196 392 q 230 413 208 400 q 268 436 251 426 q 283 442 278 442 q 289 436 289 442 q 283 419 289 429 q 251 343 267 385 q 217 238 236 301 l 203 190 q 177 110 190 154 q 161 46 164 65 q 174 28 160 33 q 207 22 189 22 q 232 21 225 21 l 213 -3 q 172 2 203 0 q 121 6 140 4 z "},"₂":{"ha":306,"x_min":-8,"x_max":378,"o":"m -8 -6 q 60 55 13 14 q 156 143 107 96 l 167 154 q 224 209 192 178 q 282 274 256 240 q 315 333 308 307 q 319 354 319 344 q 304 387 319 374 q 261 400 289 400 q 201 386 226 400 q 181 366 192 381 q 167 339 171 351 q 163 318 165 332 q 161 300 160 304 l 128 283 q 138 319 132 296 q 148 365 143 343 q 153 392 153 386 q 160 408 153 401 q 172 415 167 414 q 205 422 182 418 q 247 426 228 426 l 267 428 q 339 418 315 431 q 369 393 360 410 q 378 357 378 376 q 371 319 378 338 q 353 282 365 300 q 326 249 342 264 q 237 167 292 211 q 133 88 182 124 q 94 57 110 71 q 81 45 81 47 q 85 43 82 43 q 117 42 100 43 q 151 40 133 40 q 206 44 181 40 q 246 54 232 47 q 278 83 260 61 q 303 118 297 106 l 322 111 q 306 86 321 110 q 281 43 290 63 q 258 11 271 22 q 222 0 246 0 q 183 1 208 0 q 136 3 158 3 q 121 3 128 3 q 107 1 114 3 q 75 -1 107 1 q -8 -6 43 -3 z "},"₃":{"ha":306,"x_min":26,"x_max":374,"o":"m 133 -8 q 83 -6 111 -8 q 40 7 56 -3 q 31 16 35 10 q 31 31 26 22 q 43 66 35 39 q 57 111 51 93 l 81 121 q 76 95 79 111 q 72 64 72 79 q 82 33 72 43 q 131 19 99 19 q 225 55 190 19 q 272 132 260 90 q 276 164 276 151 q 256 201 276 190 q 206 216 236 213 q 146 219 176 219 l 167 244 l 185 247 q 233 262 206 253 q 284 288 260 271 q 317 332 308 304 q 321 353 321 343 q 306 386 321 372 q 261 400 290 400 q 203 386 226 400 q 183 366 193 381 q 168 339 172 351 q 163 318 167 332 q 161 300 160 304 l 128 283 q 138 319 132 296 q 148 365 143 343 q 153 392 153 386 q 160 408 153 401 q 174 415 168 414 q 206 422 182 418 q 247 426 229 426 l 268 428 q 339 418 315 431 q 366 395 358 411 q 374 361 374 379 q 350 297 374 324 q 258 239 319 260 q 261 238 257 238 q 317 212 300 235 q 333 158 333 189 q 303 65 333 111 q 235 13 281 35 q 133 -8 190 -8 z "},"₄":{"ha":354,"x_min":42,"x_max":419,"o":"m 228 6 q 200 4 228 6 q 107 -3 172 3 l 125 21 q 131 20 128 21 q 136 19 133 19 q 174 26 151 19 q 207 49 197 32 q 219 76 211 56 q 236 122 228 97 l 189 122 q 151 122 189 122 q 60 118 113 121 q 42 124 42 118 q 53 138 42 129 q 81 160 64 144 q 114 194 97 176 l 135 218 l 246 335 q 267 356 257 346 q 283 375 276 367 q 318 410 308 407 q 349 422 336 415 q 374 433 363 429 q 390 438 385 438 q 396 433 396 438 q 392 419 396 431 q 360 346 376 389 q 325 238 344 303 l 301 167 q 325 169 315 168 q 338 174 335 171 q 376 204 354 182 q 403 238 397 226 l 417 233 l 419 225 q 402 201 418 224 q 379 164 386 179 q 354 131 368 142 q 313 121 340 119 l 288 121 q 277 77 282 97 q 269 46 272 57 q 283 28 268 33 q 317 22 299 22 q 342 21 335 21 l 319 -3 q 280 2 311 0 q 228 6 249 4 m 213 163 q 231 163 222 163 q 247 164 240 163 l 251 171 q 257 188 254 178 q 258 194 260 199 l 290 294 q 304 338 299 318 q 308 364 310 357 q 265 323 294 353 q 205 258 236 293 q 150 199 174 224 l 128 174 q 129 165 121 167 q 167 163 144 164 q 213 163 190 163 z "},"₅":{"ha":301,"x_min":26,"x_max":411,"o":"m 150 -8 q 93 -6 128 -8 q 40 7 58 -3 q 31 16 36 10 q 32 31 26 22 q 44 66 36 39 q 57 111 51 93 l 82 121 l 86 113 q 81 101 83 110 q 76 85 78 92 q 74 76 74 79 q 72 65 72 72 q 83 33 72 42 q 103 24 90 28 q 131 19 117 19 q 222 53 185 19 q 271 129 258 88 q 279 171 279 153 q 267 208 279 194 q 244 224 258 219 q 213 228 229 228 q 167 225 190 228 q 124 215 143 222 q 107 211 111 211 q 106 213 106 211 q 114 231 106 217 l 118 238 q 142 294 131 264 q 161 342 154 324 q 163 347 163 343 q 165 351 164 350 l 174 371 l 189 413 q 204 424 194 424 q 215 422 211 424 l 222 422 q 295 423 254 422 q 367 424 336 424 q 401 424 399 424 q 411 415 411 424 q 406 399 411 408 q 394 378 401 389 l 394 379 l 383 361 l 385 361 q 378 343 385 361 q 361 306 371 325 l 338 313 q 355 341 349 328 q 361 354 361 354 q 365 367 365 361 q 340 381 365 381 q 310 381 332 381 q 265 380 288 381 q 232 378 242 379 q 210 368 217 378 l 153 250 q 194 260 171 257 q 231 264 217 264 q 340 185 340 264 q 332 135 340 160 q 262 35 313 71 q 150 -8 211 -1 z "},"₆":{"ha":326,"x_min":57,"x_max":407,"o":"m 154 -4 q 78 25 99 -4 q 57 96 57 54 q 63 153 57 124 q 79 210 69 183 q 134 316 100 264 q 217 401 168 368 q 331 435 267 435 q 363 432 347 435 q 393 422 379 429 q 403 415 399 421 q 401 400 407 410 l 401 401 q 390 370 399 394 q 379 331 382 346 l 349 318 q 357 338 351 322 q 364 361 363 353 q 365 372 365 364 q 357 397 365 389 l 358 397 q 322 408 346 408 q 258 389 289 408 q 203 340 228 369 q 165 281 179 310 q 153 256 160 268 q 143 228 147 243 l 169 243 q 182 249 175 246 q 190 256 189 253 q 222 265 201 263 q 257 268 243 268 q 328 242 307 268 q 349 179 349 215 q 331 104 349 142 q 283 47 313 67 l 254 32 l 225 14 q 189 0 211 4 q 154 -4 167 -4 m 188 31 q 228 40 210 31 q 275 90 261 58 q 289 153 289 122 q 288 167 289 160 q 286 181 288 175 q 267 218 283 204 q 226 232 250 232 q 189 224 210 232 q 157 201 172 217 q 133 167 142 186 q 114 99 114 131 q 125 58 114 76 q 160 33 136 40 q 174 31 167 32 q 188 31 182 31 z "},"₇":{"ha":301,"x_min":46,"x_max":428,"o":"m 110 -1 q 86 1 99 1 q 65 1 74 1 q 53 2 60 1 q 46 7 47 3 q 83 58 47 15 q 165 156 118 100 q 244 248 206 201 q 310 328 283 294 q 338 369 336 361 l 338 371 q 325 378 338 378 q 292 380 315 379 q 247 381 269 381 q 215 381 224 381 q 181 374 192 381 q 165 358 171 368 q 156 344 165 358 q 144 315 147 329 l 115 310 q 133 342 122 321 q 144 364 144 364 l 153 382 q 168 409 160 396 q 186 424 176 422 q 226 424 190 424 q 306 423 261 424 q 383 422 350 422 q 390 423 383 422 q 401 425 396 424 q 412 427 407 426 q 421 428 417 428 q 428 424 428 428 q 422 413 428 419 q 370 353 406 394 q 291 258 335 311 q 207 153 247 206 q 140 58 167 100 q 110 -1 113 17 z "},"₈":{"ha":301,"x_min":47,"x_max":382,"o":"m 138 -8 q 75 8 103 -8 q 47 57 47 24 q 51 82 47 69 q 103 158 65 126 q 179 211 140 189 q 149 242 161 225 q 138 281 138 258 q 144 317 138 299 q 180 378 154 351 q 238 422 206 406 q 303 438 271 438 q 360 422 338 438 q 382 374 382 406 q 378 343 382 360 q 333 281 367 308 q 267 232 299 253 q 304 197 289 217 q 319 150 319 178 q 314 115 319 131 q 244 24 296 57 q 138 -8 193 -8 m 244 247 q 289 283 267 261 q 327 327 311 304 q 343 371 343 350 q 330 401 343 390 q 296 413 317 413 q 240 392 265 413 q 204 339 215 371 q 202 328 203 333 q 201 318 201 322 q 215 277 201 294 q 244 247 228 260 m 140 19 q 206 40 176 19 q 246 96 235 60 q 251 124 251 111 q 236 165 251 149 q 201 196 221 182 q 140 149 168 175 q 101 86 113 122 q 97 60 97 72 q 140 19 97 19 z "},"₉":{"ha":326,"x_min":35,"x_max":386,"o":"m 111 -4 q 78 -1 94 -4 q 46 11 61 3 q 39 18 43 14 q 40 31 35 22 q 52 63 43 39 q 64 100 61 86 l 85 110 l 90 101 q 84 88 86 97 q 79 72 82 79 l 79 71 q 78 60 78 68 q 86 33 78 42 l 85 33 q 121 24 96 24 q 184 43 154 24 q 238 92 214 63 q 276 150 263 121 l 281 157 l 279 157 q 292 181 286 172 q 300 203 297 189 l 272 188 l 251 176 q 219 167 240 169 q 183 164 199 164 q 113 190 135 164 q 92 251 92 215 q 113 326 92 288 q 164 385 133 364 q 193 403 174 394 l 218 417 q 253 431 231 426 q 289 435 275 435 q 365 406 344 435 q 386 335 386 376 q 379 279 386 308 q 363 222 372 250 q 308 116 343 168 q 224 30 274 64 q 111 -4 175 -4 m 218 200 q 272 218 247 200 q 311 264 297 236 l 310 264 q 329 332 329 300 q 318 373 329 356 q 283 397 307 390 q 254 401 269 401 q 165 336 199 401 l 167 336 q 147 267 147 300 q 158 227 147 244 q 196 203 169 210 q 207 201 201 201 q 218 200 213 200 z "},"¼":{"ha":1368,"x_min":335,"x_max":1133,"o":"m 364 -44 q 343 -42 351 -44 q 338 -35 335 -40 q 475 152 399 51 q 632 357 551 253 q 790 556 713 461 q 931 728 867 651 q 1035 847 994 804 q 1050 851 1038 850 q 1078 851 1063 851 q 1115 851 1097 851 q 1131 847 1133 850 q 1042 749 1100 815 q 913 597 985 683 q 763 418 840 511 q 614 237 686 325 q 485 77 542 149 q 397 -36 428 6 q 385 -42 394 -40 q 364 -44 375 -44 z "},"¾":{"ha":969,"x_min":19,"x_max":968,"o":"m 43 -44 q 26 -42 33 -44 q 24 -35 19 -40 q 199 152 103 51 q 398 357 296 253 q 597 556 500 461 q 772 728 693 651 q 900 847 850 804 q 912 851 903 850 q 931 851 921 851 q 956 851 944 851 q 965 847 968 850 q 877 767 933 819 q 750 644 821 714 q 600 497 679 575 q 442 340 521 419 q 291 188 363 261 q 163 58 219 115 q 74 -36 107 0 q 60 -42 69 -40 q 43 -44 51 -44 m 133 394 q 83 397 111 394 q 40 410 56 400 q 31 419 35 413 q 31 433 26 425 q 43 469 35 442 q 57 514 51 496 l 81 524 q 76 498 79 514 q 72 467 72 482 q 82 436 72 446 q 131 422 99 422 q 225 458 190 422 q 272 535 260 493 q 276 567 276 554 q 256 604 276 593 q 206 619 236 615 q 146 622 176 622 l 167 647 l 185 650 q 233 665 206 656 q 284 690 260 674 q 317 735 308 707 q 321 756 321 746 q 306 789 321 775 q 261 803 290 803 q 203 789 226 803 q 183 769 193 783 q 168 742 172 754 q 163 721 167 735 q 161 703 160 707 l 128 686 q 138 722 132 699 q 148 767 143 746 q 153 794 153 789 q 160 810 153 804 q 174 818 168 817 q 206 825 182 821 q 247 829 229 829 l 268 831 q 339 821 315 833 q 366 798 358 814 q 374 764 374 782 q 350 700 374 726 q 258 642 319 663 q 261 640 257 640 q 317 615 300 638 q 333 561 333 592 q 303 468 333 514 q 235 416 281 438 q 133 394 190 394 m 685 6 q 657 4 685 6 q 564 -3 629 3 l 582 21 q 588 20 585 21 q 593 19 590 19 q 631 26 608 19 q 664 49 654 32 q 676 76 668 56 q 693 122 685 97 l 646 122 q 608 122 646 122 q 517 118 569 121 q 499 124 499 118 q 510 138 499 129 q 538 160 521 144 q 571 194 554 176 l 592 218 l 703 335 q 724 356 714 346 q 740 375 733 367 q 775 410 765 407 q 806 422 793 415 q 831 433 819 429 q 847 438 842 438 q 853 433 853 438 q 849 419 853 431 q 817 346 833 389 q 782 238 801 303 l 758 167 q 782 169 772 168 q 794 174 792 171 q 833 204 811 182 q 860 238 854 226 l 874 233 l 876 225 q 859 201 875 224 q 836 164 843 179 q 811 131 825 142 q 769 121 797 119 l 744 121 q 734 77 739 97 q 726 46 729 57 q 740 28 725 33 q 774 22 756 22 q 799 21 792 21 l 776 -3 q 737 2 768 0 q 685 6 706 4 m 669 163 q 688 163 679 163 q 704 164 697 163 l 708 171 q 714 188 711 178 q 715 194 717 199 l 747 294 q 761 338 756 318 q 765 364 767 357 q 722 323 751 353 q 662 258 693 293 q 607 199 631 224 l 585 174 q 586 165 578 167 q 624 163 601 164 q 669 163 647 163 z "},"×":{"ha":592,"x_min":76,"x_max":522,"o":"m 79 135 q 77 140 78 132 q 76 157 76 147 q 78 189 76 172 q 85 208 79 206 q 127 240 94 214 q 199 299 160 267 q 268 356 239 332 q 223 392 250 371 q 167 437 196 414 q 116 478 139 460 q 85 503 93 496 q 78 519 81 506 q 76 546 76 532 q 78 568 76 558 q 81 576 79 578 q 190 480 133 526 q 299 382 247 433 q 351 427 319 399 q 418 487 383 456 q 480 542 453 518 q 517 576 507 567 q 520 569 519 578 q 521 547 521 560 q 519 519 521 533 q 513 503 517 506 q 480 478 503 496 q 429 437 457 460 q 374 392 401 414 q 329 356 347 371 q 398 299 358 332 q 470 240 438 267 q 513 208 503 214 q 520 188 518 204 q 522 156 522 171 q 518 135 522 131 q 476 173 504 149 q 415 226 449 197 q 351 283 382 256 q 299 329 319 311 q 245 283 276 311 q 181 226 214 256 q 122 172 149 197 q 79 135 94 147 z "},"−":{"ha":465,"x_min":108,"x_max":469,"o":"m 431 200 q 391 202 418 201 q 335 204 364 203 q 283 206 306 206 q 197 205 247 206 q 111 201 147 204 q 115 211 108 201 q 132 231 122 221 q 147 239 142 240 q 185 236 160 238 q 238 235 210 235 q 286 233 267 235 q 351 234 315 233 q 419 236 388 235 q 467 238 451 238 q 463 228 469 238 q 446 209 456 218 q 431 200 436 200 z "},"¤":{"ha":592,"x_min":121,"x_max":800,"o":"m 126 135 q 126 133 126 133 q 125 133 125 133 q 122 144 124 133 q 121 168 121 154 q 124 216 121 192 q 135 246 128 240 q 178 278 146 253 q 251 338 211 304 q 213 471 213 399 q 250 601 213 546 q 179 659 211 633 q 135 694 147 685 q 126 718 129 697 q 122 761 122 739 q 124 795 122 781 q 128 807 126 810 q 211 731 168 768 q 297 657 254 694 q 371 701 329 685 q 460 718 413 718 q 549 701 507 718 q 624 654 592 683 q 728 748 681 704 q 792 807 775 792 q 797 796 794 810 q 799 763 799 782 q 795 719 799 740 q 785 694 792 697 q 740 659 771 685 q 668 603 708 633 q 707 471 707 542 q 668 338 707 396 q 741 278 708 304 q 785 246 774 253 q 797 215 793 240 q 800 165 800 189 q 799 140 800 150 q 794 135 797 131 l 624 286 q 549 240 592 257 q 460 224 507 224 q 370 240 413 224 q 294 286 328 257 l 126 135 m 463 289 q 553 313 513 289 q 617 378 593 338 q 642 468 642 419 q 617 558 642 518 q 553 623 593 599 q 463 647 513 647 q 373 623 414 647 q 308 558 332 599 q 283 468 283 518 q 308 378 283 419 q 373 313 332 338 q 463 289 414 289 z "},"¦":{"ha":518,"x_min":89,"x_max":479,"o":"m 285 485 q 365 679 329 592 q 414 801 400 767 l 479 801 q 453 748 474 793 q 405 634 433 703 q 343 485 376 565 l 285 485 m 89 0 q 117 71 97 21 q 165 190 136 121 q 224 336 193 260 l 283 339 l 147 0 l 89 0 z "},"Ą":{"ha":1067,"x_min":24,"x_max":1351,"o":"m 121 -35 q 51 -10 78 -35 q 29 65 24 15 q 38 103 31 83 q 56 143 46 124 q 72 163 64 163 q 74 151 79 163 q 56 85 56 114 q 77 39 56 54 q 133 24 99 24 q 283 67 201 24 q 453 180 365 111 q 621 324 540 249 q 519 329 567 326 q 436 332 472 332 q 363 326 406 332 q 296 297 319 321 q 278 269 286 288 q 271 231 271 250 q 272 220 271 225 q 274 210 272 215 q 253 215 268 213 q 235 232 239 217 q 233 246 233 236 q 250 283 233 268 q 290 308 267 297 q 333 328 314 319 q 428 360 379 347 q 526 372 476 372 q 668 368 583 372 q 789 489 733 432 q 879 583 844 546 q 983 672 928 635 q 1094 724 1038 708 l 1018 724 q 913 719 969 724 q 806 701 856 715 q 722 660 756 688 q 691 619 701 642 q 681 576 681 596 q 696 540 681 550 q 697 540 697 540 q 697 539 697 539 q 688 530 697 535 q 674 528 678 525 q 649 567 660 538 q 642 615 639 597 q 680 685 649 658 q 758 728 711 713 q 856 749 804 743 q 956 756 908 754 q 1038 757 1004 757 l 1189 757 q 1190 756 1192 757 q 1263 786 1225 771 q 1329 801 1301 801 q 1344 797 1336 801 q 1351 789 1351 793 q 1324 782 1351 782 q 1295 777 1310 782 q 1257 747 1281 772 q 1208 685 1238 728 q 1144 584 1179 642 q 1075 462 1110 526 q 1008 335 1040 397 q 953 219 976 272 q 938 181 950 211 q 914 116 925 151 q 903 53 903 81 q 929 15 903 15 q 954 21 942 15 q 992 42 972 28 q 1029 74 1011 56 q 1090 141 1065 108 q 1121 181 1115 174 q 1131 188 1125 188 q 1136 181 1136 188 q 1132 169 1136 176 q 1096 122 1122 156 q 1034 53 1069 88 q 958 0 999 18 q 932 -9 946 -6 q 904 -12 918 -12 q 853 7 876 -12 q 831 71 831 26 q 847 158 831 111 q 876 233 863 204 q 942 367 904 293 q 1022 514 981 440 q 1097 647 1063 588 q 1154 736 1132 707 q 1094 719 1132 736 q 1015 673 1057 701 q 936 607 972 644 q 837 499 893 563 q 715 365 781 435 q 779 363 747 364 q 843 363 811 363 q 892 367 865 363 q 943 383 919 372 q 935 369 943 383 q 910 340 928 354 q 864 322 893 325 q 811 320 838 321 q 758 319 785 319 q 715 319 736 319 q 672 321 693 319 q 539 191 608 254 q 399 76 469 128 q 258 -5 328 25 q 121 -35 188 -35 m 822 -244 q 797 -231 803 -244 q 790 -200 790 -218 q 808 -126 790 -168 q 852 -49 826 -85 q 897 0 878 -12 l 926 0 q 894 -35 910 -8 q 867 -97 878 -62 q 856 -158 856 -131 q 860 -181 856 -171 q 879 -192 865 -192 q 899 -187 886 -192 q 949 -152 922 -178 q 997 -108 976 -126 q 999 -110 999 -107 q 996 -124 999 -114 q 990 -136 993 -133 q 937 -189 974 -160 q 860 -235 900 -218 q 822 -244 836 -244 z "},"Á":{"ha":1067,"x_min":24,"x_max":1351,"o":"m 121 -35 q 51 -10 78 -35 q 29 65 24 15 q 38 103 31 83 q 56 143 46 124 q 72 163 64 163 q 74 151 79 163 q 56 85 56 114 q 77 39 56 54 q 133 24 99 24 q 283 67 201 24 q 453 180 365 111 q 621 324 540 249 q 519 329 567 326 q 436 332 472 332 q 363 326 406 332 q 296 297 319 321 q 278 269 286 288 q 271 231 271 250 q 272 220 271 225 q 274 210 272 215 q 253 215 268 213 q 235 232 239 217 q 233 246 233 236 q 250 283 233 268 q 290 308 267 297 q 333 328 314 319 q 428 360 379 347 q 526 372 476 372 q 668 368 583 372 q 789 489 733 432 q 879 583 844 546 q 983 672 928 635 q 1094 724 1038 708 l 1018 724 q 913 719 969 724 q 806 701 856 715 q 722 660 756 688 q 691 619 701 642 q 681 576 681 596 q 696 540 681 550 q 697 540 697 540 q 697 539 697 539 q 688 530 697 535 q 674 528 678 525 q 649 567 660 538 q 642 615 639 597 q 680 685 649 658 q 758 728 711 713 q 856 749 804 743 q 956 756 908 754 q 1038 757 1004 757 l 1189 757 q 1190 756 1192 757 q 1263 786 1225 771 q 1329 801 1301 801 q 1344 797 1336 801 q 1351 789 1351 793 q 1324 782 1351 782 q 1295 777 1310 782 q 1257 747 1281 772 q 1208 685 1238 728 q 1144 584 1179 642 q 1075 462 1110 526 q 1008 335 1040 397 q 953 219 976 272 q 938 181 950 211 q 914 116 925 151 q 903 53 903 81 q 929 15 903 15 q 954 21 942 15 q 992 42 972 28 q 1029 74 1011 56 q 1090 141 1065 108 q 1121 181 1115 174 q 1131 188 1125 188 q 1136 181 1136 188 q 1132 169 1136 176 q 1096 122 1122 156 q 1034 53 1069 88 q 958 0 999 18 q 932 -9 946 -6 q 904 -12 918 -12 q 853 7 876 -12 q 831 71 831 26 q 847 158 831 111 q 876 233 863 204 q 942 367 904 293 q 1022 514 981 440 q 1097 647 1063 588 q 1154 736 1132 707 q 1094 719 1132 736 q 1015 673 1057 701 q 936 607 972 644 q 837 499 893 563 q 715 365 781 435 q 779 363 747 364 q 843 363 811 363 q 892 367 865 363 q 943 383 919 372 q 935 369 943 383 q 910 340 928 354 q 864 322 893 325 q 811 320 838 321 q 758 319 785 319 q 715 319 736 319 q 672 321 693 319 q 539 191 608 254 q 399 76 469 128 q 258 -5 328 25 q 121 -35 188 -35 m 1107 899 q 1101 911 1099 901 q 1166 945 1133 928 q 1243 986 1199 963 q 1276 1004 1258 994 q 1300 1013 1294 1014 q 1306 1008 1303 1011 q 1307 999 1308 1004 q 1293 969 1304 975 q 1242 947 1276 960 q 1171 920 1208 933 q 1107 899 1133 907 z "},"Â":{"ha":1067,"x_min":24,"x_max":1351,"o":"m 121 -35 q 51 -10 78 -35 q 29 65 24 15 q 38 103 31 83 q 56 143 46 124 q 72 163 64 163 q 74 151 79 163 q 56 85 56 114 q 77 39 56 54 q 133 24 99 24 q 283 67 201 24 q 453 180 365 111 q 621 324 540 249 q 519 329 567 326 q 436 332 472 332 q 363 326 406 332 q 296 297 319 321 q 278 269 286 288 q 271 231 271 250 q 272 220 271 225 q 274 210 272 215 q 253 215 268 213 q 235 232 239 217 q 233 246 233 236 q 250 283 233 268 q 290 308 267 297 q 333 328 314 319 q 428 360 379 347 q 526 372 476 372 q 668 368 583 372 q 789 489 733 432 q 879 583 844 546 q 983 672 928 635 q 1094 724 1038 708 l 1018 724 q 913 719 969 724 q 806 701 856 715 q 722 660 756 688 q 691 619 701 642 q 681 576 681 596 q 696 540 681 550 q 697 540 697 540 q 697 539 697 539 q 688 530 697 535 q 674 528 678 525 q 649 567 660 538 q 642 615 639 597 q 680 685 649 658 q 758 728 711 713 q 856 749 804 743 q 956 756 908 754 q 1038 757 1004 757 l 1189 757 q 1190 756 1192 757 q 1263 786 1225 771 q 1329 801 1301 801 q 1344 797 1336 801 q 1351 789 1351 793 q 1324 782 1351 782 q 1295 777 1310 782 q 1257 747 1281 772 q 1208 685 1238 728 q 1144 584 1179 642 q 1075 462 1110 526 q 1008 335 1040 397 q 953 219 976 272 q 938 181 950 211 q 914 116 925 151 q 903 53 903 81 q 929 15 903 15 q 954 21 942 15 q 992 42 972 28 q 1029 74 1011 56 q 1090 141 1065 108 q 1121 181 1115 174 q 1131 188 1125 188 q 1136 181 1136 188 q 1132 169 1136 176 q 1096 122 1122 156 q 1034 53 1069 88 q 958 0 999 18 q 932 -9 946 -6 q 904 -12 918 -12 q 853 7 876 -12 q 831 71 831 26 q 847 158 831 111 q 876 233 863 204 q 942 367 904 293 q 1022 514 981 440 q 1097 647 1063 588 q 1154 736 1132 707 q 1094 719 1132 736 q 1015 673 1057 701 q 936 607 972 644 q 837 499 893 563 q 715 365 781 435 q 779 363 747 364 q 843 363 811 363 q 892 367 865 363 q 943 383 919 372 q 935 369 943 383 q 910 340 928 354 q 864 322 893 325 q 811 320 838 321 q 758 319 785 319 q 715 319 736 319 q 672 321 693 319 q 539 191 608 254 q 399 76 469 128 q 258 -5 328 25 q 121 -35 188 -35 m 1306 893 q 1264 910 1292 886 q 1227 946 1249 924 q 1199 975 1206 968 q 1182 979 1192 986 q 1152 958 1175 974 q 1106 926 1129 942 q 1069 904 1082 911 q 1042 901 1053 896 q 1123 958 1082 929 q 1199 1018 1164 988 l 1215 1018 q 1255 968 1229 996 q 1310 921 1281 940 q 1321 914 1315 918 q 1335 910 1326 910 l 1335 906 q 1319 899 1331 904 q 1306 893 1308 894 z "},"Ă":{"ha":1067,"x_min":24,"x_max":1351,"o":"m 121 -35 q 51 -10 78 -35 q 29 65 24 15 q 38 103 31 83 q 56 143 46 124 q 72 163 64 163 q 74 151 79 163 q 56 85 56 114 q 77 39 56 54 q 133 24 99 24 q 283 67 201 24 q 453 180 365 111 q 621 324 540 249 q 519 329 567 326 q 436 332 472 332 q 363 326 406 332 q 296 297 319 321 q 278 269 286 288 q 271 231 271 250 q 272 220 271 225 q 274 210 272 215 q 253 215 268 213 q 235 232 239 217 q 233 246 233 236 q 250 283 233 268 q 290 308 267 297 q 333 328 314 319 q 428 360 379 347 q 526 372 476 372 q 668 368 583 372 q 789 489 733 432 q 879 583 844 546 q 983 672 928 635 q 1094 724 1038 708 l 1018 724 q 913 719 969 724 q 806 701 856 715 q 722 660 756 688 q 691 619 701 642 q 681 576 681 596 q 696 540 681 550 q 697 540 697 540 q 697 539 697 539 q 688 530 697 535 q 674 528 678 525 q 649 567 660 538 q 642 615 639 597 q 680 685 649 658 q 758 728 711 713 q 856 749 804 743 q 956 756 908 754 q 1038 757 1004 757 l 1189 757 q 1190 756 1192 757 q 1263 786 1225 771 q 1329 801 1301 801 q 1344 797 1336 801 q 1351 789 1351 793 q 1324 782 1351 782 q 1295 777 1310 782 q 1257 747 1281 772 q 1208 685 1238 728 q 1144 584 1179 642 q 1075 462 1110 526 q 1008 335 1040 397 q 953 219 976 272 q 938 181 950 211 q 914 116 925 151 q 903 53 903 81 q 929 15 903 15 q 954 21 942 15 q 992 42 972 28 q 1029 74 1011 56 q 1090 141 1065 108 q 1121 181 1115 174 q 1131 188 1125 188 q 1136 181 1136 188 q 1132 169 1136 176 q 1096 122 1122 156 q 1034 53 1069 88 q 958 0 999 18 q 932 -9 946 -6 q 904 -12 918 -12 q 853 7 876 -12 q 831 71 831 26 q 847 158 831 111 q 876 233 863 204 q 942 367 904 293 q 1022 514 981 440 q 1097 647 1063 588 q 1154 736 1132 707 q 1094 719 1132 736 q 1015 673 1057 701 q 936 607 972 644 q 837 499 893 563 q 715 365 781 435 q 779 363 747 364 q 843 363 811 363 q 892 367 865 363 q 943 383 919 372 q 935 369 943 383 q 910 340 928 354 q 864 322 893 325 q 811 320 838 321 q 758 319 785 319 q 715 319 736 319 q 672 321 693 319 q 539 191 608 254 q 399 76 469 128 q 258 -5 328 25 q 121 -35 188 -35 m 1163 881 q 1100 901 1124 881 q 1064 956 1076 921 q 1063 985 1058 971 q 1067 996 1064 990 q 1072 1001 1071 1001 q 1076 997 1075 1001 q 1082 985 1078 992 q 1122 935 1097 950 q 1175 921 1147 921 q 1235 936 1206 921 q 1290 986 1264 951 q 1307 996 1297 996 q 1307 981 1315 996 q 1238 904 1275 928 q 1163 881 1200 881 z "},"Ä":{"ha":1067,"x_min":24,"x_max":1351,"o":"m 121 -35 q 51 -10 78 -35 q 29 65 24 15 q 38 103 31 83 q 56 143 46 124 q 72 163 64 163 q 74 151 79 163 q 56 85 56 114 q 77 39 56 54 q 133 24 99 24 q 283 67 201 24 q 453 180 365 111 q 621 324 540 249 q 519 329 567 326 q 436 332 472 332 q 363 326 406 332 q 296 297 319 321 q 278 269 286 288 q 271 231 271 250 q 272 220 271 225 q 274 210 272 215 q 253 215 268 213 q 235 232 239 217 q 233 246 233 236 q 250 283 233 268 q 290 308 267 297 q 333 328 314 319 q 428 360 379 347 q 526 372 476 372 q 668 368 583 372 q 789 489 733 432 q 879 583 844 546 q 983 672 928 635 q 1094 724 1038 708 l 1018 724 q 913 719 969 724 q 806 701 856 715 q 722 660 756 688 q 691 619 701 642 q 681 576 681 596 q 696 540 681 550 q 697 540 697 540 q 697 539 697 539 q 688 530 697 535 q 674 528 678 525 q 649 567 660 538 q 642 615 639 597 q 680 685 649 658 q 758 728 711 713 q 856 749 804 743 q 956 756 908 754 q 1038 757 1004 757 l 1189 757 q 1190 756 1192 757 q 1263 786 1225 771 q 1329 801 1301 801 q 1344 797 1336 801 q 1351 789 1351 793 q 1324 782 1351 782 q 1295 777 1310 782 q 1257 747 1281 772 q 1208 685 1238 728 q 1144 584 1179 642 q 1075 462 1110 526 q 1008 335 1040 397 q 953 219 976 272 q 938 181 950 211 q 914 116 925 151 q 903 53 903 81 q 929 15 903 15 q 954 21 942 15 q 992 42 972 28 q 1029 74 1011 56 q 1090 141 1065 108 q 1121 181 1115 174 q 1131 188 1125 188 q 1136 181 1136 188 q 1132 169 1136 176 q 1096 122 1122 156 q 1034 53 1069 88 q 958 0 999 18 q 932 -9 946 -6 q 904 -12 918 -12 q 853 7 876 -12 q 831 71 831 26 q 847 158 831 111 q 876 233 863 204 q 942 367 904 293 q 1022 514 981 440 q 1097 647 1063 588 q 1154 736 1132 707 q 1094 719 1132 736 q 1015 673 1057 701 q 936 607 972 644 q 837 499 893 563 q 715 365 781 435 q 779 363 747 364 q 843 363 811 363 q 892 367 865 363 q 943 383 919 372 q 935 369 943 383 q 910 340 928 354 q 864 322 893 325 q 811 320 838 321 q 758 319 785 319 q 715 319 736 319 q 672 321 693 319 q 539 191 608 254 q 399 76 469 128 q 258 -5 328 25 q 121 -35 188 -35 m 1094 904 q 1043 935 1067 904 q 1060 950 1043 939 q 1083 965 1078 961 q 1097 971 1094 971 q 1117 963 1104 967 q 1142 955 1131 958 q 1154 950 1154 951 q 1146 936 1153 944 q 1094 904 1107 904 m 1256 904 q 1204 935 1228 904 q 1222 950 1204 939 q 1244 965 1239 961 q 1258 971 1256 971 q 1278 963 1265 967 q 1303 955 1292 958 q 1315 950 1315 951 q 1307 936 1314 944 q 1256 904 1268 904 z "},"Ã":{"ha":1067,"x_min":24,"x_max":1351,"o":"m 121 -35 q 51 -10 78 -35 q 29 65 24 15 q 38 103 31 83 q 56 143 46 124 q 72 163 64 163 q 74 151 79 163 q 56 85 56 114 q 77 39 56 54 q 133 24 99 24 q 283 67 201 24 q 453 180 365 111 q 621 324 540 249 q 519 329 567 326 q 436 332 472 332 q 363 326 406 332 q 296 297 319 321 q 278 269 286 288 q 271 231 271 250 q 272 220 271 225 q 274 210 272 215 q 253 215 268 213 q 235 232 239 217 q 233 246 233 236 q 250 283 233 268 q 290 308 267 297 q 333 328 314 319 q 428 360 379 347 q 526 372 476 372 q 668 368 583 372 q 789 489 733 432 q 879 583 844 546 q 983 672 928 635 q 1094 724 1038 708 l 1018 724 q 913 719 969 724 q 806 701 856 715 q 722 660 756 688 q 691 619 701 642 q 681 576 681 596 q 696 540 681 550 q 697 540 697 540 q 697 539 697 539 q 688 530 697 535 q 674 528 678 525 q 649 567 660 538 q 642 615 639 597 q 680 685 649 658 q 758 728 711 713 q 856 749 804 743 q 956 756 908 754 q 1038 757 1004 757 l 1189 757 q 1190 756 1192 757 q 1263 786 1225 771 q 1329 801 1301 801 q 1344 797 1336 801 q 1351 789 1351 793 q 1324 782 1351 782 q 1295 777 1310 782 q 1257 747 1281 772 q 1208 685 1238 728 q 1144 584 1179 642 q 1075 462 1110 526 q 1008 335 1040 397 q 953 219 976 272 q 938 181 950 211 q 914 116 925 151 q 903 53 903 81 q 929 15 903 15 q 954 21 942 15 q 992 42 972 28 q 1029 74 1011 56 q 1090 141 1065 108 q 1121 181 1115 174 q 1131 188 1125 188 q 1136 181 1136 188 q 1132 169 1136 176 q 1096 122 1122 156 q 1034 53 1069 88 q 958 0 999 18 q 932 -9 946 -6 q 904 -12 918 -12 q 853 7 876 -12 q 831 71 831 26 q 847 158 831 111 q 876 233 863 204 q 942 367 904 293 q 1022 514 981 440 q 1097 647 1063 588 q 1154 736 1132 707 q 1094 719 1132 736 q 1015 673 1057 701 q 936 607 972 644 q 837 499 893 563 q 715 365 781 435 q 779 363 747 364 q 843 363 811 363 q 892 367 865 363 q 943 383 919 372 q 935 369 943 383 q 910 340 928 354 q 864 322 893 325 q 811 320 838 321 q 758 319 785 319 q 715 319 736 319 q 672 321 693 319 q 539 191 608 254 q 399 76 469 128 q 258 -5 328 25 q 121 -35 188 -35 m 1229 890 q 1171 908 1207 890 q 1117 928 1135 928 q 1078 910 1096 928 q 1054 892 1060 892 q 1053 894 1053 893 q 1101 951 1053 914 q 1143 965 1119 965 q 1197 950 1160 965 q 1251 936 1231 936 q 1299 965 1278 936 q 1306 960 1306 965 q 1260 901 1306 939 q 1229 890 1246 890 z "},"Ā":{"ha":1067,"x_min":24,"x_max":1351,"o":"m 121 -35 q 51 -10 78 -35 q 29 65 24 15 q 38 103 31 83 q 56 143 46 124 q 72 163 64 163 q 74 151 79 163 q 56 85 56 114 q 77 39 56 54 q 133 24 99 24 q 283 67 201 24 q 453 180 365 111 q 621 324 540 249 q 519 329 567 326 q 436 332 472 332 q 363 326 406 332 q 296 297 319 321 q 278 269 286 288 q 271 231 271 250 q 272 220 271 225 q 274 210 272 215 q 253 215 268 213 q 235 232 239 217 q 233 246 233 236 q 250 283 233 268 q 290 308 267 297 q 333 328 314 319 q 428 360 379 347 q 526 372 476 372 q 668 368 583 372 q 789 489 733 432 q 879 583 844 546 q 983 672 928 635 q 1094 724 1038 708 l 1018 724 q 913 719 969 724 q 806 701 856 715 q 722 660 756 688 q 691 619 701 642 q 681 576 681 596 q 696 540 681 550 q 697 540 697 540 q 697 539 697 539 q 688 530 697 535 q 674 528 678 525 q 649 567 660 538 q 642 615 639 597 q 680 685 649 658 q 758 728 711 713 q 856 749 804 743 q 956 756 908 754 q 1038 757 1004 757 l 1189 757 q 1190 756 1192 757 q 1263 786 1225 771 q 1329 801 1301 801 q 1344 797 1336 801 q 1351 789 1351 793 q 1324 782 1351 782 q 1295 777 1310 782 q 1257 747 1281 772 q 1208 685 1238 728 q 1144 584 1179 642 q 1075 462 1110 526 q 1008 335 1040 397 q 953 219 976 272 q 938 181 950 211 q 914 116 925 151 q 903 53 903 81 q 929 15 903 15 q 954 21 942 15 q 992 42 972 28 q 1029 74 1011 56 q 1090 141 1065 108 q 1121 181 1115 174 q 1131 188 1125 188 q 1136 181 1136 188 q 1132 169 1136 176 q 1096 122 1122 156 q 1034 53 1069 88 q 958 0 999 18 q 932 -9 946 -6 q 904 -12 918 -12 q 853 7 876 -12 q 831 71 831 26 q 847 158 831 111 q 876 233 863 204 q 942 367 904 293 q 1022 514 981 440 q 1097 647 1063 588 q 1154 736 1132 707 q 1094 719 1132 736 q 1015 673 1057 701 q 936 607 972 644 q 837 499 893 563 q 715 365 781 435 q 779 363 747 364 q 843 363 811 363 q 892 367 865 363 q 943 383 919 372 q 935 369 943 383 q 910 340 928 354 q 864 322 893 325 q 811 320 838 321 q 758 319 785 319 q 715 319 736 319 q 672 321 693 319 q 539 191 608 254 q 399 76 469 128 q 258 -5 328 25 q 121 -35 188 -35 m 1078 894 q 1065 904 1072 894 q 1058 919 1057 914 l 1060 922 q 1094 926 1071 925 q 1140 928 1117 928 q 1175 929 1164 929 q 1214 928 1189 929 q 1263 924 1239 926 q 1297 917 1288 921 q 1300 915 1299 915 q 1301 914 1301 915 q 1292 907 1299 907 q 1185 901 1239 907 q 1078 894 1131 894 z "},"À":{"ha":1067,"x_min":24,"x_max":1351,"o":"m 121 -35 q 51 -10 78 -35 q 29 65 24 15 q 38 103 31 83 q 56 143 46 124 q 72 163 64 163 q 74 151 79 163 q 56 85 56 114 q 77 39 56 54 q 133 24 99 24 q 283 67 201 24 q 453 180 365 111 q 621 324 540 249 q 519 329 567 326 q 436 332 472 332 q 363 326 406 332 q 296 297 319 321 q 278 269 286 288 q 271 231 271 250 q 272 220 271 225 q 274 210 272 215 q 253 215 268 213 q 235 232 239 217 q 233 246 233 236 q 250 283 233 268 q 290 308 267 297 q 333 328 314 319 q 428 360 379 347 q 526 372 476 372 q 668 368 583 372 q 789 489 733 432 q 879 583 844 546 q 983 672 928 635 q 1094 724 1038 708 l 1018 724 q 913 719 969 724 q 806 701 856 715 q 722 660 756 688 q 691 619 701 642 q 681 576 681 596 q 696 540 681 550 q 697 540 697 540 q 697 539 697 539 q 688 530 697 535 q 674 528 678 525 q 649 567 660 538 q 642 615 639 597 q 680 685 649 658 q 758 728 711 713 q 856 749 804 743 q 956 756 908 754 q 1038 757 1004 757 l 1189 757 q 1190 756 1192 757 q 1263 786 1225 771 q 1329 801 1301 801 q 1344 797 1336 801 q 1351 789 1351 793 q 1324 782 1351 782 q 1295 777 1310 782 q 1257 747 1281 772 q 1208 685 1238 728 q 1144 584 1179 642 q 1075 462 1110 526 q 1008 335 1040 397 q 953 219 976 272 q 938 181 950 211 q 914 116 925 151 q 903 53 903 81 q 929 15 903 15 q 954 21 942 15 q 992 42 972 28 q 1029 74 1011 56 q 1090 141 1065 108 q 1121 181 1115 174 q 1131 188 1125 188 q 1136 181 1136 188 q 1132 169 1136 176 q 1096 122 1122 156 q 1034 53 1069 88 q 958 0 999 18 q 932 -9 946 -6 q 904 -12 918 -12 q 853 7 876 -12 q 831 71 831 26 q 847 158 831 111 q 876 233 863 204 q 942 367 904 293 q 1022 514 981 440 q 1097 647 1063 588 q 1154 736 1132 707 q 1094 719 1132 736 q 1015 673 1057 701 q 936 607 972 644 q 837 499 893 563 q 715 365 781 435 q 779 363 747 364 q 843 363 811 363 q 892 367 865 363 q 943 383 919 372 q 935 369 943 383 q 910 340 928 354 q 864 322 893 325 q 811 320 838 321 q 758 319 785 319 q 715 319 736 319 q 672 321 693 319 q 539 191 608 254 q 399 76 469 128 q 258 -5 328 25 q 121 -35 188 -35 m 1254 899 q 1191 920 1228 907 q 1120 947 1154 933 q 1069 969 1086 960 q 1060 981 1065 972 q 1056 999 1056 989 q 1063 1011 1056 1011 q 1087 1003 1069 1011 q 1129 981 1104 994 q 1197 945 1167 961 q 1258 913 1226 929 q 1258 905 1260 910 q 1254 899 1257 900 z "}}}
